<svg id="svg" version="1.1" xmlns="http://www.w3.org/2000/svg" xmlns:xlink="http://www.w3.org/1999/xlink" width="400" height="400" viewBox="0, 0, 400,400"><g id="svgg"><path id="path0" d="M188.167 63.265 C 187.662 63.299,185.787 63.407,184.000 63.506 C 164.257 64.602,144.779 69.691,127.466 78.274 C 101.037 91.378,77.280 114.840,61.168 143.750 C 52.131 159.964,46.178 178.567,45.006 194.250 C 44.910 195.533,44.790 197.071,44.739 197.667 C 44.533 200.062,44.485 203.885,44.658 204.058 C 44.755 204.155,44.833 204.800,44.833 205.492 C 44.833 207.018,45.389 212.008,45.736 213.598 C 46.424 216.758,47.075 219.179,47.691 220.876 C 48.065 221.907,48.519 223.162,48.701 223.667 C 49.197 225.044,50.622 227.916,51.541 229.392 C 51.990 230.111,52.403 230.824,52.460 230.975 C 52.643 231.461,54.680 234.204,56.006 235.750 C 60.970 241.537,67.319 245.893,74.868 248.693 L 76.819 249.417 77.333 250.998 C 79.693 258.269,86.026 265.267,92.333 267.574 C 93.182 267.884,95.336 268.653,95.917 268.853 C 100.253 270.343,107.054 270.790,114.398 270.067 C 117.365 269.775,117.141 269.605,116.668 271.792 C 116.455 272.777,116.188 274.071,116.075 274.667 C 115.962 275.262,115.791 276.128,115.695 276.590 C 114.512 282.319,114.495 296.519,115.664 303.250 C 116.485 307.978,117.037 310.899,117.247 311.625 C 117.386 312.106,117.613 312.894,117.751 313.375 C 117.888 313.856,118.228 315.225,118.506 316.417 C 118.783 317.608,119.196 319.221,119.423 320.000 C 119.649 320.779,120.137 322.617,120.505 324.083 C 120.874 325.550,121.629 328.512,122.183 330.667 C 122.737 332.821,123.324 335.107,123.486 335.746 C 123.835 337.123,123.788 337.173,124.935 334.210 C 125.352 333.132,125.838 331.945,126.014 331.572 C 126.189 331.200,126.333 330.834,126.333 330.761 C 126.333 330.640,128.716 324.536,129.493 322.667 C 129.664 322.254,130.418 320.342,131.167 318.417 C 131.916 316.492,132.702 314.504,132.914 314.000 C 133.126 313.496,133.355 312.896,133.423 312.667 C 133.682 311.802,135.484 308.025,136.327 306.583 C 136.809 305.758,137.382 304.770,137.600 304.387 C 139.822 300.488,145.463 294.096,149.917 290.430 C 152.627 288.198,155.386 286.106,156.750 285.247 C 157.300 284.901,158.350 284.226,159.083 283.748 C 161.485 282.181,164.716 280.454,170.333 277.737 C 173.047 276.424,181.841 273.167,182.671 273.167 C 182.837 273.167,184.085 273.681,185.445 274.311 C 191.504 277.115,198.321 279.684,203.417 281.084 C 203.875 281.210,204.775 281.469,205.417 281.659 C 206.393 281.949,208.519 282.418,213.823 283.515 C 222.431 285.296,235.931 285.034,244.179 282.925 C 250.909 281.205,256.168 278.986,260.630 275.983 C 261.297 275.534,261.888 275.167,261.943 275.167 C 262.131 275.167,264.418 273.434,266.250 271.904 C 271.696 267.355,277.633 260.044,280.483 254.377 L 280.838 253.671 281.544 253.932 C 281.932 254.076,282.438 254.290,282.667 254.408 C 283.234 254.700,286.704 255.779,287.833 256.015 C 288.337 256.120,288.875 256.272,289.028 256.352 C 291.470 257.628,303.851 257.572,308.124 256.265 C 308.560 256.132,309.629 255.826,310.500 255.586 C 321.380 252.588,333.244 243.217,341.156 231.372 C 342.867 228.811,343.768 227.410,343.865 227.160 C 343.917 227.026,344.349 226.279,344.825 225.500 C 346.121 223.377,348.835 217.823,349.423 216.092 C 349.577 215.638,349.875 214.888,350.086 214.425 C 351.855 210.546,354.046 202.143,354.651 196.917 C 354.757 196.000,354.927 194.537,355.029 193.667 C 355.317 191.198,355.266 183.039,354.943 180.083 C 352.003 153.197,335.901 126.659,309.850 105.768 C 277.818 80.080,243.075 66.084,204.917 63.496 C 202.288 63.318,189.950 63.148,188.167 63.265 M200.083 80.072 C 200.817 80.123,202.767 80.244,204.417 80.341 C 209.261 80.626,216.995 81.459,218.250 81.831 C 218.525 81.913,219.537 82.103,220.500 82.254 C 232.636 84.155,245.002 91.925,250.998 101.417 C 252.495 103.786,252.733 104.184,253.321 105.292 C 253.407 105.452,253.808 106.146,254.213 106.833 C 254.618 107.521,255.874 109.733,257.005 111.750 C 258.135 113.767,259.333 115.829,259.668 116.333 C 260.002 116.837,260.319 117.367,260.371 117.511 C 260.731 118.499,263.810 122.450,266.000 124.732 C 270.717 129.649,274.307 131.746,282.025 134.093 C 283.864 134.653,289.222 135.307,288.814 134.922 C 288.687 134.803,287.908 134.125,287.083 133.415 C 277.975 125.580,275.505 121.655,271.091 108.000 C 270.335 105.662,269.293 102.560,268.775 101.105 C 268.257 99.651,267.833 98.432,267.833 98.397 C 267.833 98.085,271.886 100.161,274.601 101.863 C 275.233 102.259,275.958 102.696,276.213 102.833 C 278.017 103.808,285.741 108.843,289.356 111.400 C 293.531 114.353,294.514 115.097,300.326 119.697 C 306.484 124.572,313.870 132.055,318.966 138.583 C 320.019 139.932,323.132 144.202,323.602 144.941 C 323.942 145.478,324.659 146.576,325.195 147.382 C 328.215 151.927,332.272 159.961,333.944 164.711 C 335.180 168.221,335.367 168.801,335.944 170.917 C 341.006 189.467,337.353 208.266,325.609 224.097 C 322.425 228.389,319.811 230.865,321.515 227.974 C 323.287 224.970,325.148 220.567,325.979 217.417 C 326.269 216.317,326.577 215.192,326.664 214.917 C 327.342 212.768,327.703 206.655,327.337 203.529 C 326.035 192.404,318.835 182.918,307.769 177.746 C 302.212 175.149,296.571 173.670,283.333 171.336 C 273.066 169.526,266.701 166.432,260.821 160.393 C 257.209 156.682,255.830 154.503,250.664 144.333 C 241.290 125.880,235.876 118.633,227.750 113.663 C 215.943 106.442,201.294 108.475,190.059 118.895 C 188.605 120.243,188.968 120.342,187.234 118.125 C 183.156 112.911,179.073 108.908,175.289 106.416 C 174.066 105.610,174.065 105.614,174.915 107.501 C 175.308 108.373,175.834 109.685,176.085 110.418 C 176.336 111.151,176.606 111.832,176.687 111.933 C 176.902 112.204,179.419 119.871,179.829 121.509 C 180.024 122.283,180.329 123.349,180.509 123.878 C 180.793 124.715,181.685 128.807,182.421 132.647 C 182.743 134.326,183.292 139.158,183.431 141.542 C 183.494 142.619,183.582 143.500,183.628 143.500 C 183.673 143.500,184.696 142.544,185.901 141.375 C 188.900 138.465,193.005 134.968,195.102 133.535 C 195.275 133.417,195.792 133.057,196.250 132.735 C 206.592 125.472,213.967 124.105,219.761 128.376 C 223.109 130.843,227.384 136.172,229.889 141.000 C 230.198 141.596,230.644 142.367,230.880 142.713 C 231.116 143.060,232.887 146.472,234.817 150.297 C 242.359 165.247,246.143 170.495,253.750 176.557 C 261.592 182.807,269.062 185.704,284.333 188.418 C 290.469 189.508,295.683 190.727,297.417 191.476 C 297.600 191.555,298.387 191.864,299.167 192.163 C 310.399 196.464,313.639 206.638,307.544 218.471 C 302.261 228.727,294.270 232.776,282.000 231.414 C 278.835 231.062,275.003 230.378,274.446 230.064 C 274.004 229.816,273.952 229.820,273.612 230.134 C 272.830 230.856,267.556 233.696,264.465 235.061 C 248.071 242.298,235.737 241.118,220.750 230.877 C 216.891 228.240,214.169 226.117,203.483 217.403 C 192.617 208.543,185.485 203.556,178.083 199.640 C 175.602 198.328,175.636 198.644,177.553 194.750 C 179.936 189.908,181.403 187.895,183.217 186.977 C 183.602 186.783,184.104 186.495,184.333 186.339 C 186.789 184.665,193.493 184.101,198.345 185.160 C 202.724 186.116,208.770 189.478,214.167 193.958 C 214.762 194.453,215.475 195.036,215.750 195.255 C 216.025 195.474,217.075 196.355,218.083 197.214 C 227.647 205.356,235.403 209.325,241.764 209.332 C 242.943 209.334,242.951 209.231,241.840 208.395 C 239.475 206.617,235.746 202.531,230.684 196.171 C 220.859 183.828,216.442 179.384,209.930 175.293 C 195.108 165.980,176.573 167.793,167.135 179.477 C 165.093 182.005,160.000 191.051,160.000 192.149 C 160.000 192.423,159.537 192.378,157.637 191.917 C 147.979 189.579,135.216 189.310,121.975 191.166 C 97.623 194.579,81.466 207.683,76.252 228.250 C 75.605 230.801,75.710 230.752,73.796 229.394 C 67.423 224.874,63.312 217.273,62.135 207.833 C 61.767 204.879,61.864 196.050,62.303 192.583 C 62.890 187.960,64.068 182.060,65.083 178.667 C 65.207 178.254,65.539 177.054,65.822 176.000 C 68.108 167.481,73.960 154.618,79.650 145.604 C 82.265 141.462,85.316 137.016,87.430 134.268 C 88.339 133.087,89.300 131.812,89.564 131.435 C 90.409 130.232,94.366 125.548,96.189 123.593 C 96.601 123.151,96.614 123.180,96.918 125.256 C 97.342 128.148,98.348 131.684,99.535 134.455 L 100.193 135.993 99.606 137.205 C 99.283 137.871,98.593 139.129,98.071 140.000 C 95.861 143.690,94.383 147.370,93.855 150.500 C 93.509 152.546,93.026 156.419,92.847 158.583 C 92.748 159.775,92.625 161.237,92.572 161.833 C 92.449 163.239,92.449 165.650,92.572 166.917 C 93.228 173.658,94.048 177.059,96.063 181.396 L 96.750 182.875 96.767 178.646 C 96.776 176.288,96.862 174.085,96.962 173.667 C 97.060 173.254,97.327 172.050,97.555 170.990 C 98.034 168.770,98.576 166.873,99.005 165.917 C 99.169 165.550,99.582 164.575,99.923 163.750 C 100.693 161.886,101.360 160.541,102.942 157.667 C 104.314 155.175,104.362 155.093,105.105 153.996 C 105.393 153.572,105.749 152.991,105.898 152.704 C 106.155 152.206,107.526 150.968,109.299 149.631 L 110.121 149.012 110.769 149.565 C 113.105 151.557,118.584 154.909,121.500 156.130 C 125.529 157.817,128.542 158.797,132.167 159.598 C 134.070 160.019,139.139 160.730,139.587 160.640 C 139.758 160.605,138.660 159.720,136.726 158.333 C 125.057 149.968,119.124 143.845,115.491 136.417 C 108.427 121.975,112.345 108.775,126.949 97.816 C 128.658 96.534,135.605 92.788,138.667 91.499 C 139.262 91.248,141.025 90.496,142.583 89.828 C 147.374 87.774,154.938 85.252,159.333 84.241 C 160.387 83.999,161.550 83.704,161.917 83.585 C 162.722 83.325,166.811 82.522,172.083 81.589 C 175.345 81.012,184.651 80.170,187.833 80.164 C 188.704 80.163,189.529 80.088,189.667 79.997 C 189.919 79.831,197.400 79.885,200.083 80.072 M146.250 206.843 C 149.825 207.208,155.451 208.376,158.500 209.388 C 165.057 211.563,171.526 214.727,177.250 218.558 C 178.350 219.295,179.700 220.197,180.250 220.564 C 181.269 221.244,183.902 223.198,185.431 224.411 C 185.897 224.781,186.452 225.196,186.663 225.333 C 187.107 225.622,190.815 228.601,193.250 230.626 C 194.167 231.389,195.067 232.122,195.250 232.257 C 195.433 232.391,196.310 233.097,197.198 233.825 C 216.695 249.805,227.672 255.273,242.083 256.184 C 246.887 256.488,250.967 256.176,256.735 255.064 C 257.919 254.836,259.020 254.578,259.183 254.491 C 260.430 253.824,259.260 255.580,257.170 257.514 C 241.953 271.587,217.644 271.591,189.420 257.524 L 184.924 255.282 183.920 255.484 C 166.970 258.892,147.120 269.382,134.518 281.591 C 132.014 284.017,131.926 284.055,132.079 282.625 C 132.292 280.649,132.857 276.959,133.009 276.560 C 133.092 276.340,133.277 275.660,133.419 275.049 C 134.750 269.306,136.703 265.587,141.117 260.386 C 142.198 259.112,143.421 257.640,143.833 257.116 C 144.246 256.592,146.665 253.688,149.208 250.664 C 151.752 247.639,153.833 245.126,153.833 245.080 C 153.833 245.006,159.814 237.880,160.720 236.876 C 161.235 236.303,160.973 236.270,159.810 236.761 C 159.227 237.007,156.688 238.053,154.167 239.085 C 151.646 240.117,147.446 241.841,144.833 242.917 C 142.221 243.992,139.483 245.118,138.750 245.417 C 138.017 245.717,135.879 246.597,134.000 247.374 C 123.326 251.784,116.743 253.430,109.021 253.621 C 99.017 253.867,94.388 251.027,92.934 243.750 C 89.873 228.430,98.027 215.370,114.000 210.011 C 122.177 207.267,136.554 205.855,146.250 206.843 " stroke="none" fill="#241c23" fill-rule="evenodd"></path><path id="path1" d="M187.167 0.179 C 175.720 0.976,162.152 3.073,152.667 5.512 C 150.512 6.065,148.150 6.669,147.417 6.853 C 144.326 7.628,142.704 8.103,138.917 9.346 C 133.312 11.185,131.889 11.682,129.417 12.666 C 128.225 13.140,126.725 13.714,126.083 13.943 C 124.568 14.483,121.554 15.757,119.274 16.822 C 118.279 17.287,117.387 17.667,117.291 17.667 C 116.999 17.667,107.132 22.537,106.055 23.213 C 105.704 23.433,104.517 24.084,103.417 24.660 C 100.981 25.934,100.188 26.387,99.000 27.181 C 98.496 27.519,97.671 28.000,97.167 28.250 C 96.315 28.674,95.650 29.086,93.101 30.768 C 92.561 31.125,91.773 31.606,91.351 31.838 C 90.546 32.281,89.421 33.047,87.333 34.574 C 86.646 35.076,86.018 35.491,85.939 35.494 C 85.806 35.500,85.135 35.982,82.437 38.013 C 81.898 38.418,81.338 38.825,81.192 38.917 C 80.560 39.316,77.680 41.511,77.582 41.669 C 77.523 41.765,76.974 42.178,76.362 42.586 C 75.750 42.995,74.837 43.709,74.333 44.173 C 73.829 44.637,73.094 45.257,72.700 45.550 C 67.447 49.458,54.763 61.836,48.757 68.917 C 48.212 69.558,47.388 70.504,46.925 71.018 C 46.462 71.533,45.838 72.292,45.538 72.706 C 45.238 73.120,44.536 73.974,43.978 74.604 C 43.419 75.235,42.716 76.134,42.414 76.604 C 42.112 77.073,41.681 77.636,41.457 77.854 C 41.037 78.262,39.106 80.786,38.985 81.085 C 38.947 81.177,38.148 82.278,37.208 83.531 C 36.269 84.784,35.496 85.871,35.491 85.946 C 35.486 86.022,35.109 86.608,34.653 87.250 C 33.772 88.490,32.462 90.464,30.892 92.917 C 30.365 93.742,29.661 94.829,29.328 95.333 C 28.996 95.837,28.528 96.640,28.289 97.118 C 28.050 97.595,27.526 98.495,27.125 99.118 C 26.189 100.570,25.794 101.271,24.416 103.917 C 23.796 105.108,23.195 106.196,23.081 106.333 C 22.772 106.705,18.121 116.219,17.540 117.667 C 17.264 118.354,16.773 119.479,16.447 120.167 C 15.625 121.904,14.167 125.341,14.167 125.539 C 14.167 125.630,13.538 127.289,12.769 129.227 C 12.000 131.165,11.199 133.313,10.987 134.000 C 10.776 134.688,10.024 137.012,9.316 139.167 C 8.121 142.805,7.807 143.878,6.828 147.667 C 6.627 148.446,6.132 150.358,5.729 151.917 C 4.683 155.962,3.710 160.396,3.503 162.063 C 3.405 162.851,3.291 163.591,3.250 163.706 C 2.913 164.660,1.428 174.657,0.928 179.333 C 0.211 186.041,0.124 187.868,0.045 197.917 C -0.040 208.641,0.190 214.631,0.917 220.583 C 0.962 220.950,1.149 222.487,1.332 224.000 C 2.299 231.954,3.913 240.814,5.599 247.417 C 6.185 249.708,6.785 252.071,6.934 252.667 C 7.723 255.829,8.576 258.610,11.102 266.250 C 11.595 267.740,13.182 271.878,13.668 272.940 C 13.842 273.319,14.035 273.844,14.097 274.107 C 14.229 274.664,15.656 278.060,16.715 280.336 C 17.121 281.208,17.508 282.108,17.575 282.336 C 17.801 283.099,21.868 291.387,23.299 294.000 C 24.077 295.421,25.162 297.408,25.711 298.417 C 26.260 299.425,26.896 300.500,27.124 300.805 C 27.351 301.111,27.818 301.898,28.160 302.555 C 28.793 303.770,31.162 307.533,31.596 308.013 C 31.726 308.158,31.833 308.337,31.833 308.412 C 31.833 308.607,33.656 311.467,33.820 311.530 C 33.896 311.559,34.340 312.183,34.807 312.917 C 35.767 314.424,35.761 314.414,37.582 316.921 C 38.316 317.931,39.133 319.074,39.397 319.461 C 39.661 319.848,40.449 320.858,41.149 321.707 C 41.849 322.556,42.522 323.445,42.643 323.684 C 42.764 323.923,43.368 324.679,43.985 325.365 C 44.602 326.051,45.536 327.182,46.059 327.878 C 46.583 328.573,47.065 329.167,47.131 329.196 C 47.196 329.226,47.813 329.916,48.500 330.731 C 53.149 336.237,62.612 345.808,67.661 350.109 C 70.048 352.142,70.758 352.766,70.804 352.868 C 70.833 352.934,71.433 353.420,72.137 353.947 C 72.841 354.474,73.792 355.249,74.250 355.670 C 75.246 356.585,76.416 357.500,76.589 357.500 C 76.658 357.500,77.129 357.856,77.637 358.292 C 79.078 359.529,81.062 360.998,81.292 360.999 C 81.406 361.000,81.500 361.062,81.500 361.138 C 81.500 361.215,81.856 361.528,82.292 361.835 C 82.727 362.142,83.770 362.905,84.609 363.530 C 85.449 364.155,86.184 364.667,86.244 364.667 C 86.367 364.667,88.373 366.001,88.500 366.168 C 88.610 366.311,90.960 367.881,91.517 368.182 C 91.960 368.422,93.154 369.181,95.136 370.481 C 95.749 370.883,96.625 371.401,97.083 371.632 C 97.542 371.863,98.404 372.367,99.000 372.752 C 100.202 373.528,102.141 374.628,103.917 375.542 C 104.558 375.872,105.683 376.488,106.417 376.910 C 107.150 377.333,108.837 378.211,110.167 378.861 C 115.765 381.598,117.309 382.333,117.463 382.333 C 117.552 382.333,118.366 382.679,119.271 383.102 C 121.387 384.091,125.457 385.833,125.649 385.833 C 125.731 385.833,127.287 386.422,129.107 387.142 C 132.603 388.525,132.758 388.579,139.167 390.660 C 142.848 391.855,145.544 392.646,147.667 393.155 C 148.079 393.254,150.479 393.853,153.000 394.488 C 157.591 395.643,160.732 396.324,162.917 396.637 C 163.558 396.729,165.621 397.070,167.500 397.394 C 174.749 398.643,181.112 399.362,189.167 399.841 C 193.105 400.076,210.656 399.963,214.000 399.682 C 226.415 398.639,238.079 396.791,247.500 394.374 C 249.838 393.775,252.237 393.179,252.833 393.049 C 254.645 392.656,257.993 391.620,266.250 388.897 C 267.666 388.430,271.864 386.826,272.822 386.385 C 273.137 386.240,273.925 385.952,274.572 385.744 C 275.738 385.370,277.884 384.457,280.367 383.279 C 281.072 382.944,282.122 382.490,282.700 382.269 C 283.899 381.811,292.435 377.650,293.327 377.088 C 293.651 376.884,295.154 376.057,296.667 375.251 C 298.179 374.444,300.111 373.343,300.960 372.804 C 301.808 372.265,302.692 371.752,302.924 371.664 C 303.305 371.519,303.856 371.174,307.075 369.066 C 307.620 368.709,308.408 368.228,308.825 367.997 C 309.547 367.597,310.329 367.069,312.583 365.463 C 313.133 365.071,313.788 364.644,314.039 364.515 C 314.289 364.386,314.627 364.160,314.789 364.013 C 315.059 363.768,318.046 361.576,318.889 361.005 C 319.790 360.394,321.957 358.734,322.333 358.366 C 322.563 358.142,323.155 357.700,323.649 357.383 C 324.144 357.066,324.931 356.447,325.399 356.007 C 325.867 355.567,326.822 354.767,327.522 354.229 C 334.408 348.929,348.867 334.494,354.103 327.692 C 354.572 327.082,355.459 326.021,356.073 325.333 C 356.687 324.646,357.328 323.821,357.497 323.500 C 357.666 323.179,358.021 322.692,358.286 322.417 C 358.832 321.851,361.000 319.081,361.000 318.949 C 361.000 318.902,361.491 318.200,362.090 317.390 C 363.932 314.901,364.484 314.128,365.299 312.897 C 367.604 309.409,368.217 308.474,368.943 307.333 C 369.380 306.646,370.084 305.557,370.507 304.914 C 370.930 304.271,371.472 303.355,371.711 302.880 C 371.950 302.404,372.474 301.505,372.875 300.882 C 373.811 299.430,374.206 298.729,375.584 296.083 C 376.204 294.892,376.806 293.804,376.920 293.667 C 377.179 293.357,382.333 282.901,382.333 282.686 C 382.333 282.534,382.783 281.497,383.788 279.333 C 384.811 277.130,385.833 274.678,385.833 274.427 C 385.833 274.286,386.055 273.663,386.326 273.043 C 386.978 271.553,388.527 267.528,388.972 266.167 C 391.942 257.081,392.422 255.507,393.239 252.167 C 393.385 251.571,393.919 249.471,394.425 247.500 C 395.471 243.425,396.500 238.836,396.500 238.244 C 396.500 238.025,396.760 236.421,397.077 234.679 C 398.392 227.460,399.224 220.765,399.759 213.083 C 400.126 207.820,400.026 189.003,399.606 184.333 C 398.948 177.025,398.125 170.867,396.999 164.833 C 396.802 163.779,396.576 162.392,396.497 161.750 C 396.315 160.282,395.228 155.420,394.236 151.642 C 393.818 150.051,393.366 148.300,393.231 147.750 C 392.495 144.751,391.993 143.038,390.790 139.417 C 390.059 137.217,389.362 135.037,389.241 134.574 C 389.009 133.687,388.043 131.118,386.660 127.715 C 386.205 126.595,385.833 125.601,385.833 125.504 C 385.833 125.294,384.295 121.648,383.370 119.667 C 383.007 118.888,382.501 117.725,382.246 117.083 C 381.992 116.442,381.232 114.814,380.558 113.466 C 379.884 112.118,379.081 110.468,378.774 109.800 C 378.468 109.131,377.531 107.359,376.692 105.862 C 375.853 104.366,375.167 103.100,375.167 103.049 C 375.167 102.910,373.571 100.149,372.558 98.536 C 372.068 97.755,371.667 97.048,371.667 96.966 C 371.667 96.811,370.410 94.818,368.983 92.711 C 368.534 92.047,368.167 91.446,368.167 91.375 C 368.167 91.304,367.752 90.647,367.246 89.915 C 366.739 89.183,365.768 87.758,365.087 86.750 C 363.305 84.110,361.477 81.605,361.221 81.450 C 361.099 81.377,361.000 81.236,361.000 81.137 C 361.000 80.916,359.500 78.872,358.547 77.796 C 358.161 77.359,357.591 76.607,357.281 76.126 C 356.970 75.644,356.368 74.875,355.941 74.417 C 355.514 73.958,354.884 73.225,354.541 72.786 C 348.504 65.077,334.298 50.860,327.322 45.547 C 326.815 45.160,326.141 44.593,325.825 44.286 C 325.027 43.513,323.746 42.500,323.565 42.500 C 323.482 42.500,322.962 42.106,322.410 41.625 C 321.124 40.505,319.094 39.000,318.869 39.000 C 318.773 39.000,318.669 38.931,318.639 38.847 C 318.571 38.661,315.353 36.311,313.083 34.791 C 312.167 34.177,310.929 33.328,310.333 32.906 C 309.737 32.483,309.063 32.048,308.833 31.939 C 308.480 31.771,306.779 30.690,304.333 29.079 C 304.012 28.868,303.225 28.420,302.583 28.084 C 301.942 27.748,301.192 27.303,300.917 27.096 C 300.642 26.889,299.592 26.268,298.583 25.716 C 297.575 25.165,295.587 24.078,294.167 23.301 C 290.923 21.527,285.771 19.002,282.083 17.377 C 277.133 15.197,274.695 14.167,274.488 14.167 C 274.377 14.167,273.678 13.908,272.935 13.592 C 270.766 12.670,267.001 11.232,265.917 10.911 C 265.367 10.749,262.929 9.960,260.500 9.159 C 258.071 8.357,255.521 7.571,254.833 7.412 C 254.146 7.252,252.796 6.910,251.833 6.651 C 245.944 5.069,240.251 3.745,238.274 3.498 C 237.619 3.416,235.630 3.084,233.854 2.760 C 228.519 1.788,223.142 1.078,215.917 0.394 C 212.652 0.085,190.858 -0.078,187.167 0.179 M204.917 63.496 C 243.075 66.084,277.818 80.080,309.850 105.768 C 335.901 126.659,352.003 153.197,354.943 180.083 C 355.266 183.039,355.317 191.198,355.029 193.667 C 354.927 194.537,354.757 196.000,354.651 196.917 C 354.046 202.143,351.855 210.546,350.086 214.425 C 349.875 214.888,349.577 215.638,349.423 216.092 C 348.835 217.823,346.121 223.377,344.825 225.500 C 344.349 226.279,343.917 227.026,343.865 227.160 C 343.768 227.410,342.867 228.811,341.156 231.372 C 333.244 243.217,321.380 252.588,310.500 255.586 C 309.629 255.826,308.560 256.132,308.124 256.265 C 303.851 257.572,291.470 257.628,289.028 256.352 C 288.875 256.272,288.337 256.120,287.833 256.015 C 286.704 255.779,283.234 254.700,282.667 254.408 C 282.438 254.290,281.932 254.076,281.544 253.932 L 280.838 253.671 280.483 254.377 C 277.633 260.044,271.696 267.355,266.250 271.904 C 264.418 273.434,262.131 275.167,261.943 275.167 C 261.888 275.167,261.297 275.534,260.630 275.983 C 249.211 283.667,229.720 286.804,213.823 283.515 C 208.519 282.418,206.393 281.949,205.417 281.659 C 204.775 281.469,203.875 281.210,203.417 281.084 C 198.321 279.684,191.504 277.115,185.445 274.311 C 184.085 273.681,182.837 273.167,182.671 273.167 C 181.841 273.167,173.047 276.424,170.333 277.737 C 164.716 280.454,161.485 282.181,159.083 283.748 C 158.350 284.226,157.300 284.901,156.750 285.247 C 155.386 286.106,152.627 288.198,149.917 290.430 C 145.463 294.096,139.822 300.488,137.600 304.387 C 137.382 304.770,136.809 305.758,136.327 306.583 C 135.484 308.025,133.682 311.802,133.423 312.667 C 133.355 312.896,133.126 313.496,132.914 314.000 C 132.702 314.504,131.916 316.492,131.167 318.417 C 130.418 320.342,129.664 322.254,129.493 322.667 C 128.716 324.536,126.333 330.640,126.333 330.761 C 126.333 330.834,126.189 331.200,126.014 331.572 C 125.838 331.945,125.352 333.132,124.935 334.210 C 123.788 337.173,123.835 337.123,123.486 335.746 C 123.324 335.107,122.737 332.821,122.183 330.667 C 121.629 328.512,120.874 325.550,120.505 324.083 C 120.137 322.617,119.649 320.779,119.423 320.000 C 119.196 319.221,118.783 317.608,118.506 316.417 C 118.228 315.225,117.888 313.856,117.751 313.375 C 117.613 312.894,117.386 312.106,117.247 311.625 C 117.037 310.899,116.485 307.978,115.664 303.250 C 114.495 296.519,114.512 282.319,115.695 276.590 C 115.791 276.128,115.962 275.262,116.075 274.667 C 116.188 274.071,116.455 272.777,116.668 271.792 C 117.141 269.605,117.365 269.775,114.398 270.067 C 107.054 270.790,100.253 270.343,95.917 268.853 C 95.336 268.653,93.182 267.884,92.333 267.574 C 86.026 265.267,79.693 258.269,77.333 250.998 L 76.819 249.417 74.868 248.693 C 67.319 245.893,60.970 241.537,56.006 235.750 C 54.680 234.204,52.643 231.461,52.460 230.975 C 52.403 230.824,51.990 230.111,51.541 229.392 C 50.622 227.916,49.197 225.044,48.701 223.667 C 48.519 223.162,48.065 221.907,47.691 220.876 C 47.075 219.179,46.424 216.758,45.736 213.598 C 45.389 212.008,44.833 207.018,44.833 205.492 C 44.833 204.800,44.755 204.155,44.658 204.058 C 44.485 203.885,44.533 200.062,44.739 197.667 C 44.790 197.071,44.910 195.533,45.006 194.250 C 45.322 190.022,45.645 187.876,46.937 181.417 C 54.697 142.638,85.017 102.099,121.966 81.101 C 139.271 71.267,162.407 64.705,184.000 63.506 C 185.787 63.407,187.662 63.299,188.167 63.265 C 189.950 63.148,202.288 63.318,204.917 63.496 M189.667 79.997 C 189.529 80.088,188.704 80.163,187.833 80.164 C 184.651 80.170,175.345 81.012,172.083 81.589 C 166.811 82.522,162.722 83.325,161.917 83.585 C 161.550 83.704,160.387 83.999,159.333 84.241 C 154.938 85.252,147.374 87.774,142.583 89.828 C 141.025 90.496,139.262 91.248,138.667 91.499 C 135.605 92.788,128.658 96.534,126.949 97.816 C 112.345 108.775,108.427 121.975,115.491 136.417 C 119.124 143.845,125.057 149.968,136.726 158.333 C 138.660 159.720,139.758 160.605,139.587 160.640 C 139.139 160.730,134.070 160.019,132.167 159.598 C 128.542 158.797,125.529 157.817,121.500 156.130 C 118.584 154.909,113.105 151.557,110.769 149.565 L 110.121 149.012 109.299 149.631 C 107.526 150.968,106.155 152.206,105.898 152.704 C 105.749 152.991,105.393 153.572,105.105 153.996 C 103.605 156.209,101.054 161.011,99.923 163.750 C 99.582 164.575,99.169 165.550,99.005 165.917 C 98.576 166.873,98.034 168.770,97.555 170.990 C 97.327 172.050,97.060 173.254,96.962 173.667 C 96.862 174.085,96.776 176.288,96.767 178.646 L 96.750 182.875 96.063 181.396 C 94.048 177.059,93.228 173.658,92.572 166.917 C 92.449 165.650,92.449 163.239,92.572 161.833 C 92.625 161.237,92.748 159.775,92.847 158.583 C 93.026 156.419,93.509 152.546,93.855 150.500 C 94.383 147.370,95.861 143.690,98.071 140.000 C 98.593 139.129,99.283 137.871,99.606 137.205 L 100.193 135.993 99.535 134.455 C 98.348 131.684,97.342 128.148,96.918 125.256 C 96.614 123.180,96.601 123.151,96.189 123.593 C 94.366 125.548,90.409 130.232,89.564 131.435 C 89.300 131.812,88.339 133.087,87.430 134.268 C 85.316 137.016,82.265 141.462,79.650 145.604 C 73.960 154.618,68.108 167.481,65.822 176.000 C 65.539 177.054,65.207 178.254,65.083 178.667 C 60.630 193.549,60.797 210.031,65.497 219.525 C 67.400 223.367,70.505 227.060,73.796 229.394 C 75.710 230.752,75.605 230.801,76.252 228.250 C 81.466 207.683,97.623 194.579,121.975 191.166 C 135.216 189.310,147.979 189.579,157.637 191.917 C 159.537 192.378,160.000 192.423,160.000 192.149 C 160.000 191.051,165.093 182.005,167.135 179.477 C 176.573 167.793,195.108 165.980,209.930 175.293 C 216.442 179.384,220.859 183.828,230.684 196.171 C 235.746 202.531,239.475 206.617,241.840 208.395 C 242.951 209.231,242.943 209.334,241.764 209.332 C 235.403 209.325,227.647 205.356,218.083 197.214 C 217.075 196.355,216.025 195.474,215.750 195.255 C 215.475 195.036,214.762 194.453,214.167 193.958 C 208.770 189.478,202.724 186.116,198.345 185.160 C 193.493 184.101,186.789 184.665,184.333 186.339 C 184.104 186.495,183.602 186.783,183.217 186.977 C 181.403 187.895,179.936 189.908,177.553 194.750 C 175.636 198.644,175.602 198.328,178.083 199.640 C 185.485 203.556,192.617 208.543,203.483 217.403 C 214.169 226.117,216.891 228.240,220.750 230.877 C 235.737 241.118,248.071 242.298,264.465 235.061 C 267.556 233.696,272.830 230.856,273.612 230.134 C 273.952 229.820,274.004 229.816,274.446 230.064 C 275.003 230.378,278.835 231.062,282.000 231.414 C 294.270 232.776,302.261 228.727,307.544 218.471 C 313.639 206.638,310.399 196.464,299.167 192.163 C 298.387 191.864,297.600 191.555,297.417 191.476 C 295.683 190.727,290.469 189.508,284.333 188.418 C 269.062 185.704,261.592 182.807,253.750 176.557 C 246.143 170.495,242.359 165.247,234.817 150.297 C 232.887 146.472,231.116 143.060,230.880 142.713 C 230.644 142.367,230.198 141.596,229.889 141.000 C 227.384 136.172,223.109 130.843,219.761 128.376 C 213.967 124.105,206.592 125.472,196.250 132.735 C 195.792 133.057,195.275 133.417,195.102 133.535 C 193.005 134.968,188.900 138.465,185.901 141.375 C 184.696 142.544,183.673 143.500,183.628 143.500 C 183.582 143.500,183.494 142.619,183.431 141.542 C 183.292 139.158,182.743 134.326,182.421 132.647 C 181.685 128.807,180.793 124.715,180.509 123.878 C 180.329 123.349,180.024 122.283,179.829 121.509 C 179.419 119.871,176.902 112.204,176.687 111.933 C 176.606 111.832,176.336 111.151,176.085 110.418 C 175.834 109.685,175.308 108.373,174.915 107.501 C 174.065 105.614,174.066 105.610,175.289 106.416 C 179.073 108.908,183.156 112.911,187.234 118.125 C 188.968 120.342,188.605 120.243,190.059 118.895 C 201.294 108.475,215.943 106.442,227.750 113.663 C 235.876 118.633,241.290 125.880,250.664 144.333 C 255.830 154.503,257.209 156.682,260.821 160.393 C 266.701 166.432,273.066 169.526,283.333 171.336 C 296.571 173.670,302.212 175.149,307.769 177.746 C 318.835 182.918,326.035 192.404,327.337 203.529 C 327.703 206.655,327.342 212.768,326.664 214.917 C 326.577 215.192,326.269 216.317,325.979 217.417 C 325.148 220.567,323.287 224.970,321.515 227.974 C 319.811 230.865,322.425 228.389,325.609 224.097 C 337.353 208.266,341.006 189.467,335.944 170.917 C 335.367 168.801,335.180 168.221,333.944 164.711 C 332.272 159.961,328.215 151.927,325.195 147.382 C 324.659 146.576,323.942 145.478,323.602 144.941 C 323.132 144.202,320.019 139.932,318.966 138.583 C 313.870 132.055,306.484 124.572,300.326 119.697 C 294.514 115.097,293.531 114.353,289.356 111.400 C 285.741 108.843,278.017 103.808,276.213 102.833 C 275.958 102.696,275.233 102.259,274.601 101.863 C 271.886 100.161,267.833 98.085,267.833 98.397 C 267.833 98.432,268.257 99.651,268.775 101.105 C 269.293 102.560,270.335 105.662,271.091 108.000 C 275.505 121.655,277.975 125.580,287.083 133.415 C 287.908 134.125,288.687 134.803,288.814 134.922 C 289.222 135.307,283.864 134.653,282.025 134.093 C 274.307 131.746,270.717 129.649,266.000 124.732 C 263.810 122.450,260.731 118.499,260.371 117.511 C 260.319 117.367,260.002 116.837,259.668 116.333 C 259.333 115.829,258.135 113.767,257.005 111.750 C 255.874 109.733,254.618 107.521,254.213 106.833 C 253.808 106.146,253.407 105.452,253.321 105.292 C 252.733 104.184,252.495 103.786,250.998 101.417 C 245.002 91.925,232.636 84.155,220.500 82.254 C 219.537 82.103,218.525 81.913,218.250 81.831 C 216.995 81.459,209.261 80.626,204.417 80.341 C 202.767 80.244,200.817 80.123,200.083 80.072 C 197.400 79.885,189.919 79.831,189.667 79.997 M134.000 206.675 C 117.459 207.646,107.723 210.967,100.569 218.078 C 93.387 225.216,90.901 233.576,92.934 243.750 C 94.388 251.027,99.017 253.867,109.021 253.621 C 116.743 253.430,123.326 251.784,134.000 247.374 C 135.879 246.597,138.017 245.717,138.750 245.417 C 139.483 245.118,142.221 243.992,144.833 242.917 C 147.446 241.841,151.646 240.117,154.167 239.085 C 156.688 238.053,159.227 237.007,159.810 236.761 C 160.973 236.270,161.235 236.303,160.720 236.876 C 159.814 237.880,153.833 245.006,153.833 245.080 C 153.833 245.126,151.752 247.639,149.208 250.664 C 146.665 253.688,144.246 256.592,143.833 257.116 C 143.421 257.640,142.198 259.112,141.117 260.386 C 136.703 265.587,134.750 269.306,133.419 275.049 C 133.277 275.660,133.092 276.340,133.009 276.560 C 132.857 276.959,132.292 280.649,132.079 282.625 C 131.926 284.055,132.014 284.017,134.518 281.591 C 147.120 269.382,166.970 258.892,183.920 255.484 L 184.924 255.282 189.420 257.524 C 217.644 271.591,241.953 271.587,257.170 257.514 C 259.260 255.580,260.430 253.824,259.183 254.491 C 258.695 254.752,254.098 255.598,251.405 255.921 C 244.620 256.737,236.627 256.110,231.016 254.320 C 227.708 253.266,226.367 252.785,224.667 252.046 C 216.348 248.432,209.379 243.809,197.198 233.825 C 196.310 233.097,195.433 232.391,195.250 232.257 C 195.067 232.122,194.167 231.389,193.250 230.626 C 190.815 228.601,187.107 225.622,186.663 225.333 C 186.452 225.196,185.897 224.781,185.431 224.411 C 183.902 223.198,181.269 221.244,180.250 220.564 C 179.700 220.197,178.350 219.295,177.250 218.558 C 171.526 214.727,165.057 211.563,158.500 209.388 C 151.764 207.153,142.789 206.159,134.000 206.675 " stroke="none" fill="#fbcb3b" fill-rule="evenodd"></path></g></svg>