<svg id="svg" version="1.1" xmlns="http://www.w3.org/2000/svg" xmlns:xlink="http://www.w3.org/1999/xlink" width="400" height="400" viewBox="0, 0, 400,400"><g id="svgg"><path id="path0" d="M0.000 100.000 L 0.000 200.000 200.000 200.000 L 400.000 200.000 400.000 100.000 L 400.000 0.000 200.000 0.000 L 0.000 0.000 0.000 100.000 M198.622 92.300 C 199.010 96.931,198.569 111.191,198.020 111.740 C 197.788 111.972,196.414 112.238,194.968 112.330 C 193.434 112.427,192.261 112.697,192.154 112.977 C 191.924 113.575,200.346 128.004,201.093 128.291 C 201.726 128.534,201.948 128.268,205.332 123.200 C 211.715 113.641,212.015 112.417,207.976 112.406 C 204.055 112.395,204.194 112.817,204.237 101.110 C 204.257 95.527,204.395 90.473,204.544 89.879 L 204.815 88.800 227.808 88.800 L 250.800 88.800 250.800 100.176 C 250.800 107.811,250.660 111.640,250.373 111.817 C 250.138 111.962,248.833 112.167,247.473 112.273 C 243.674 112.568,243.743 112.432,245.636 115.899 C 246.568 117.604,247.635 119.450,248.008 120.000 C 248.381 120.550,249.137 121.810,249.688 122.800 C 250.239 123.790,252.247 127.120,254.151 130.200 C 256.055 133.280,257.731 136.070,257.874 136.400 C 258.018 136.730,258.705 137.901,259.401 139.003 C 260.097 140.105,261.122 141.815,261.678 142.803 C 263.352 145.775,269.091 155.293,270.178 156.900 L 271.192 158.400 274.970 158.400 C 277.048 158.400,279.212 158.577,279.780 158.792 L 280.812 159.185 280.706 170.892 L 280.600 182.600 257.308 182.703 L 234.017 182.806 233.784 181.877 C 233.310 179.989,233.771 159.667,234.300 159.139 C 234.575 158.865,236.195 158.541,237.900 158.420 C 241.769 158.145,241.821 158.582,236.923 150.296 C 228.321 135.746,227.674 134.921,226.424 136.900 C 223.009 142.307,222.714 143.596,224.887 143.606 C 227.483 143.618,227.400 143.214,227.400 155.800 C 227.400 165.524,227.310 167.286,226.800 167.608 C 225.822 168.227,176.126 168.121,175.724 167.500 C 175.546 167.225,175.414 161.980,175.432 155.844 C 175.467 143.414,175.424 143.600,178.253 143.600 C 180.018 143.600,180.225 143.056,179.129 141.293 C 178.619 140.472,177.817 139.084,177.346 138.209 C 175.433 134.650,175.473 134.617,169.359 144.800 C 160.491 159.567,160.879 158.217,165.424 158.501 C 167.307 158.618,168.972 158.839,169.124 158.991 C 169.491 159.359,169.481 181.203,169.113 182.100 C 168.843 182.755,167.354 182.800,145.827 182.800 L 122.828 182.800 122.372 181.948 C 121.703 180.697,122.010 159.830,122.708 159.132 C 123.024 158.816,124.868 158.540,127.600 158.400 C 130.012 158.276,132.138 158.001,132.326 157.788 C 132.832 157.213,136.000 152.054,136.000 151.805 C 136.000 151.688,137.139 149.748,138.530 147.496 C 141.748 142.288,146.616 134.163,148.534 130.800 C 149.350 129.370,150.756 127.030,151.659 125.600 C 152.561 124.170,153.655 122.370,154.090 121.600 C 154.525 120.830,155.783 118.720,156.887 116.911 C 159.367 112.847,159.290 112.571,155.589 112.306 C 151.815 112.036,152.013 112.722,152.006 99.900 L 152.000 88.800 175.164 88.800 L 198.328 88.800 198.622 92.300 M175.500 234.276 C 175.115 234.376,174.721 234.850,174.625 235.329 C 174.300 236.934,174.015 261.787,174.309 262.800 C 174.469 263.350,174.690 257.380,174.800 249.533 C 174.910 241.686,175.149 235.116,175.331 234.933 C 175.514 234.750,177.314 234.497,179.331 234.370 L 183.000 234.140 179.600 234.117 C 177.730 234.104,175.885 234.175,175.500 234.276 M184.500 234.252 C 184.885 234.366,185.228 234.490,185.263 234.529 C 185.297 234.568,185.441 245.490,185.582 258.800 L 185.838 283.000 185.869 261.400 C 185.905 236.758,185.788 234.247,184.600 234.127 C 183.977 234.064,183.955 234.092,184.500 234.252 M198.400 234.356 C 197.475 234.612,197.398 234.820,197.369 237.118 L 197.338 239.604 197.488 237.202 C 197.669 234.311,196.631 234.742,204.200 234.418 L 210.600 234.144 205.000 234.112 C 201.920 234.094,198.950 234.204,198.400 234.356 M212.707 234.290 C 213.426 234.379,214.506 234.377,215.107 234.286 C 215.708 234.195,215.120 234.122,213.800 234.124 C 212.480 234.126,211.988 234.201,212.707 234.290 M252.100 234.412 L 251.200 234.774 251.200 261.373 C 251.200 287.261,251.221 287.983,251.974 288.386 C 252.733 288.792,275.947 289.014,275.544 288.610 C 275.440 288.506,270.319 288.406,264.164 288.388 C 258.010 288.370,252.710 288.192,252.387 287.992 C 251.724 287.583,251.476 235.592,252.134 234.934 C 252.317 234.750,257.756 234.600,264.220 234.600 C 270.683 234.600,275.663 234.478,275.286 234.328 C 274.254 233.919,253.137 233.996,252.100 234.412 M108.608 239.700 C 108.066 250.194,108.525 287.982,109.200 288.409 C 109.530 288.617,111.611 288.791,113.824 288.794 C 118.463 288.801,119.366 288.421,119.094 286.580 L 118.920 285.400 118.860 286.682 C 118.786 288.253,117.865 288.503,112.804 288.322 L 109.409 288.200 109.077 286.000 C 108.440 281.779,108.917 235.223,109.602 234.791 C 110.119 234.464,110.110 234.411,109.541 234.406 C 108.975 234.401,108.843 235.152,108.608 239.700 M216.900 234.676 C 217.285 234.776,217.915 234.776,218.300 234.676 C 218.685 234.575,218.370 234.493,217.600 234.493 C 216.830 234.493,216.515 234.575,216.900 234.676 M112.400 237.400 C 113.146 238.170,113.829 238.800,113.918 238.800 C 114.254 238.800,111.782 236.056,111.422 236.029 C 111.213 236.013,111.654 236.630,112.400 237.400 M155.749 240.684 C 154.677 241.940,154.009 242.839,154.264 242.683 C 154.823 242.339,158.154 238.400,157.886 238.400 C 157.782 238.400,156.820 239.428,155.749 240.684 M230.400 238.959 C 230.400 239.061,230.985 239.556,231.700 240.057 C 232.622 240.704,232.835 240.764,232.433 240.263 C 231.860 239.550,230.400 238.613,230.400 238.959 M233.200 240.930 C 233.200 241.318,234.835 242.899,235.032 242.702 C 235.123 242.611,234.748 242.114,234.198 241.599 C 233.649 241.083,233.200 240.782,233.200 240.930 M117.200 242.600 C 117.946 243.370,118.647 244.000,118.757 244.000 C 118.867 244.000,118.346 243.370,117.600 242.600 C 116.854 241.830,116.153 241.200,116.043 241.200 C 115.933 241.200,116.454 241.830,117.200 242.600 M151.785 245.300 L 149.800 247.400 151.900 245.415 C 153.055 244.323,154.000 243.378,154.000 243.315 C 154.000 243.017,153.629 243.349,151.785 245.300 M236.000 244.200 C 236.517 244.750,237.006 245.200,237.088 245.200 C 237.421 245.200,235.772 243.224,235.430 243.213 C 235.227 243.206,235.483 243.650,236.000 244.200 M208.561 244.700 C 208.125 245.637,207.845 277.605,208.268 278.028 C 208.451 278.210,208.600 270.892,208.600 261.765 C 208.600 242.419,208.014 244.288,214.000 244.546 C 217.214 244.685,217.637 244.652,215.800 244.407 C 211.391 243.819,208.923 243.918,208.561 244.700 M264.002 244.341 C 263.453 244.503,262.977 244.946,262.943 245.325 C 262.907 245.732,262.955 245.786,263.061 245.457 C 263.388 244.435,270.337 243.979,273.176 244.793 C 274.261 245.104,274.444 245.084,274.054 244.693 C 273.496 244.134,265.637 243.858,264.002 244.341 M120.600 246.400 C 121.683 247.500,122.660 248.400,122.770 248.400 C 122.880 248.400,122.083 247.500,121.000 246.400 C 119.917 245.300,118.940 244.400,118.830 244.400 C 118.720 244.400,119.517 245.300,120.600 246.400 M196.984 264.200 C 196.984 274.320,197.036 278.403,197.100 273.273 C 197.163 268.142,197.163 259.862,197.100 254.873 C 197.036 249.883,196.984 254.080,196.984 264.200 M262.534 250.000 C 262.534 251.650,262.605 252.325,262.691 251.500 C 262.778 250.675,262.778 249.325,262.691 248.500 C 262.605 247.675,262.534 248.350,262.534 250.000 M148.378 249.100 L 147.000 250.600 148.500 249.222 C 149.896 247.938,150.184 247.600,149.878 247.600 C 149.812 247.600,149.137 248.275,148.378 249.100 M124.800 251.000 C 125.772 251.990,126.642 252.800,126.735 252.800 C 127.073 252.800,123.789 249.274,123.417 249.238 C 123.206 249.217,123.828 250.010,124.800 251.000 M145.178 252.700 L 143.800 254.200 145.300 252.822 C 146.696 251.538,146.984 251.200,146.678 251.200 C 146.612 251.200,145.937 251.875,145.178 252.700 M129.956 256.706 C 131.573 258.524,133.099 260.134,133.348 260.284 C 133.961 260.653,129.130 255.205,127.953 254.200 C 127.438 253.760,128.339 254.888,129.956 256.706 M271.300 254.276 C 271.685 254.376,272.315 254.376,272.700 254.276 C 273.085 254.175,272.770 254.093,272.000 254.093 C 271.230 254.093,270.915 254.175,271.300 254.276 M142.181 256.100 L 140.600 257.800 142.300 256.219 C 143.881 254.748,144.184 254.400,143.881 254.400 C 143.816 254.400,143.051 255.165,142.181 256.100 M241.287 255.000 C 241.291 255.440,241.432 256.340,241.600 257.000 C 241.874 258.078,241.906 258.098,241.913 257.200 C 241.917 256.650,241.776 255.750,241.600 255.200 C 241.349 254.416,241.281 254.373,241.287 255.000 M265.491 254.689 C 266.201 254.777,267.461 254.779,268.291 254.692 C 269.121 254.605,268.540 254.533,267.000 254.531 C 265.460 254.529,264.781 254.600,265.491 254.689 M284.200 256.268 C 283.320 257.057,282.960 257.516,283.400 257.288 C 284.141 256.904,286.351 254.779,285.970 254.817 C 285.876 254.826,285.080 255.479,284.200 256.268 M230.192 261.618 C 230.196 264.330,230.314 266.021,230.453 265.375 C 230.789 263.811,230.789 258.844,230.452 257.643 C 230.305 257.117,230.188 258.905,230.192 261.618 M163.134 272.346 C 162.832 289.265,163.117 288.111,159.191 288.333 C 154.186 288.615,152.812 288.220,152.736 286.475 L 152.672 285.000 152.505 286.382 C 152.254 288.453,153.019 288.800,157.832 288.800 C 164.174 288.800,163.640 290.342,163.509 272.400 L 163.400 257.400 163.134 272.346 M138.386 260.300 L 136.200 262.600 138.500 260.414 C 140.637 258.382,140.983 258.000,140.686 258.000 C 140.624 258.000,139.589 259.035,138.386 260.300 M242.134 261.200 C 242.134 262.850,242.205 263.525,242.291 262.700 C 242.378 261.875,242.378 260.525,242.291 259.700 C 242.205 258.875,242.134 259.550,242.134 261.200 M284.833 260.132 C 284.925 260.204,285.891 261.059,286.980 262.032 C 288.696 263.564,288.844 263.633,288.090 262.553 C 287.273 261.381,285.573 260.000,284.947 260.000 C 284.793 260.000,284.742 260.059,284.833 260.132 M150.770 261.900 L 149.800 263.000 150.826 262.100 C 151.390 261.605,151.962 261.200,152.097 261.200 C 152.231 261.200,152.240 266.285,152.117 272.500 C 151.993 278.715,151.981 283.710,152.090 283.600 C 152.200 283.490,152.404 278.315,152.545 272.100 C 152.823 259.859,152.781 259.618,150.770 261.900 M273.600 264.617 C 274.810 264.919,275.980 265.155,276.200 265.141 C 277.004 265.091,273.370 264.062,272.400 264.065 C 271.850 264.067,272.390 264.315,273.600 264.617 M241.649 265.800 C 241.616 266.240,241.496 267.050,241.383 267.600 L 241.177 268.600 241.606 267.619 C 241.842 267.079,241.961 266.269,241.872 265.819 C 241.713 265.021,241.707 265.021,241.649 265.800 M174.575 277.200 C 174.575 283.030,174.631 285.415,174.699 282.500 C 174.767 279.585,174.767 274.815,174.699 271.900 C 174.631 268.985,174.575 271.370,174.575 277.200 M262.554 272.000 C 262.554 274.750,262.618 275.875,262.696 274.500 C 262.774 273.125,262.774 270.875,262.696 269.500 C 262.618 268.125,262.554 269.250,262.554 272.000 M279.267 268.420 C 279.501 269.092,279.767 269.567,279.857 269.476 C 280.056 269.278,279.301 267.200,279.031 267.200 C 278.927 267.200,279.033 267.749,279.267 268.420 M144.378 269.500 L 143.000 271.000 144.500 269.622 C 145.896 268.338,146.184 268.000,145.878 268.000 C 145.812 268.000,145.137 268.675,144.378 269.500 M127.200 269.800 C 127.946 270.570,128.647 271.200,128.757 271.200 C 128.867 271.200,128.346 270.570,127.600 269.800 C 126.854 269.030,126.153 268.400,126.043 268.400 C 125.933 268.400,126.454 269.030,127.200 269.800 M141.178 273.100 L 139.800 274.600 141.300 273.222 C 142.696 271.938,142.984 271.600,142.678 271.600 C 142.612 271.600,141.937 272.275,141.178 273.100 M238.881 274.609 C 238.402 275.594,238.094 276.400,238.197 276.400 C 238.468 276.400,240.084 273.151,239.903 272.970 C 239.819 272.886,239.359 273.624,238.881 274.609 M279.267 274.380 C 279.033 275.051,278.927 275.600,279.031 275.600 C 279.301 275.600,280.056 273.522,279.857 273.324 C 279.767 273.233,279.501 273.708,279.267 274.380 M133.023 276.457 C 135.182 279.129,135.780 279.222,137.717 277.185 C 138.972 275.866,139.039 275.745,137.981 276.708 C 136.155 278.370,135.390 278.335,133.440 276.500 L 131.846 275.000 133.023 276.457 M223.600 276.000 C 223.050 276.430,222.797 276.786,223.038 276.791 C 223.279 276.796,223.802 276.440,224.200 276.000 C 225.112 274.992,224.888 274.992,223.600 276.000 M236.799 278.100 C 236.210 278.904,236.113 279.184,236.545 278.833 C 237.201 278.300,238.193 276.800,237.889 276.800 C 237.813 276.800,237.322 277.385,236.799 278.100 M277.101 277.433 C 276.972 277.561,275.997 277.905,274.934 278.197 C 273.870 278.489,273.270 278.744,273.600 278.762 C 274.544 278.815,277.146 278.011,277.409 277.585 C 277.670 277.162,277.470 277.063,277.101 277.433 M217.200 278.400 C 216.396 278.657,216.357 278.723,217.000 278.732 C 217.440 278.738,218.160 278.589,218.600 278.400 C 219.619 277.962,218.568 277.962,217.200 278.400 M211.105 279.083 C 211.602 279.179,212.322 279.175,212.705 279.075 C 213.087 278.975,212.680 278.896,211.800 278.901 C 210.920 278.905,210.607 278.987,211.105 279.083 M266.300 279.093 C 267.235 279.177,268.765 279.177,269.700 279.093 C 270.635 279.009,269.870 278.940,268.000 278.940 C 266.130 278.940,265.365 279.009,266.300 279.093 M289.229 280.331 C 288.509 282.069,284.912 285.483,282.530 286.689 C 279.783 288.080,280.080 288.364,282.891 287.034 C 285.902 285.610,290.794 280.261,289.902 279.369 C 289.795 279.262,289.492 279.695,289.229 280.331 M234.575 280.900 L 233.400 282.200 234.700 281.025 C 235.415 280.379,236.000 279.794,236.000 279.725 C 236.000 279.416,235.670 279.688,234.575 280.900 M185.274 285.692 C 185.183 288.508,184.996 288.585,178.874 288.312 C 176.529 288.208,174.968 288.263,175.405 288.433 C 175.842 288.604,178.113 288.756,180.451 288.772 C 185.469 288.805,185.712 288.649,185.496 285.532 L 185.348 283.400 185.274 285.692 M197.206 287.486 C 197.203 287.753,197.548 288.158,197.974 288.386 C 200.268 289.614,225.136 288.602,223.866 287.332 C 223.768 287.235,222.806 287.444,221.727 287.796 C 218.946 288.706,198.183 288.537,197.591 287.600 C 197.354 287.225,197.210 287.182,197.206 287.486 M277.300 288.276 C 277.685 288.376,278.315 288.376,278.700 288.276 C 279.085 288.175,278.770 288.093,278.000 288.093 C 277.230 288.093,276.915 288.175,277.300 288.276 " stroke="none" fill="#fbcb34" fill-rule="evenodd"></path><path id="path1" d="M180.000 234.274 C 175.914 234.449,175.330 234.627,175.038 235.790 C 174.715 237.076,174.697 287.630,175.019 287.953 C 175.450 288.383,184.171 288.453,184.800 288.032 C 185.388 287.637,185.780 235.246,185.199 234.666 C 184.818 234.284,182.989 234.147,180.000 234.274 M204.333 234.369 C 200.886 234.496,197.916 234.750,197.733 234.933 C 197.241 235.425,197.086 286.862,197.574 287.600 C 198.312 288.718,218.887 288.686,222.547 287.561 C 234.468 283.897,241.087 275.538,241.884 263.141 C 242.880 247.637,232.252 235.760,216.369 234.627 C 214.296 234.479,212.150 234.309,211.600 234.248 C 211.050 234.188,207.780 234.242,204.333 234.369 M160.140 236.287 C 159.051 237.339,157.089 239.474,155.780 241.031 C 151.250 246.419,137.636 261.530,136.754 262.147 C 135.594 262.960,135.507 262.896,131.142 258.018 C 127.189 253.600,120.572 246.301,114.842 240.037 C 112.949 237.968,111.109 235.943,110.753 235.537 C 109.540 234.155,109.326 234.752,109.062 240.263 C 108.723 247.340,108.777 284.053,109.130 286.400 L 109.401 288.200 113.868 288.200 C 116.325 288.200,118.485 288.050,118.668 287.867 C 118.850 287.684,119.057 281.564,119.127 274.267 C 119.196 266.970,119.397 260.853,119.573 260.674 C 119.749 260.494,120.719 261.484,121.729 262.874 C 122.738 264.263,124.158 266.053,124.882 266.852 C 125.607 267.651,127.270 269.541,128.578 271.052 C 132.892 276.037,134.941 278.000,135.833 278.000 C 136.870 278.000,140.576 274.024,149.936 262.869 C 152.774 259.486,152.695 259.157,152.645 274.165 C 152.620 281.516,152.750 287.681,152.933 287.865 C 153.498 288.434,161.885 288.273,162.478 287.681 C 163.173 286.987,163.254 234.753,162.560 234.521 C 162.318 234.440,161.229 235.234,160.140 236.287 M252.713 234.658 C 251.594 234.977,251.546 236.268,251.676 262.515 C 251.784 284.307,251.879 287.681,252.400 288.018 C 252.766 288.255,258.218 288.365,266.400 288.300 L 279.800 288.194 282.200 286.900 C 293.220 280.956,294.413 266.418,284.400 260.076 C 283.190 259.310,282.130 258.624,282.044 258.552 C 281.958 258.480,282.963 257.381,284.277 256.110 C 290.996 249.613,288.241 239.259,278.800 235.528 C 276.672 234.687,255.128 233.968,252.713 234.658 M219.198 244.888 C 231.073 247.851,234.966 265.733,225.680 274.659 C 222.031 278.166,211.210 280.557,208.633 278.425 C 207.868 277.793,207.820 246.303,208.581 244.645 C 208.970 243.799,215.428 243.947,219.198 244.888 M274.140 244.773 C 277.841 246.459,277.951 251.996,274.318 253.716 C 272.491 254.581,265.582 255.055,264.051 254.421 C 261.745 253.466,261.705 244.997,264.004 244.357 C 266.276 243.725,272.390 243.975,274.140 244.773 M276.573 265.200 C 281.664 267.781,281.127 276.479,275.761 278.342 C 273.607 279.090,263.843 279.197,263.123 278.480 C 262.529 277.889,262.363 267.052,262.917 265.063 L 263.234 263.926 268.917 264.063 C 274.032 264.186,274.797 264.300,276.573 265.200 " stroke="none" fill="#f4f3f2" fill-rule="evenodd"></path><path id="path2" d="M152.006 99.900 C 152.013 112.722,151.815 112.036,155.589 112.306 C 159.290 112.571,159.367 112.847,156.887 116.911 C 155.783 118.720,154.525 120.830,154.090 121.600 C 153.655 122.370,152.561 124.170,151.659 125.600 C 150.756 127.030,149.350 129.370,148.534 130.800 C 146.616 134.163,141.748 142.288,138.530 147.496 C 137.139 149.748,136.000 151.688,136.000 151.805 C 136.000 152.054,132.832 157.213,132.326 157.788 C 132.138 158.001,130.012 158.276,127.600 158.400 C 124.868 158.540,123.024 158.816,122.708 159.132 C 122.010 159.830,121.703 180.697,122.372 181.948 L 122.828 182.800 145.827 182.800 C 167.354 182.800,168.843 182.755,169.113 182.100 C 169.481 181.203,169.491 159.359,169.124 158.991 C 168.972 158.839,167.307 158.618,165.424 158.501 C 160.879 158.217,160.491 159.567,169.359 144.800 C 175.473 134.617,175.433 134.650,177.346 138.209 C 177.817 139.084,178.619 140.472,179.129 141.293 C 180.225 143.056,180.018 143.600,178.253 143.600 C 175.424 143.600,175.467 143.414,175.432 155.844 C 175.414 161.980,175.546 167.225,175.724 167.500 C 176.126 168.121,225.822 168.227,226.800 167.608 C 227.310 167.286,227.400 165.524,227.400 155.800 C 227.400 143.214,227.483 143.618,224.887 143.606 C 222.714 143.596,223.009 142.307,226.424 136.900 C 227.674 134.921,228.321 135.746,236.923 150.296 C 241.821 158.582,241.769 158.145,237.900 158.420 C 236.195 158.541,234.575 158.865,234.300 159.139 C 233.771 159.667,233.310 179.989,233.784 181.877 L 234.017 182.806 257.308 182.703 L 280.600 182.600 280.706 170.892 L 280.812 159.185 279.780 158.792 C 279.212 158.577,277.048 158.400,274.970 158.400 L 271.192 158.400 270.178 156.900 C 269.091 155.293,263.352 145.775,261.678 142.803 C 261.122 141.815,260.097 140.105,259.401 139.003 C 258.705 137.901,258.018 136.730,257.874 136.400 C 257.731 136.070,256.055 133.280,254.151 130.200 C 252.247 127.120,250.239 123.790,249.688 122.800 C 249.137 121.810,248.381 120.550,248.008 120.000 C 247.635 119.450,246.568 117.604,245.636 115.899 C 243.743 112.432,243.674 112.568,247.473 112.273 C 248.833 112.167,250.138 111.962,250.373 111.817 C 250.660 111.640,250.800 107.811,250.800 100.176 L 250.800 88.800 227.808 88.800 L 204.815 88.800 204.544 89.879 C 204.395 90.473,204.257 95.527,204.237 101.110 C 204.194 112.817,204.055 112.395,207.976 112.406 C 212.015 112.417,211.715 113.641,205.332 123.200 C 201.948 128.268,201.726 128.534,201.093 128.291 C 200.346 128.004,191.924 113.575,192.154 112.977 C 192.261 112.697,193.434 112.427,194.968 112.330 C 196.414 112.238,197.788 111.972,198.020 111.740 C 198.569 111.191,199.010 96.931,198.622 92.300 L 198.328 88.800 175.164 88.800 L 152.000 88.800 152.006 99.900 M0.000 300.000 L 0.000 400.000 200.000 400.000 L 400.000 400.000 400.000 300.000 L 400.000 200.000 200.000 200.000 L 0.000 200.000 0.000 300.000 M163.245 247.433 C 163.379 254.675,163.514 266.665,163.545 274.077 L 163.600 287.555 162.711 288.177 C 161.502 289.024,154.116 289.066,152.976 288.232 C 152.235 287.689,152.200 287.071,152.204 274.432 C 152.207 267.154,152.081 261.200,151.924 261.200 C 151.768 261.200,150.334 262.775,148.737 264.700 C 143.851 270.593,136.338 278.800,135.831 278.800 C 135.299 278.800,134.404 278.010,132.600 275.949 C 128.714 271.509,125.706 268.102,125.054 267.402 C 124.643 266.961,123.318 265.297,122.109 263.704 C 120.899 262.112,119.750 260.907,119.555 261.028 C 119.360 261.149,119.200 267.260,119.200 274.610 C 119.200 287.411,119.168 287.989,118.426 288.386 C 117.459 288.904,110.013 288.922,109.200 288.409 C 108.525 287.982,108.066 250.194,108.608 239.700 C 108.955 232.995,108.959 232.994,113.579 238.235 C 114.338 239.096,116.852 241.870,119.166 244.400 C 121.480 246.930,124.099 249.801,124.986 250.780 C 125.874 251.759,127.683 253.739,129.006 255.180 C 130.329 256.621,132.192 258.733,133.145 259.872 C 135.209 262.339,135.852 262.652,136.920 261.710 C 137.835 260.902,152.604 244.439,154.925 241.640 C 157.515 238.516,162.137 233.979,162.579 234.126 C 162.855 234.217,163.084 238.792,163.245 247.433 M185.718 237.800 C 186.307 244.479,185.887 287.373,185.225 288.171 C 184.440 289.116,175.402 288.968,174.791 288.000 C 174.201 287.065,174.070 237.239,174.652 235.126 C 174.912 234.181,175.585 234.073,180.800 234.140 L 185.400 234.200 185.718 237.800 M218.800 234.608 C 247.012 239.096,251.248 276.226,224.800 287.190 L 221.400 288.600 209.999 288.717 C 200.514 288.814,198.465 288.736,197.802 288.251 C 196.888 287.583,196.439 258.992,197.085 242.617 L 197.400 234.634 198.400 234.357 C 200.391 233.805,214.872 233.983,218.800 234.608 M276.876 234.794 C 284.253 236.838,288.004 241.428,287.996 248.400 C 287.991 252.303,284.982 257.600,282.769 257.600 C 281.589 257.600,282.710 258.957,284.648 259.875 C 294.191 264.393,293.112 282.199,283.006 286.980 C 279.489 288.644,254.566 289.773,251.974 288.386 C 251.221 287.983,251.200 287.261,251.200 261.373 L 251.200 234.774 252.100 234.412 C 254.059 233.625,273.753 233.929,276.876 234.794 M209.258 244.756 C 208.604 245.170,208.098 267.441,208.582 274.500 L 208.877 278.800 212.338 278.786 C 224.357 278.736,230.101 273.125,230.135 261.399 C 230.159 253.533,227.787 249.166,221.841 246.128 C 219.273 244.816,210.647 243.875,209.258 244.756 M264.341 244.662 C 262.647 244.955,261.961 252.304,263.485 253.828 C 265.387 255.730,274.945 254.028,276.220 251.560 C 278.827 246.520,273.033 243.155,264.341 244.662 M263.423 264.889 C 262.623 266.030,262.501 277.541,263.280 278.320 C 264.344 279.384,273.492 278.856,276.892 277.534 C 280.376 276.180,280.830 268.084,277.544 265.931 C 274.623 264.017,264.554 263.274,263.423 264.889 " stroke="none" fill="#7c041c" fill-rule="evenodd"></path></g></svg>