<svg id="svg" version="1.1" xmlns="http://www.w3.org/2000/svg" xmlns:xlink="http://www.w3.org/1999/xlink" width="400" height="400" viewBox="0, 0, 400,400"><g id="svgg"><path id="path0" d="M101.462 105.531 C 100.352 106.759,100.459 152.989,101.574 153.586 C 102.002 153.815,104.904 154.003,108.074 154.006 C 115.807 154.014,115.787 153.978,111.601 160.400 C 110.119 162.673,108.845 164.796,107.718 166.873 C 107.232 167.767,106.575 168.791,106.257 169.149 C 105.940 169.507,105.391 170.430,105.039 171.200 C 104.686 171.970,103.859 173.410,103.200 174.400 C 102.541 175.390,101.744 176.740,101.429 177.400 C 101.114 178.060,100.393 179.220,99.828 179.978 C 99.263 180.735,98.800 181.568,98.800 181.829 C 98.800 182.089,98.539 182.519,98.220 182.784 C 97.901 183.048,97.055 184.285,96.339 185.533 C 95.624 186.780,94.760 188.280,94.420 188.867 C 94.079 189.455,93.466 190.535,93.058 191.267 C 92.649 192.000,91.551 193.770,90.617 195.200 C 88.139 198.994,87.304 200.403,86.439 202.256 C 86.014 203.167,85.469 204.034,85.227 204.183 C 84.986 204.333,84.517 205.027,84.186 205.727 C 83.855 206.427,82.963 207.990,82.203 209.200 C 81.443 210.410,80.463 212.165,80.025 213.100 C 79.587 214.035,79.075 214.800,78.888 214.800 C 78.701 214.800,78.244 215.385,77.872 216.100 C 77.500 216.815,76.655 218.300,75.994 219.400 C 75.333 220.500,74.479 222.030,74.096 222.801 C 73.713 223.571,73.078 224.651,72.685 225.201 C 71.135 227.367,69.614 229.818,69.607 230.162 C 69.603 230.361,69.150 231.114,68.600 231.836 C 68.050 232.557,67.600 233.325,67.600 233.543 C 67.600 233.760,67.171 234.449,66.646 235.073 C 66.121 235.696,65.391 236.835,65.024 237.603 C 63.986 239.776,62.931 241.592,62.277 242.328 C 61.948 242.697,61.412 243.648,61.085 244.441 C 60.306 246.328,59.875 246.400,49.430 246.400 C 43.376 246.400,40.823 246.537,40.480 246.880 C 39.847 247.513,39.783 293.248,40.414 294.426 C 40.895 295.326,132.761 295.677,134.426 294.786 C 135.383 294.274,135.667 247.827,134.720 246.880 C 134.385 246.545,132.230 246.400,127.596 246.400 C 119.752 246.400,119.214 246.220,120.176 243.919 C 120.512 243.114,120.973 242.340,121.200 242.200 C 121.427 242.060,121.883 241.373,122.214 240.673 C 122.545 239.973,123.433 238.410,124.188 237.200 C 124.942 235.990,125.931 234.370,126.384 233.600 C 126.837 232.830,128.008 230.940,128.987 229.400 C 129.965 227.860,130.774 226.446,130.783 226.258 C 130.792 226.070,131.250 225.381,131.800 224.727 C 132.350 224.073,132.800 223.307,132.800 223.023 C 132.800 222.740,133.199 222.001,133.687 221.381 C 134.620 220.194,135.560 218.617,136.555 216.568 C 136.885 215.891,137.415 215.120,137.734 214.855 C 138.053 214.590,138.546 213.794,138.830 213.087 C 139.114 212.379,139.763 211.291,140.273 210.669 C 140.783 210.047,141.200 209.365,141.200 209.153 C 141.200 208.941,141.527 208.280,141.926 207.684 C 142.325 207.088,143.225 205.740,143.926 204.688 C 144.627 203.637,145.200 202.546,145.200 202.265 C 145.200 200.046,148.105 200.090,149.236 202.326 C 149.535 202.917,150.189 203.909,150.690 204.531 C 151.190 205.153,151.600 205.893,151.600 206.177 C 151.600 206.460,151.991 207.189,152.469 207.797 C 153.281 208.829,154.011 210.082,155.502 213.000 C 155.839 213.660,156.466 214.590,156.895 215.066 C 158.064 216.363,156.894 216.800,152.255 216.800 C 149.336 216.800,148.312 216.945,147.829 217.429 C 147.061 218.196,146.856 263.411,147.614 264.826 C 148.084 265.704,249.091 266.078,251.374 265.210 L 252.400 264.820 252.400 241.234 C 252.400 222.797,252.291 217.579,251.900 217.337 C 251.625 217.166,249.422 216.930,247.004 216.813 C 242.308 216.585,241.467 216.102,242.932 214.470 C 243.621 213.703,245.215 210.946,246.330 208.594 C 246.748 207.711,247.385 206.744,247.745 206.445 C 248.105 206.147,248.405 205.699,248.411 205.451 C 248.417 205.203,248.957 204.293,249.611 203.429 C 250.265 202.565,250.800 201.642,250.800 201.378 C 250.800 199.317,253.337 200.426,254.825 203.138 C 255.266 203.942,256.116 205.363,256.714 206.295 C 259.113 210.039,261.200 213.595,261.200 213.939 C 261.200 214.139,261.499 214.549,261.865 214.851 C 262.231 215.153,262.866 216.158,263.276 217.083 C 263.687 218.009,264.200 218.877,264.417 219.011 C 264.635 219.145,265.080 219.827,265.407 220.527 C 265.735 221.227,266.542 222.610,267.202 223.600 C 267.861 224.590,268.766 226.158,269.212 227.083 C 269.658 228.009,270.201 228.877,270.419 229.012 C 270.637 229.146,271.268 230.099,271.822 231.128 C 272.376 232.158,273.263 233.720,273.794 234.600 C 274.326 235.480,275.077 236.830,275.464 237.600 C 275.852 238.370,276.407 239.291,276.699 239.647 C 281.439 245.436,280.979 246.152,272.357 246.400 C 268.531 246.510,265.175 246.746,264.900 246.924 C 264.509 247.176,264.400 252.357,264.400 270.601 L 264.400 293.955 265.289 294.577 C 266.231 295.237,356.060 295.493,358.400 294.842 L 359.400 294.564 359.503 270.682 C 359.560 257.547,359.560 246.763,359.503 246.718 C 359.446 246.673,354.998 246.538,349.619 246.418 L 339.837 246.200 338.711 244.600 C 338.091 243.720,337.183 242.295,336.692 241.433 C 334.446 237.488,332.254 233.831,330.799 231.600 C 330.154 230.610,329.164 228.990,328.600 228.000 C 328.036 227.010,327.042 225.390,326.391 224.400 C 325.741 223.410,324.871 221.877,324.459 220.994 C 324.047 220.111,323.415 219.144,323.055 218.845 C 322.695 218.547,322.400 218.139,322.400 217.939 C 322.400 217.602,320.495 214.349,317.925 210.295 C 317.334 209.363,316.017 207.160,314.999 205.400 C 313.981 203.640,312.539 201.210,311.794 200.000 C 311.050 198.790,310.062 197.170,309.600 196.400 C 309.138 195.630,308.142 194.010,307.386 192.800 C 306.630 191.590,305.640 189.880,305.185 189.000 C 304.730 188.120,303.833 186.590,303.192 185.600 C 302.551 184.610,301.652 183.170,301.193 182.400 C 300.735 181.630,299.748 180.010,299.000 178.800 C 298.252 177.590,297.226 175.895,296.720 175.033 C 296.214 174.172,295.350 172.700,294.800 171.763 C 294.250 170.826,293.410 169.362,292.933 168.510 C 292.456 167.658,291.286 165.762,290.333 164.298 C 287.562 160.041,286.448 158.194,286.154 157.370 C 286.002 156.947,285.614 156.292,285.291 155.915 C 283.883 154.274,284.774 154.000,291.525 154.000 C 297.170 154.000,297.950 153.919,298.538 153.269 C 299.517 152.187,299.554 107.084,298.577 105.689 L 297.955 104.800 252.757 104.800 C 213.026 104.800,207.418 104.874,206.380 105.410 L 205.200 106.021 205.200 129.361 C 205.200 156.997,204.202 153.752,212.755 153.930 C 220.135 154.083,220.355 154.185,218.797 156.726 C 218.165 157.757,216.819 160.040,215.805 161.800 C 214.791 163.560,213.433 165.810,212.788 166.800 C 212.142 167.790,211.300 169.230,210.916 170.000 C 210.532 170.770,209.809 171.909,209.309 172.531 C 208.809 173.153,208.400 173.858,208.400 174.099 C 208.400 174.340,208.145 174.821,207.833 175.169 C 207.193 175.882,205.619 178.589,204.416 181.047 C 203.972 181.953,203.357 182.904,203.048 183.160 C 202.739 183.417,202.261 184.169,201.987 184.832 C 201.007 187.197,198.000 187.671,198.000 185.461 C 198.000 185.249,197.584 184.519,197.075 183.838 C 196.566 183.157,195.455 181.340,194.605 179.800 C 193.756 178.260,192.758 176.550,192.388 176.000 C 190.539 173.254,189.225 171.140,187.414 168.000 C 186.843 167.010,185.750 165.210,184.986 164.000 C 184.221 162.790,183.323 161.260,182.991 160.600 C 182.659 159.940,181.761 158.347,180.995 157.060 C 179.155 153.968,179.100 154.000,186.250 154.000 C 189.761 154.000,192.788 153.820,193.226 153.586 C 194.439 152.937,194.439 105.863,193.226 105.214 C 191.631 104.360,102.242 104.670,101.462 105.531 " stroke="none" fill="#7d151c" fill-rule="evenodd"></path><path id="path1" d="M0.000 200.000 L 0.000 400.000 200.000 400.000 L 400.000 400.000 400.000 200.000 L 400.000 0.000 200.000 0.000 L 0.000 0.000 0.000 200.000 M193.226 105.214 C 194.439 105.863,194.439 152.937,193.226 153.586 C 192.788 153.820,189.761 154.000,186.250 154.000 C 179.100 154.000,179.155 153.968,180.995 157.060 C 181.761 158.347,182.659 159.940,182.991 160.600 C 183.323 161.260,184.221 162.790,184.986 164.000 C 185.750 165.210,186.843 167.010,187.414 168.000 C 189.225 171.140,190.539 173.254,192.388 176.000 C 192.758 176.550,193.756 178.260,194.605 179.800 C 195.455 181.340,196.566 183.157,197.075 183.838 C 197.584 184.519,198.000 185.249,198.000 185.461 C 198.000 187.671,201.007 187.197,201.987 184.832 C 202.261 184.169,202.739 183.417,203.048 183.160 C 203.357 182.904,203.972 181.953,204.416 181.047 C 205.619 178.589,207.193 175.882,207.833 175.169 C 208.145 174.821,208.400 174.340,208.400 174.099 C 208.400 173.858,208.809 173.153,209.309 172.531 C 209.809 171.909,210.532 170.770,210.916 170.000 C 211.300 169.230,212.142 167.790,212.788 166.800 C 213.433 165.810,214.791 163.560,215.805 161.800 C 216.819 160.040,218.165 157.757,218.797 156.726 C 220.355 154.185,220.135 154.083,212.755 153.930 C 204.202 153.752,205.200 156.997,205.200 129.361 L 205.200 106.021 206.380 105.410 C 207.418 104.874,213.026 104.800,252.757 104.800 L 297.955 104.800 298.577 105.689 C 299.554 107.084,299.517 152.187,298.538 153.269 C 297.950 153.919,297.170 154.000,291.525 154.000 C 284.774 154.000,283.883 154.274,285.291 155.915 C 285.614 156.292,286.002 156.947,286.154 157.370 C 286.448 158.194,287.562 160.041,290.333 164.298 C 291.286 165.762,292.456 167.658,292.933 168.510 C 293.410 169.362,294.250 170.826,294.800 171.763 C 295.350 172.700,296.214 174.172,296.720 175.033 C 297.226 175.895,298.252 177.590,299.000 178.800 C 299.748 180.010,300.735 181.630,301.193 182.400 C 301.652 183.170,302.551 184.610,303.192 185.600 C 303.833 186.590,304.730 188.120,305.185 189.000 C 305.640 189.880,306.630 191.590,307.386 192.800 C 308.142 194.010,309.138 195.630,309.600 196.400 C 310.062 197.170,311.050 198.790,311.794 200.000 C 312.539 201.210,313.981 203.640,314.999 205.400 C 316.017 207.160,317.334 209.363,317.925 210.295 C 320.495 214.349,322.400 217.602,322.400 217.939 C 322.400 218.139,322.695 218.547,323.055 218.845 C 323.415 219.144,324.047 220.111,324.459 220.994 C 324.871 221.877,325.741 223.410,326.391 224.400 C 327.042 225.390,328.036 227.010,328.600 228.000 C 329.164 228.990,330.154 230.610,330.799 231.600 C 332.254 233.831,334.446 237.488,336.692 241.433 C 337.183 242.295,338.091 243.720,338.711 244.600 L 339.837 246.200 349.619 246.418 C 354.998 246.538,359.446 246.673,359.503 246.718 C 359.560 246.763,359.560 257.547,359.503 270.682 L 359.400 294.564 358.400 294.842 C 356.060 295.493,266.231 295.237,265.289 294.577 L 264.400 293.955 264.400 270.601 C 264.400 252.357,264.509 247.176,264.900 246.924 C 265.175 246.746,268.531 246.510,272.357 246.400 C 280.979 246.152,281.439 245.436,276.699 239.647 C 276.407 239.291,275.852 238.370,275.464 237.600 C 275.077 236.830,274.326 235.480,273.794 234.600 C 273.263 233.720,272.376 232.158,271.822 231.128 C 271.268 230.099,270.637 229.146,270.419 229.012 C 270.201 228.877,269.658 228.009,269.212 227.083 C 268.766 226.158,267.861 224.590,267.202 223.600 C 266.542 222.610,265.735 221.227,265.407 220.527 C 265.080 219.827,264.635 219.145,264.417 219.011 C 264.200 218.877,263.687 218.009,263.276 217.083 C 262.866 216.158,262.231 215.153,261.865 214.851 C 261.499 214.549,261.200 214.139,261.200 213.939 C 261.200 213.595,259.113 210.039,256.714 206.295 C 256.116 205.363,255.266 203.942,254.825 203.138 C 253.337 200.426,250.800 199.317,250.800 201.378 C 250.800 201.642,250.265 202.565,249.611 203.429 C 248.957 204.293,248.417 205.203,248.411 205.451 C 248.405 205.699,248.105 206.147,247.745 206.445 C 247.385 206.744,246.748 207.711,246.330 208.594 C 245.215 210.946,243.621 213.703,242.932 214.470 C 241.467 216.102,242.308 216.585,247.004 216.813 C 249.422 216.930,251.625 217.166,251.900 217.337 C 252.291 217.579,252.400 222.797,252.400 241.234 L 252.400 264.820 251.374 265.210 C 249.091 266.078,148.084 265.704,147.614 264.826 C 146.856 263.411,147.061 218.196,147.829 217.429 C 148.312 216.945,149.336 216.800,152.255 216.800 C 156.894 216.800,158.064 216.363,156.895 215.066 C 156.466 214.590,155.839 213.660,155.502 213.000 C 154.011 210.082,153.281 208.829,152.469 207.797 C 151.991 207.189,151.600 206.460,151.600 206.177 C 151.600 205.893,151.190 205.153,150.690 204.531 C 150.189 203.909,149.535 202.917,149.236 202.326 C 148.105 200.090,145.200 200.046,145.200 202.265 C 145.200 202.546,144.627 203.637,143.926 204.688 C 143.225 205.740,142.325 207.088,141.926 207.684 C 141.527 208.280,141.200 208.941,141.200 209.153 C 141.200 209.365,140.783 210.047,140.273 210.669 C 139.763 211.291,139.114 212.379,138.830 213.087 C 138.546 213.794,138.053 214.590,137.734 214.855 C 137.415 215.120,136.885 215.891,136.555 216.568 C 135.560 218.617,134.620 220.194,133.687 221.381 C 133.199 222.001,132.800 222.740,132.800 223.023 C 132.800 223.307,132.350 224.073,131.800 224.727 C 131.250 225.381,130.792 226.070,130.783 226.258 C 130.774 226.446,129.965 227.860,128.987 229.400 C 128.008 230.940,126.837 232.830,126.384 233.600 C 125.931 234.370,124.942 235.990,124.188 237.200 C 123.433 238.410,122.545 239.973,122.214 240.673 C 121.883 241.373,121.427 242.060,121.200 242.200 C 120.973 242.340,120.512 243.114,120.176 243.919 C 119.214 246.220,119.752 246.400,127.596 246.400 C 132.230 246.400,134.385 246.545,134.720 246.880 C 135.667 247.827,135.383 294.274,134.426 294.786 C 132.761 295.677,40.895 295.326,40.414 294.426 C 39.783 293.248,39.847 247.513,40.480 246.880 C 40.823 246.537,43.376 246.400,49.430 246.400 C 59.875 246.400,60.306 246.328,61.085 244.441 C 61.412 243.648,61.948 242.697,62.277 242.328 C 62.931 241.592,63.986 239.776,65.024 237.603 C 65.391 236.835,66.121 235.696,66.646 235.073 C 67.171 234.449,67.600 233.760,67.600 233.543 C 67.600 233.325,68.050 232.557,68.600 231.836 C 69.150 231.114,69.603 230.361,69.607 230.162 C 69.614 229.818,71.135 227.367,72.685 225.201 C 73.078 224.651,73.713 223.571,74.096 222.801 C 74.479 222.030,75.333 220.500,75.994 219.400 C 76.655 218.300,77.500 216.815,77.872 216.100 C 78.244 215.385,78.701 214.800,78.888 214.800 C 79.075 214.800,79.587 214.035,80.025 213.100 C 80.463 212.165,81.443 210.410,82.203 209.200 C 82.963 207.990,83.855 206.427,84.186 205.727 C 84.517 205.027,84.986 204.333,85.227 204.183 C 85.469 204.034,86.014 203.167,86.439 202.256 C 87.304 200.403,88.139 198.994,90.617 195.200 C 91.551 193.770,92.649 192.000,93.058 191.267 C 93.466 190.535,94.079 189.455,94.420 188.867 C 94.760 188.280,95.624 186.780,96.339 185.533 C 97.055 184.285,97.901 183.048,98.220 182.784 C 98.539 182.519,98.800 182.089,98.800 181.829 C 98.800 181.568,99.263 180.735,99.828 179.978 C 100.393 179.220,101.114 178.060,101.429 177.400 C 101.744 176.740,102.541 175.390,103.200 174.400 C 103.859 173.410,104.686 171.970,105.039 171.200 C 105.391 170.430,105.940 169.507,106.257 169.149 C 106.575 168.791,107.232 167.767,107.718 166.873 C 108.845 164.796,110.119 162.673,111.601 160.400 C 115.787 153.978,115.807 154.014,108.074 154.006 C 104.904 154.003,102.002 153.815,101.574 153.586 C 100.459 152.989,100.352 106.759,101.462 105.531 C 102.242 104.670,191.631 104.360,193.226 105.214 " stroke="none" fill="#fccc34" fill-rule="evenodd"></path></g></svg>