<svg id="svg" version="1.1" xmlns="http://www.w3.org/2000/svg" xmlns:xlink="http://www.w3.org/1999/xlink" width="400" height="344" viewBox="0, 0, 400,344"><g id="svgg"><path id="path0" d="M186.747 15.721 C 180.425 16.654,179.573 16.925,179.311 18.085 C 179.184 18.646,178.508 21.274,177.808 23.924 C 177.108 26.575,176.172 30.138,175.727 31.842 C 175.282 33.546,174.602 36.102,174.214 37.522 C 173.146 41.439,172.401 39.362,180.632 55.422 C 182.912 59.871,186.460 66.842,188.516 70.912 C 190.572 74.983,192.334 78.391,192.430 78.485 C 192.527 78.580,192.909 79.236,193.280 79.942 C 193.650 80.649,194.076 81.105,194.225 80.956 C 194.374 80.807,194.456 65.977,194.408 48.002 L 194.320 15.318 192.255 15.265 C 191.119 15.236,188.640 15.441,186.747 15.721 M204.754 15.404 C 204.508 15.999,204.857 79.518,205.105 79.518 C 205.319 79.518,212.275 67.863,217.509 58.735 C 217.957 57.954,220.581 53.442,223.340 48.709 C 226.099 43.976,228.525 39.793,228.730 39.415 C 228.935 39.036,230.009 37.177,231.117 35.284 C 232.224 33.391,233.757 30.757,234.523 29.432 C 235.289 28.107,236.503 26.068,237.221 24.902 C 239.747 20.797,240.114 21.197,231.583 18.761 C 223.471 16.444,205.264 14.166,204.754 15.404 M170.912 18.808 C 169.966 19.094,168.571 19.492,167.814 19.692 C 162.699 21.041,162.798 20.537,166.301 27.405 C 169.638 33.948,170.396 34.994,170.396 33.063 C 170.396 32.693,170.533 32.035,170.701 31.600 C 171.097 30.571,171.950 27.467,173.463 21.548 C 174.390 17.923,174.268 17.792,170.912 18.808 M154.389 24.566 C 149.639 26.624,148.028 27.481,147.980 27.976 C 147.882 28.991,148.064 29.779,149.507 34.596 C 150.624 38.322,151.627 41.749,152.328 44.234 C 152.648 45.370,153.035 46.687,153.187 47.160 C 153.578 48.374,155.208 53.948,155.654 55.594 C 155.859 56.351,156.223 57.590,156.463 58.348 C 156.703 59.105,157.088 60.422,157.319 61.274 C 157.550 62.126,157.863 63.210,158.015 63.683 C 158.167 64.157,158.386 64.976,158.502 65.505 C 159.233 68.844,160.503 70.973,160.857 69.449 C 161.082 68.480,162.473 63.219,163.702 58.692 C 164.216 56.799,164.756 54.707,164.901 54.045 C 165.047 53.382,165.420 51.910,165.731 50.775 C 168.340 41.247,168.301 41.555,167.167 39.513 C 166.717 38.702,164.688 34.785,162.659 30.809 C 159.350 24.328,158.595 23.073,158.003 23.075 C 157.909 23.075,156.282 23.746,154.389 24.566 M242.208 25.633 C 241.902 26.100,241.652 26.552,241.652 26.638 C 241.652 26.724,240.723 28.368,239.587 30.293 C 238.451 32.217,237.522 33.933,237.522 34.107 C 237.522 34.281,237.378 34.423,237.203 34.423 C 237.027 34.423,236.833 34.623,236.772 34.868 C 236.711 35.112,234.105 39.686,230.981 45.032 C 224.048 56.897,224.402 56.287,223.335 58.176 C 222.400 59.831,221.506 61.375,217.556 68.158 C 216.177 70.525,214.770 72.955,214.428 73.558 C 214.086 74.161,213.411 75.281,212.927 76.046 C 212.444 76.812,212.048 77.517,212.048 77.611 C 212.048 77.706,211.506 78.631,210.843 79.667 C 210.181 80.703,209.639 81.643,209.639 81.756 C 209.639 81.868,209.127 82.767,208.503 83.751 C 207.878 84.736,206.793 86.574,206.093 87.836 L 204.819 90.129 204.819 96.679 C 204.819 104.122,204.842 104.176,207.151 102.159 C 208.077 101.350,210.449 99.342,212.421 97.695 C 221.348 90.244,235.028 78.771,239.503 74.982 L 244.411 70.828 244.228 56.843 C 243.774 22.070,243.843 23.138,242.208 25.633 M248.733 39.501 C 248.861 47.405,249.102 54.020,249.268 54.200 C 249.447 54.394,249.570 54.157,249.570 53.618 C 249.570 53.118,249.700 52.628,249.859 52.530 C 250.018 52.431,250.414 51.299,250.738 50.014 C 251.622 46.507,252.028 45.014,252.355 44.062 C 252.518 43.589,252.797 42.582,252.975 41.824 C 253.498 39.596,254.992 34.046,255.569 32.186 C 256.658 28.675,256.532 28.410,252.951 26.667 C 247.981 24.248,248.461 22.784,248.733 39.501 M260.058 31.497 C 259.969 31.781,259.800 32.285,259.681 32.616 C 259.563 32.948,259.341 33.761,259.188 34.423 C 259.035 35.086,258.753 36.170,258.561 36.833 C 258.370 37.496,257.830 39.509,257.362 41.308 C 256.894 43.107,256.100 46.050,255.597 47.849 C 255.095 49.647,254.552 51.661,254.391 52.324 C 254.036 53.788,252.399 59.952,251.923 61.618 C 251.330 63.692,251.201 64.716,251.533 64.716 C 251.811 64.716,257.709 59.862,266.867 52.096 L 269.535 49.834 269.533 45.313 C 269.531 42.826,269.430 39.733,269.308 38.439 L 269.086 36.086 266.471 34.346 C 261.531 31.060,260.357 30.539,260.058 31.497 M135.824 34.599 C 127.891 39.898,118.515 47.814,119.047 48.765 C 119.208 49.053,123.121 51.901,127.742 55.095 C 132.363 58.289,136.609 61.228,137.177 61.625 C 146.365 68.058,153.259 72.674,153.428 72.505 C 153.544 72.388,153.439 71.633,153.193 70.828 C 152.948 70.022,152.621 68.898,152.468 68.330 C 152.314 67.762,151.815 66.136,151.357 64.716 C 150.900 63.296,150.205 61.050,149.813 59.725 C 149.421 58.399,148.612 55.688,148.015 53.701 C 147.418 51.713,146.628 49.079,146.260 47.849 C 145.311 44.672,143.905 40.082,143.203 37.866 C 142.873 36.824,142.326 35.004,141.987 33.821 C 141.190 31.036,141.154 31.040,135.824 34.599 M274.355 42.485 C 274.355 45.414,274.534 45.604,276.109 44.338 C 277.755 43.015,277.775 42.668,276.271 41.521 C 274.590 40.239,274.355 40.357,274.355 42.485 M280.350 49.484 C 279.252 50.383,277.512 51.893,276.484 52.840 L 274.615 54.561 274.896 65.577 C 275.051 71.635,275.151 77.057,275.119 77.625 C 274.956 80.473,275.410 82.403,276.081 81.716 C 276.771 81.008,291.562 59.814,292.208 58.608 C 292.697 57.694,291.069 55.526,286.392 50.861 C 282.867 47.344,282.942 47.361,280.350 49.484 M171.284 49.181 C 171.081 49.510,170.142 52.832,169.715 54.733 C 169.566 55.396,169.178 56.867,168.854 58.003 C 168.529 59.139,168.136 60.611,167.980 61.274 C 167.824 61.936,167.308 63.950,166.833 65.749 C 166.358 67.547,165.408 71.177,164.722 73.815 C 164.035 76.453,163.406 78.722,163.322 78.857 C 163.051 79.296,164.315 80.448,167.298 82.479 C 172.113 85.759,174.373 87.319,181.411 92.220 C 191.289 99.098,193.921 100.829,194.222 100.643 C 194.371 100.551,194.492 98.775,194.492 96.696 L 194.492 92.917 192.125 88.369 C 189.454 83.237,181.885 68.430,175.943 56.713 C 172.139 49.211,171.702 48.505,171.284 49.181 M110.715 56.938 C 105.519 62.956,96.041 77.431,96.041 79.347 C 96.041 79.596,97.474 80.689,99.225 81.774 C 100.977 82.859,103.262 84.322,104.303 85.026 C 105.344 85.729,106.351 86.365,106.540 86.440 C 106.730 86.514,108.046 87.333,109.466 88.258 C 110.886 89.184,113.573 90.936,115.437 92.152 C 119.525 94.818,120.483 95.244,120.480 94.398 C 120.477 93.618,119.868 90.115,118.430 82.616 C 117.314 76.794,116.039 69.953,115.317 65.921 C 115.148 64.974,114.759 62.960,114.453 61.446 C 114.146 59.931,113.790 57.919,113.660 56.975 C 113.339 54.633,112.712 54.625,110.715 56.938 M119.105 59.571 C 119.105 60.149,119.323 61.659,119.588 62.927 C 120.117 65.448,121.017 70.170,122.391 77.625 C 123.154 81.767,124.109 86.790,125.303 92.943 C 125.469 93.795,125.797 95.542,126.034 96.824 L 126.464 99.156 133.542 103.678 C 137.435 106.165,144.619 110.770,149.506 113.911 C 154.394 117.052,158.654 119.776,158.973 119.966 C 159.292 120.155,160.289 120.813,161.188 121.429 C 162.088 122.044,162.896 122.547,162.984 122.547 C 163.071 122.547,164.464 123.399,166.078 124.441 C 170.211 127.107,170.332 127.016,168.848 122.333 C 168.375 120.842,167.811 119.002,167.593 118.244 C 167.376 117.487,167.008 116.248,166.774 115.491 C 166.541 114.733,165.999 112.952,165.570 111.532 C 163.580 104.944,163.094 103.381,162.776 102.544 C 162.588 102.049,160.624 99.854,158.412 97.664 C 156.199 95.475,146.585 85.772,137.047 76.102 C 118.902 57.705,119.105 57.892,119.105 59.571 M265.543 61.901 C 263.821 63.355,261.667 65.164,260.756 65.921 C 256.821 69.194,253.727 71.813,251.721 73.572 L 249.570 75.458 249.570 77.639 C 249.570 79.585,249.772 80.819,250.922 85.886 C 251.193 87.079,251.708 89.636,252.179 92.131 C 252.415 93.385,254.185 93.213,257.659 91.597 C 258.038 91.421,260.284 90.553,262.651 89.668 C 265.017 88.783,267.790 87.677,268.813 87.211 L 270.672 86.362 270.415 78.035 C 270.274 73.455,270.100 67.492,270.029 64.785 C 269.851 58.032,270.008 58.133,265.543 61.901 M294.979 63.092 C 294.496 63.766,291.155 68.576,286.438 75.387 C 281.614 82.351,281.615 82.347,285.410 80.855 C 286.429 80.455,288.231 79.757,289.415 79.306 C 294.103 77.518,296.277 76.657,297.673 76.036 C 298.475 75.679,299.247 75.387,299.387 75.387 C 299.528 75.387,300.459 75.049,301.456 74.635 C 303.589 73.751,303.699 73.292,302.281 71.180 C 301.736 70.370,300.390 68.349,299.288 66.689 C 296.226 62.075,295.901 61.803,294.979 63.092 M138.476 70.561 C 138.739 70.936,143.432 75.776,148.905 81.317 C 159.436 91.978,159.719 92.178,158.418 88.029 C 158.049 86.851,157.533 85.124,157.272 84.193 C 156.836 82.632,153.660 79.604,151.286 78.485 C 151.085 78.391,148.191 76.416,144.854 74.096 C 138.866 69.934,137.511 69.183,138.476 70.561 M305.164 78.397 C 304.785 78.471,304.010 78.740,303.442 78.994 C 302.874 79.248,301.093 79.947,299.484 80.548 C 296.881 81.519,293.358 82.875,291.394 83.660 C 290.707 83.935,286.167 85.699,281.928 87.338 C 275.676 89.755,275.731 89.687,275.731 94.871 C 275.731 100.311,275.024 100.429,286.403 93.093 C 291.799 89.615,296.446 86.657,296.730 86.520 C 300.061 84.915,307.046 79.796,306.724 79.195 C 306.274 78.355,306.026 78.228,305.164 78.397 M237.654 85.286 C 235.928 86.752,232.908 89.290,230.942 90.926 C 228.975 92.562,225.818 95.196,223.924 96.779 C 222.031 98.363,220.017 100.019,219.449 100.460 C 218.881 100.901,217.797 101.829,217.039 102.524 C 216.281 103.218,214.887 104.406,213.941 105.163 C 211.230 107.331,208.681 109.487,205.938 111.929 L 204.819 112.925 204.819 128.961 C 204.819 143.781,204.863 144.980,205.393 144.776 C 205.708 144.655,207.063 143.857,208.405 143.003 C 209.746 142.149,211.153 141.263,211.532 141.035 C 211.910 140.806,213.196 139.961,214.388 139.157 C 215.581 138.352,216.650 137.694,216.765 137.694 C 216.880 137.694,217.482 137.306,218.103 136.833 C 218.723 136.360,219.372 135.972,219.545 135.972 C 219.718 135.972,220.139 135.663,220.482 135.284 C 220.825 134.905,221.249 134.596,221.426 134.596 C 222.287 134.596,229.530 129.410,229.697 128.674 C 229.870 127.908,230.666 124.924,231.838 120.654 C 232.149 119.518,232.792 117.117,233.265 115.318 C 233.739 113.520,234.258 111.583,234.419 111.015 C 234.859 109.460,236.503 103.265,236.838 101.893 C 237.339 99.850,239.891 90.432,241.036 86.403 C 242.316 81.899,241.829 81.738,237.654 85.286 M93.399 84.423 C 92.953 85.125,91.516 88.577,91.322 89.416 C 91.148 90.162,91.835 91.319,93.518 93.115 C 93.873 93.494,95.399 95.348,96.909 97.236 C 98.420 99.123,101.360 102.706,103.442 105.197 C 105.525 107.689,108.035 110.714,109.019 111.920 C 116.327 120.872,119.450 124.681,120.566 126.007 C 121.275 126.850,123.173 129.140,124.782 131.098 C 128.198 135.251,128.429 135.167,127.374 130.156 C 126.972 128.248,126.496 125.833,126.317 124.789 C 125.723 121.346,125.351 119.330,124.441 114.630 C 123.525 109.903,123.154 107.893,122.558 104.427 C 122.108 101.812,122.480 102.120,110.458 94.415 C 92.411 82.849,93.860 83.698,93.399 84.423 M305.930 86.153 C 299.692 90.044,277.202 104.486,276.637 104.964 C 275.839 105.638,275.914 122.366,276.717 122.862 C 277.070 123.081,293.199 116.923,298.361 114.598 C 299.164 114.237,299.915 113.941,300.030 113.941 C 300.146 113.941,300.806 113.693,301.497 113.390 C 303.534 112.496,303.885 112.354,309.466 110.157 C 316.682 107.316,316.695 107.310,316.695 106.673 C 316.695 104.916,312.982 92.846,311.330 89.232 C 310.873 88.233,310.499 87.289,310.499 87.134 C 310.499 84.654,308.887 84.308,305.930 86.153 M245.534 86.688 C 245.314 86.824,244.983 87.552,244.800 88.305 C 244.617 89.057,244.086 91.067,243.621 92.771 C 243.155 94.475,242.297 97.651,241.713 99.828 C 240.579 104.058,239.907 106.558,239.053 109.725 C 238.759 110.813,238.206 112.866,237.825 114.286 C 237.444 115.706,236.749 118.262,236.282 119.966 C 234.514 126.414,234.429 126.345,239.878 122.858 C 242.215 121.362,244.165 120.138,244.211 120.138 C 245.141 120.138,251.798 114.966,251.759 114.274 C 251.705 113.317,251.226 110.791,250.424 107.229 C 250.126 105.904,249.734 104.045,249.554 103.098 C 249.374 102.151,249.090 100.757,248.922 100.000 C 248.202 96.747,246.716 89.555,246.486 88.207 C 246.199 86.524,246.087 86.346,245.534 86.688 M165.805 89.065 C 165.706 89.225,166.088 90.976,166.652 92.957 C 167.217 94.937,167.892 97.332,168.151 98.279 C 168.411 99.225,168.789 100.433,168.991 100.963 C 169.460 102.191,193.856 127.108,194.227 126.737 C 194.379 126.585,194.463 122.366,194.412 117.362 L 194.320 108.265 190.834 105.853 C 164.509 87.646,166.045 88.676,165.805 89.065 M266.437 93.280 C 266.153 93.444,264.991 93.922,263.855 94.343 C 262.719 94.765,261.325 95.299,260.757 95.530 C 256.120 97.417,255.202 97.764,254.861 97.763 C 253.864 97.761,253.585 98.770,254.027 100.787 C 256.343 111.366,256.142 110.871,257.372 109.032 C 257.781 108.419,259.299 106.213,260.744 104.131 C 266.050 96.484,268.097 93.341,267.901 93.144 C 267.627 92.871,267.058 92.924,266.437 93.280 M268.223 101.757 C 267.241 103.196,266.437 104.513,266.437 104.683 C 266.437 104.852,266.282 104.991,266.093 104.991 C 265.904 104.991,265.749 105.219,265.749 105.497 C 265.749 106.140,266.399 105.902,268.778 104.388 C 270.885 103.047,271.436 102.098,271.112 100.371 C 270.774 98.568,270.216 98.836,268.223 101.757 M86.967 102.311 C 86.191 104.927,84.796 111.301,84.384 114.114 C 84.190 115.439,83.859 117.530,83.648 118.761 C 83.164 121.592,82.819 139.590,83.196 142.337 C 83.534 144.804,83.569 144.827,88.985 146.128 C 93.387 147.185,93.973 147.328,98.795 148.519 C 100.783 149.010,103.107 149.571,103.959 149.766 C 107.662 150.612,113.066 151.968,114.802 152.486 C 115.692 152.752,128.938 155.993,131.031 156.458 C 132.424 156.767,132.214 153.314,130.729 151.487 C 129.430 149.888,124.889 144.498,123.592 143.015 C 122.923 142.249,121.756 140.859,120.998 139.926 C 120.241 138.993,118.614 137.048,117.384 135.605 C 116.153 134.162,114.527 132.227,113.769 131.304 C 113.012 130.382,112.160 129.388,111.876 129.096 C 111.592 128.804,111.050 128.160,110.671 127.664 C 109.807 126.533,103.211 118.649,102.935 118.417 C 102.822 118.322,102.374 117.780,101.939 117.212 C 101.504 116.644,100.580 115.559,99.886 114.801 C 99.191 114.044,98.005 112.650,97.250 111.703 C 96.495 110.757,95.467 109.518,94.967 108.950 C 93.645 107.450,89.538 102.573,89.054 101.928 C 87.861 100.339,87.535 100.399,86.967 102.311 M128.055 107.212 C 128.055 107.906,128.206 109.123,128.389 109.916 C 128.573 110.710,129.272 114.303,129.943 117.900 C 133.280 135.812,133.185 135.345,133.617 135.866 C 133.964 136.284,135.432 136.618,140.103 137.338 C 143.116 137.803,145.802 138.255,149.398 138.901 C 150.818 139.157,153.064 139.536,154.389 139.745 C 155.714 139.953,157.573 140.274,158.520 140.457 C 161.192 140.974,168.591 142.185,171.192 142.532 C 172.483 142.703,173.652 142.914,173.791 143.000 C 174.835 143.645,174.911 142.465,174.015 139.542 C 173.500 137.863,172.998 136.102,172.899 135.628 C 172.711 134.726,171.187 132.874,170.633 132.874 C 170.456 132.874,169.334 132.177,168.140 131.325 C 166.946 130.473,165.888 129.776,165.788 129.776 C 165.632 129.776,164.874 129.300,162.478 127.697 C 160.676 126.491,156.960 124.109,153.701 122.071 C 151.618 120.768,149.294 119.284,148.537 118.771 C 145.438 116.675,129.180 106.382,128.639 106.174 C 128.155 105.989,128.055 106.167,128.055 107.212 M264.120 112.835 C 256.985 117.419,257.357 116.989,258.038 119.860 C 258.812 123.128,259.121 124.564,259.578 127.022 C 260.148 130.087,260.011 130.071,265.577 127.712 C 265.955 127.552,267.388 126.982,268.760 126.447 C 270.132 125.911,271.318 125.241,271.397 124.957 C 271.689 123.896,271.080 109.005,270.740 108.905 C 270.551 108.849,267.572 110.618,264.120 112.835 M314.802 112.880 C 313.645 113.406,311.270 114.361,307.917 115.650 C 307.539 115.796,306.842 116.082,306.368 116.287 C 305.895 116.491,303.494 117.459,301.033 118.436 C 298.571 119.414,296.057 120.435,295.446 120.705 C 294.835 120.975,293.708 121.417,292.943 121.687 C 292.178 121.957,291.052 122.395,290.440 122.661 C 289.829 122.927,288.244 123.570,286.919 124.090 C 285.594 124.610,284.045 125.238,283.477 125.486 C 282.909 125.735,281.515 126.283,280.379 126.705 C 276.467 128.159,276.757 127.438,276.811 135.582 C 276.872 144.822,277.192 150.863,277.629 151.007 C 277.956 151.115,280.426 149.221,289.157 142.169 C 291.145 140.564,292.970 139.093,293.213 138.902 C 293.457 138.711,293.844 138.395,294.074 138.200 C 296.173 136.424,300.615 132.838,301.721 132.027 C 302.478 131.472,303.176 130.924,303.270 130.809 C 303.365 130.694,304.527 129.731,305.852 128.670 C 309.982 125.362,315.080 121.213,316.663 119.873 C 317.497 119.167,318.310 118.537,318.470 118.474 C 318.823 118.335,318.446 113.666,318.013 112.823 C 317.623 112.062,316.562 112.081,314.802 112.880 M172.806 113.431 C 172.806 113.996,173.872 118.111,174.646 120.535 C 174.909 121.358,175.440 123.115,175.827 124.441 C 176.214 125.766,176.801 127.780,177.132 128.916 C 177.763 131.077,178.634 132.874,179.051 132.874 C 179.273 132.874,181.196 134.102,185.082 136.726 C 185.870 137.258,186.581 137.694,186.662 137.694 C 186.743 137.694,188.336 138.701,190.202 139.931 C 194.691 142.891,194.492 142.971,194.492 138.210 L 194.492 134.252 183.927 123.580 C 173.473 113.021,172.806 112.412,172.806 113.431 M252.636 124.365 C 251.249 126.299,245.439 134.988,245.439 135.127 C 245.439 135.563,247.053 135.159,249.793 134.037 C 256.289 131.379,255.760 131.927,254.905 128.744 C 254.626 127.702,254.395 126.441,254.393 125.942 C 254.391 125.442,254.118 124.711,253.787 124.317 L 253.184 123.601 252.636 124.365 M243.201 126.247 C 242.065 126.926,241.084 127.611,241.021 127.769 C 240.958 127.926,240.767 128.055,240.596 128.055 C 240.425 128.055,238.696 129.101,236.753 130.379 C 234.811 131.657,233.066 132.780,232.876 132.874 C 232.564 133.030,230.909 134.098,227.070 136.622 C 226.339 137.103,225.466 137.657,225.131 137.853 C 224.796 138.049,223.185 139.062,221.550 140.103 C 219.916 141.145,217.970 142.384,217.225 142.857 C 205.814 150.109,204.373 151.146,205.092 151.591 C 205.312 151.727,212.508 149.079,215.749 147.669 C 217.079 147.090,217.942 146.743,222.547 144.930 C 225.009 143.961,227.410 143.000,227.883 142.794 C 228.356 142.589,229.053 142.300,229.432 142.151 C 229.811 142.003,231.540 141.310,233.274 140.612 L 236.427 139.342 238.782 135.896 C 240.077 134.000,242.112 131.034,243.304 129.305 C 246.790 124.251,246.786 124.103,243.201 126.247 M318.407 128.644 C 317.615 129.191,309.314 135.840,304.979 139.399 C 303.930 140.260,302.475 141.429,301.745 141.997 C 301.016 142.565,298.620 144.505,296.423 146.309 C 294.225 148.113,292.015 149.894,291.511 150.268 C 287.668 153.115,275.077 163.631,275.225 163.871 C 275.387 164.133,276.512 163.741,280.723 161.955 C 281.291 161.714,282.608 161.173,283.649 160.752 C 284.690 160.331,286.042 159.767,286.654 159.499 C 287.265 159.230,288.391 158.790,289.157 158.520 C 289.922 158.250,291.126 157.778,291.832 157.471 C 294.135 156.470,297.228 155.162,298.107 154.818 C 298.580 154.632,299.236 154.344,299.565 154.177 C 299.894 154.009,300.316 153.873,300.502 153.873 C 300.689 153.873,301.659 153.505,302.658 153.055 C 303.658 152.606,305.482 151.821,306.713 151.310 C 310.351 149.801,310.643 149.676,311.269 149.357 C 311.598 149.190,312.020 149.053,312.206 149.053 C 312.393 149.053,313.363 148.687,314.362 148.239 C 315.362 147.791,316.823 147.155,317.609 146.825 C 318.628 146.397,319.103 145.963,319.260 145.315 C 319.630 143.791,319.914 128.055,319.572 128.055 C 319.399 128.055,318.875 128.320,318.407 128.644 M268.675 131.349 C 267.539 131.806,266.299 132.317,265.921 132.486 C 265.542 132.654,264.535 133.071,263.683 133.411 C 260.966 134.497,261.012 134.000,262.846 142.513 C 263.356 144.880,263.888 147.435,264.029 148.193 C 264.715 151.897,266.399 159.282,266.675 159.798 C 266.795 160.023,270.207 157.611,271.717 156.235 C 272.320 155.685,272.337 155.059,272.062 143.151 C 271.734 128.972,272.029 129.999,268.675 131.349 M251.807 138.082 C 249.914 138.851,247.708 139.775,246.906 140.136 C 246.103 140.497,245.324 140.792,245.175 140.792 C 242.892 140.792,240.018 142.903,237.611 146.348 C 236.240 148.309,234.986 150.075,234.825 150.272 C 234.664 150.469,233.008 152.870,231.146 155.607 C 228.500 159.497,217.649 175.200,214.027 180.379 C 213.696 180.852,212.531 182.556,211.439 184.165 C 210.346 185.775,208.410 188.585,207.136 190.411 L 204.819 193.730 204.819 201.684 C 204.819 210.539,204.738 210.306,207.161 208.348 C 208.039 207.638,209.056 206.824,209.419 206.540 C 209.783 206.256,210.562 205.625,211.151 205.137 C 211.739 204.648,214.312 202.567,216.867 200.512 C 219.423 198.457,221.592 196.687,221.687 196.579 C 221.781 196.470,222.478 195.926,223.236 195.369 C 223.993 194.812,224.690 194.262,224.785 194.148 C 224.880 194.033,226.816 192.453,229.088 190.638 C 231.360 188.822,234.535 186.272,236.145 184.970 C 237.754 183.669,240.697 181.295,242.685 179.694 C 244.673 178.093,246.377 176.693,246.472 176.583 C 246.566 176.474,247.263 175.927,248.021 175.369 C 248.778 174.811,249.591 174.172,249.827 173.950 C 250.063 173.727,252.891 171.426,256.112 168.836 C 263.309 163.047,262.639 164.366,261.263 158.692 C 260.955 157.422,259.653 151.218,259.204 148.881 C 258.874 147.164,258.361 144.771,257.655 141.652 C 257.356 140.327,257.020 138.662,256.909 137.952 C 256.648 136.279,256.220 136.290,251.807 138.082 M180.751 141.092 C 181.469 144.287,181.441 144.267,186.768 145.233 C 190.752 145.955,190.555 145.606,185.040 142.163 C 180.514 139.338,180.348 139.296,180.751 141.092 M134.821 142.771 C 134.709 142.952,136.634 145.562,139.099 148.572 C 141.564 151.582,144.386 155.034,145.370 156.243 C 149.115 160.842,149.435 161.118,151.641 161.665 C 157.021 162.999,160.706 163.897,161.962 164.180 C 162.719 164.351,164.888 164.896,166.781 165.391 C 168.675 165.887,170.843 166.428,171.601 166.593 C 172.358 166.759,174.814 167.372,177.059 167.956 C 183.559 169.648,183.228 169.979,181.344 163.683 C 180.778 161.790,180.188 159.776,180.034 159.208 C 179.705 157.992,178.231 153.258,177.570 151.291 C 177.027 149.676,176.391 149.414,170.912 148.547 C 169.019 148.247,166.695 147.853,165.749 147.671 C 164.802 147.490,161.549 146.947,158.520 146.465 C 152.961 145.580,152.479 145.500,149.053 144.887 C 148.012 144.701,144.914 144.178,142.169 143.724 C 139.423 143.270,136.693 142.797,136.100 142.671 C 135.508 142.546,134.932 142.591,134.821 142.771 M229.776 146.976 C 229.071 147.269,223.098 149.609,221.859 150.078 C 221.480 150.221,220.783 150.506,220.310 150.710 C 219.836 150.915,217.435 151.880,214.974 152.854 C 208.286 155.502,206.861 156.088,205.594 156.708 L 204.819 157.087 204.819 170.434 C 204.819 177.774,204.938 183.854,205.083 183.943 C 205.348 184.107,205.982 183.250,211.032 175.904 C 212.529 173.726,213.904 171.767,214.087 171.549 C 214.270 171.332,215.706 169.259,217.279 166.942 C 218.851 164.626,220.367 162.403,220.647 162.002 C 224.592 156.356,230.280 148.019,230.597 147.418 C 231.030 146.596,230.882 146.517,229.776 146.976 M184.126 151.168 C 184.021 152.400,184.049 152.515,186.425 160.585 C 186.870 162.100,187.709 164.963,188.288 166.947 C 189.492 171.075,189.552 171.152,192.026 171.751 C 194.597 172.374,194.515 172.708,194.412 162.120 L 194.320 152.684 193.460 152.442 C 192.986 152.308,191.050 151.941,189.157 151.625 C 187.263 151.309,185.366 150.972,184.940 150.875 C 184.440 150.762,184.151 150.866,184.126 151.168 M84.501 153.270 C 84.629 154.454,84.947 156.274,85.209 157.315 C 87.445 166.199,87.609 166.803,88.644 169.983 C 88.827 170.545,89.768 171.185,91.869 172.179 C 93.501 172.950,97.515 174.878,100.788 176.464 C 104.061 178.049,106.804 179.346,106.883 179.346 C 106.963 179.346,108.773 180.198,110.905 181.239 C 113.038 182.281,114.977 183.133,115.216 183.133 C 115.554 183.133,122.471 177.498,123.236 176.599 C 123.330 176.488,124.173 175.782,125.109 175.031 C 126.044 174.280,127.206 173.299,127.690 172.851 C 128.175 172.402,129.268 171.473,130.119 170.785 C 131.494 169.675,136.302 165.615,137.160 164.839 C 137.892 164.178,135.440 163.297,128.744 161.815 C 128.081 161.668,126.222 161.207,124.613 160.790 C 118.466 159.196,116.406 158.682,112.737 157.825 C 110.654 157.338,108.640 156.863,108.262 156.769 C 107.883 156.674,102.694 155.365,96.730 153.859 C 83.328 150.474,84.205 150.516,84.501 153.270 M317.040 152.033 C 316.756 152.126,316.136 152.367,315.663 152.569 C 313.485 153.499,311.548 154.291,310.069 154.858 C 309.643 155.021,308.287 155.585,307.057 156.110 C 305.826 156.636,304.509 157.183,304.131 157.327 C 303.752 157.471,302.877 157.837,302.185 158.140 C 301.494 158.444,300.834 158.692,300.719 158.692 C 300.603 158.692,299.852 158.982,299.050 159.337 C 297.138 160.182,291.213 162.633,285.198 165.068 C 276.005 168.789,276.239 168.600,279.135 169.960 C 279.819 170.281,281.284 171.053,282.391 171.675 C 284.721 172.984,285.111 173.032,286.350 172.167 C 286.852 171.816,288.812 170.596,290.706 169.455 C 292.599 168.315,296.627 165.872,299.656 164.027 C 302.685 162.182,305.694 160.369,306.342 159.998 C 306.991 159.628,308.349 158.795,309.361 158.148 C 310.373 157.500,311.286 156.971,311.389 156.971 C 311.493 156.971,312.086 156.583,312.706 156.110 C 313.327 155.637,313.975 155.241,314.146 155.231 C 314.714 155.197,318.246 152.653,318.184 152.322 C 318.109 151.916,317.709 151.815,317.040 152.033 M312.880 162.526 C 306.050 166.694,301.988 169.151,300.886 169.779 C 300.238 170.149,298.880 170.981,297.868 171.629 C 296.856 172.276,295.943 172.806,295.840 172.806 C 295.736 172.806,295.143 173.193,294.523 173.666 C 293.902 174.139,293.254 174.530,293.083 174.534 C 292.911 174.539,292.414 174.817,291.978 175.152 C 290.779 176.075,290.649 175.992,304.368 183.064 C 307.413 184.634,307.744 184.734,308.180 184.216 C 308.621 183.693,310.234 180.442,310.852 178.830 C 310.998 178.451,311.447 177.328,311.850 176.335 C 313.530 172.195,316.767 161.288,316.419 160.940 C 316.090 160.611,315.809 160.737,312.880 162.526 M141.815 167.198 C 141.347 167.521,140.792 167.947,140.582 168.144 C 140.063 168.630,138.770 169.743,135.109 172.853 C 118.492 186.971,119.720 185.555,122.862 186.981 C 123.730 187.376,126.299 188.589,128.571 189.677 C 130.843 190.765,134.561 192.542,136.833 193.625 C 141.060 195.641,143.175 196.656,152.496 201.138 C 160.183 204.836,164.969 207.117,168.503 208.770 C 172.491 210.636,177.009 212.803,180.832 214.685 C 185.888 217.173,185.790 216.863,179.005 208.902 C 177.817 207.508,176.136 205.535,175.268 204.515 C 174.400 203.496,173.219 202.087,172.645 201.384 C 170.955 199.315,163.019 189.861,162.815 189.673 C 162.711 189.578,162.272 189.036,161.837 188.468 C 161.403 187.900,160.207 186.487,159.180 185.329 C 158.152 184.170,156.809 182.590,156.195 181.819 C 154.846 180.125,148.629 172.737,146.174 169.910 C 145.202 168.790,144.204 167.590,143.956 167.242 C 143.397 166.455,142.903 166.445,141.815 167.198 M156.282 169.165 C 156.282 169.369,159.910 174.059,160.429 174.527 C 160.535 174.621,162.311 176.790,164.378 179.346 C 166.444 181.902,168.295 184.169,168.491 184.384 C 168.687 184.599,170.086 186.285,171.601 188.131 C 173.115 189.977,175.284 192.598,176.420 193.956 C 177.556 195.313,179.028 197.107,179.690 197.942 C 180.815 199.359,182.372 201.254,185.714 205.276 C 186.472 206.187,187.577 207.539,188.171 208.281 C 192.034 213.107,193.820 215.146,194.184 215.146 C 194.702 215.146,194.548 207.025,193.996 205.228 C 193.497 203.604,191.263 196.241,190.686 194.320 C 190.516 193.752,190.081 192.358,189.719 191.222 C 189.044 189.102,188.242 186.424,187.554 183.993 C 187.339 183.236,186.799 181.561,186.353 180.272 C 185.907 178.983,185.542 177.651,185.542 177.313 C 185.542 176.098,183.936 175.301,179.862 174.493 C 178.074 174.139,177.074 173.892,168.847 171.773 C 158.600 169.134,156.282 168.653,156.282 169.165 M265.015 173.312 C 261.613 174.745,260.083 175.620,257.986 177.331 C 256.512 178.534,253.899 180.644,252.180 182.020 C 250.460 183.396,248.776 184.755,248.437 185.040 C 248.099 185.325,246.627 186.517,245.167 187.689 C 237.842 193.569,237.262 194.319,240.541 193.669 C 241.058 193.566,243.946 193.305,246.961 193.087 L 252.442 192.692 256.529 190.236 C 262.412 186.701,262.564 186.608,266.246 184.337 C 270.439 181.752,272.767 180.339,274.756 179.174 C 275.079 178.985,276.185 178.336,277.213 177.734 C 279.776 176.231,279.885 175.741,277.874 174.753 C 276.979 174.314,275.189 173.386,273.896 172.691 C 270.859 171.061,270.257 171.103,265.015 173.312 M191.924 177.947 C 191.562 178.533,193.839 186.425,194.251 186.013 C 195.041 185.223,194.489 178.295,193.609 177.960 C 192.508 177.542,192.176 177.539,191.924 177.947 M284.983 179.494 C 284.533 179.735,281.687 181.452,278.657 183.310 C 275.628 185.167,272.762 186.900,272.289 187.160 C 263.926 191.761,264.147 191.859,279.862 190.515 C 283.365 190.216,287.935 189.825,290.017 189.647 C 292.100 189.469,295.508 189.238,297.590 189.134 C 304.100 188.810,304.350 188.493,299.914 186.192 C 284.536 178.216,286.078 178.907,284.983 179.494 M92.447 180.120 C 92.729 181.037,96.724 189.244,97.851 191.222 C 98.282 191.979,99.010 193.257,99.467 194.062 C 100.523 195.920,100.278 195.982,104.032 192.894 C 110.730 187.383,110.627 187.720,106.262 185.606 C 92.374 178.878,92.021 178.738,92.447 180.120 M114.092 190.620 C 113.323 191.315,106.959 196.738,105.712 197.762 C 103.050 199.948,103.047 199.852,105.902 203.661 C 112.095 211.921,122.758 222.968,127.022 225.541 C 127.983 226.121,130.156 226.000,137.349 224.967 C 141.242 224.409,144.797 223.955,148.193 223.583 C 151.095 223.266,155.610 222.683,158.864 222.207 C 160.568 221.957,163.589 221.577,165.577 221.362 C 167.565 221.146,170.198 220.826,171.429 220.649 C 172.659 220.473,174.409 220.228,175.317 220.105 C 176.812 219.904,176.996 218.589,175.529 218.589 C 175.382 218.589,172.966 217.487,170.161 216.142 C 167.355 214.796,163.511 212.956,161.618 212.054 C 159.725 211.152,156.317 209.524,154.045 208.436 C 148.125 205.601,143.512 203.404,139.759 201.630 C 137.960 200.780,134.165 198.968,131.325 197.603 C 128.485 196.238,124.690 194.425,122.892 193.574 C 121.093 192.724,118.739 191.575,117.661 191.023 C 115.377 189.851,114.992 189.808,114.092 190.620 M294.320 194.163 C 293.090 194.312,289.682 194.607,286.747 194.818 C 278.108 195.438,268.595 196.186,264.716 196.550 C 262.728 196.736,259.862 196.982,258.348 197.096 C 255.183 197.336,257.562 196.049,235.800 209.294 C 232.298 211.426,228.893 213.477,228.234 213.853 C 227.575 214.228,225.871 215.264,224.447 216.155 C 223.024 217.047,220.542 218.568,218.933 219.537 C 214.666 222.106,214.701 222.140,222.547 223.030 C 226.703 223.502,229.801 223.889,236.833 224.812 C 239.768 225.197,243.485 225.659,245.095 225.837 C 249.472 226.322,254.779 226.970,264.888 228.251 C 271.623 229.105,271.030 229.143,273.007 227.722 C 278.992 223.423,288.047 214.663,293.382 208.011 C 296.330 204.336,300.861 198.126,300.861 197.761 C 300.861 197.680,301.325 196.881,301.893 195.986 C 302.461 195.090,302.926 194.233,302.926 194.081 C 302.926 193.740,297.368 193.794,294.320 194.163 M235.746 198.792 C 235.653 198.885,234.583 198.984,233.369 199.011 C 230.870 199.068,231.696 198.544,223.028 205.561 C 220.303 207.768,215.207 211.885,211.704 214.710 C 206.053 219.268,204.335 220.998,205.459 220.998 C 205.649 220.998,209.417 218.805,213.832 216.124 C 218.247 213.443,224.260 209.797,227.194 208.022 C 230.129 206.247,232.762 204.652,233.046 204.477 C 233.330 204.302,235.267 203.122,237.349 201.854 C 242.774 198.552,242.737 198.623,239.030 198.623 C 237.317 198.623,235.839 198.699,235.746 198.792 M183.477 225.358 C 179.989 225.874,177.587 226.189,170.740 227.024 C 168.373 227.313,164.733 227.783,162.651 228.069 C 160.568 228.354,157.625 228.732,156.110 228.908 C 154.596 229.084,151.497 229.473,149.225 229.773 C 146.954 230.072,143.855 230.471,142.341 230.659 C 134.785 231.598,134.967 231.482,137.945 233.464 C 147.054 239.528,159.483 244.897,172.117 248.226 C 177.223 249.571,185.357 250.913,190.052 251.184 L 193.013 251.356 193.188 249.516 C 193.284 248.504,193.269 243.037,193.153 237.366 L 192.943 227.055 191.566 226.393 C 190.809 226.029,189.778 225.519,189.276 225.258 C 188.211 224.706,187.831 224.713,183.477 225.358 M207.058 226.704 C 204.680 227.944,204.819 227.116,204.819 240.036 L 204.819 251.738 209.380 251.503 C 211.889 251.374,214.948 251.116,216.179 250.930 C 217.410 250.743,219.501 250.426,220.826 250.225 C 223.134 249.874,229.482 248.528,232.014 247.853 C 234.049 247.310,239.031 245.776,239.759 245.468 C 240.138 245.307,241.609 244.758,243.029 244.247 C 247.426 242.664,248.691 242.107,254.558 239.172 C 257.207 237.846,259.787 236.468,260.291 236.109 C 260.795 235.750,261.303 235.456,261.420 235.456 C 261.825 235.456,264.372 233.724,264.372 233.448 C 264.372 233.138,261.318 232.645,254.389 231.834 C 251.833 231.535,248.735 231.148,247.504 230.973 C 246.274 230.799,243.873 230.490,242.169 230.287 C 237.594 229.743,228.635 228.644,223.924 228.049 C 216.323 227.090,208.651 226.168,208.262 226.167 C 208.167 226.166,207.625 226.408,207.058 226.704 M135.463 254.282 C 133.574 254.553,131.911 254.960,131.768 255.185 C 131.132 256.186,131.460 314.930,132.104 315.275 C 134.951 316.798,153.325 316.478,160.069 314.788 C 162.603 314.153,167.203 311.770,168.857 310.237 C 177.121 302.571,175.449 288.465,165.749 284.013 C 163.129 282.811,163.043 282.762,162.934 282.419 C 162.877 282.244,163.488 281.793,164.290 281.418 C 175.693 276.089,174.112 259.749,161.770 255.367 C 156.833 253.614,143.836 253.078,135.463 254.282 M233.219 253.928 C 232.651 253.997,230.908 254.222,229.346 254.429 L 226.506 254.804 226.506 285.055 L 226.506 315.305 227.281 315.475 C 237.045 317.614,254.294 316.083,262.597 312.341 C 283.090 303.104,285.188 269.149,265.942 258.202 C 259.204 254.368,244.974 252.510,233.219 253.928 M79.162 255.622 C 78.790 256.490,78.485 257.316,78.485 257.457 C 78.485 257.599,77.733 260.026,76.813 262.850 C 75.894 265.675,74.792 269.148,74.364 270.568 C 73.937 271.988,73.238 274.157,72.811 275.387 C 72.385 276.618,71.690 278.787,71.267 280.207 C 70.844 281.627,70.282 283.297,70.017 283.919 C 69.752 284.540,69.535 285.278,69.535 285.559 C 69.535 285.839,69.393 286.337,69.220 286.666 C 69.047 286.994,68.564 288.425,68.147 289.845 C 67.731 291.265,66.655 294.673,65.756 297.418 C 61.697 309.818,60.561 313.495,60.490 314.458 L 60.413 315.491 65.404 315.589 C 72.510 315.730,71.485 316.745,74.539 306.540 C 77.336 297.191,75.921 298.162,86.795 298.131 C 96.960 298.102,96.122 297.702,97.935 303.442 C 100.755 312.368,101.716 315.156,102.056 315.399 C 102.525 315.734,112.964 315.726,113.492 315.391 C 114.073 315.022,113.187 311.788,110.077 302.926 C 109.513 301.317,108.931 299.535,108.786 298.967 C 108.640 298.399,107.904 296.076,107.149 293.804 C 106.395 291.532,104.652 286.188,103.275 281.928 C 101.899 277.668,100.310 272.788,99.744 271.084 C 99.178 269.380,98.434 267.057,98.090 265.921 C 97.747 264.785,97.164 263.003,96.794 261.962 C 96.424 260.921,95.850 259.139,95.517 258.003 C 95.184 256.867,94.698 255.512,94.435 254.991 L 93.958 254.045 86.898 254.045 L 79.838 254.045 79.162 255.622 M193.332 254.819 C 192.902 256.427,193.091 314.812,193.528 315.250 C 193.964 315.685,203.215 315.860,204.275 315.454 C 204.831 315.240,205.158 256.015,204.610 254.589 C 204.223 253.580,193.606 253.797,193.332 254.819 M297.992 254.274 C 297.428 254.838,297.739 315.236,298.307 315.454 C 299.018 315.727,333.684 315.727,334.395 315.454 C 334.853 315.278,334.940 314.536,334.940 310.807 L 334.940 306.368 324.699 306.340 C 312.886 306.308,309.761 306.152,309.395 305.576 C 309.086 305.090,309.036 290.375,309.339 289.243 L 309.547 288.468 320.322 288.468 C 333.565 288.468,332.186 289.011,332.186 283.796 C 332.186 278.372,333.273 278.830,320.401 278.830 C 312.730 278.830,309.838 278.720,309.535 278.417 C 309.021 277.903,308.954 265.548,309.458 264.222 L 309.794 263.339 321.678 263.339 L 333.563 263.339 333.563 258.692 L 333.563 254.045 315.892 254.045 C 306.173 254.045,298.118 254.148,297.992 254.274 M152.696 262.343 C 158.631 263.451,161.680 267.459,160.273 272.300 C 158.865 277.142,154.740 279.131,146.035 279.163 L 143.189 279.174 143.281 270.829 L 143.373 262.485 144.406 262.264 C 146.125 261.897,150.534 261.939,152.696 262.343 M252.466 263.372 C 271.568 268.000,272.463 299.359,253.674 305.689 C 249.214 307.191,241.450 307.895,238.950 307.023 L 237.866 306.645 237.866 285.012 C 237.866 268.078,237.959 263.322,238.296 263.113 C 239.787 262.190,248.222 262.344,252.466 263.372 M87.716 267.730 C 88.154 269.386,88.592 271.127,88.688 271.601 C 88.785 272.074,88.983 272.771,89.129 273.150 C 89.274 273.528,89.804 275.155,90.305 276.764 C 90.807 278.373,91.745 281.317,92.390 283.305 C 94.667 290.325,95.127 289.794,86.749 289.829 C 78.530 289.864,78.847 290.072,80.244 285.542 C 80.827 283.649,81.434 281.635,81.592 281.067 C 81.750 280.499,82.137 279.260,82.453 278.313 C 83.095 276.386,83.308 275.644,84.279 271.945 C 86.588 263.153,86.525 263.230,87.716 267.730 M153.184 287.915 C 159.266 289.377,162.295 292.608,162.220 297.553 C 162.119 304.277,157.604 307.401,147.988 307.401 L 143.201 307.401 143.201 297.418 L 143.201 287.435 147.246 287.448 C 149.471 287.454,152.143 287.665,153.184 287.915 " stroke="none" fill="#0b7fb0" fill-rule="evenodd"></path><path id="path1" d="M0.000 172.117 L 0.000 344.234 200.000 344.234 L 400.000 344.234 400.000 172.117 L 400.000 0.000 200.000 0.000 L 0.000 0.000 0.000 172.117 M194.408 48.002 C 194.456 65.977,194.374 80.807,194.225 80.956 C 194.076 81.105,193.650 80.649,193.280 79.942 C 192.909 79.236,192.527 78.580,192.430 78.485 C 192.334 78.391,190.572 74.983,188.516 70.912 C 186.460 66.842,182.912 59.871,180.632 55.422 C 172.401 39.362,173.146 41.439,174.214 37.522 C 174.602 36.102,175.282 33.546,175.727 31.842 C 176.172 30.138,177.108 26.575,177.808 23.924 C 178.508 21.274,179.184 18.646,179.311 18.085 C 179.515 17.181,179.755 17.018,181.423 16.647 C 184.822 15.891,190.151 15.212,192.255 15.265 L 194.320 15.318 194.408 48.002 M215.102 15.657 C 222.005 16.620,228.119 17.772,231.583 18.761 C 240.114 21.197,239.747 20.797,237.221 24.902 C 236.503 26.068,235.289 28.107,234.523 29.432 C 233.757 30.757,232.224 33.391,231.117 35.284 C 230.009 37.177,228.935 39.036,228.730 39.415 C 228.525 39.793,226.099 43.976,223.340 48.709 C 220.581 53.442,217.957 57.954,217.509 58.735 C 212.275 67.863,205.319 79.518,205.105 79.518 C 204.857 79.518,204.508 15.999,204.754 15.404 C 204.934 14.966,211.252 15.120,215.102 15.657 M173.978 18.536 C 174.135 18.790,173.766 20.465,172.452 25.473 C 171.641 28.561,170.979 30.877,170.701 31.600 C 170.533 32.035,170.396 32.693,170.396 33.063 C 170.396 34.994,169.638 33.948,166.301 27.405 C 162.798 20.537,162.699 21.041,167.814 19.692 C 168.571 19.492,169.966 19.094,170.912 18.808 C 172.915 18.202,173.727 18.130,173.978 18.536 M158.572 23.327 C 158.790 23.466,160.629 26.833,162.659 30.809 C 164.688 34.785,166.717 38.702,167.167 39.513 C 168.301 41.555,168.340 41.247,165.731 50.775 C 165.420 51.910,165.047 53.382,164.901 54.045 C 164.756 54.707,164.216 56.799,163.702 58.692 C 162.473 63.219,161.082 68.480,160.857 69.449 C 160.503 70.973,159.233 68.844,158.502 65.505 C 158.386 64.976,158.167 64.157,158.015 63.683 C 157.863 63.210,157.550 62.126,157.319 61.274 C 157.088 60.422,156.703 59.105,156.463 58.348 C 156.223 57.590,155.859 56.351,155.654 55.594 C 155.208 53.948,153.578 48.374,153.187 47.160 C 153.035 46.687,152.648 45.370,152.328 44.234 C 151.627 41.749,150.624 38.322,149.507 34.596 C 147.466 27.784,147.466 27.836,149.484 26.805 C 151.102 25.978,157.731 23.075,158.003 23.075 C 158.098 23.074,158.354 23.188,158.572 23.327 M243.537 25.387 C 243.776 25.996,243.897 31.480,244.228 56.843 L 244.411 70.828 239.503 74.982 C 235.028 78.771,221.348 90.244,212.421 97.695 C 210.449 99.342,208.077 101.350,207.151 102.159 C 204.842 104.176,204.819 104.122,204.819 96.679 L 204.819 90.129 206.093 87.836 C 206.793 86.574,207.878 84.736,208.503 83.751 C 209.127 82.767,209.639 81.868,209.639 81.756 C 209.639 81.643,210.181 80.703,210.843 79.667 C 211.506 78.631,212.048 77.706,212.048 77.611 C 212.048 77.517,212.444 76.812,212.927 76.046 C 213.411 75.281,214.086 74.161,214.428 73.558 C 214.770 72.955,216.177 70.525,217.556 68.158 C 221.506 61.375,222.400 59.831,223.335 58.176 C 224.402 56.287,224.048 56.897,230.981 45.032 C 234.105 39.686,236.711 35.112,236.772 34.868 C 236.833 34.623,237.027 34.423,237.203 34.423 C 237.378 34.423,237.522 34.281,237.522 34.107 C 237.522 33.933,238.451 32.217,239.587 30.293 C 240.723 28.368,241.652 26.724,241.652 26.638 C 241.652 25.529,243.191 24.508,243.537 25.387 M252.951 26.667 C 256.532 28.410,256.658 28.675,255.569 32.186 C 254.992 34.046,253.498 39.596,252.975 41.824 C 252.797 42.582,252.518 43.589,252.355 44.062 C 252.028 45.014,251.622 46.507,250.738 50.014 C 250.414 51.299,250.018 52.431,249.859 52.530 C 249.700 52.628,249.570 53.118,249.570 53.618 C 249.570 54.157,249.447 54.394,249.268 54.200 C 249.102 54.020,248.861 47.405,248.733 39.501 C 248.461 22.784,247.981 24.248,252.951 26.667 M262.412 31.794 C 263.206 32.241,265.032 33.389,266.471 34.346 L 269.086 36.086 269.308 38.439 C 269.430 39.733,269.531 42.826,269.533 45.313 L 269.535 49.834 266.867 52.096 C 257.709 59.862,251.811 64.716,251.533 64.716 C 251.201 64.716,251.330 63.692,251.923 61.618 C 252.399 59.952,254.036 53.788,254.391 52.324 C 254.552 51.661,255.095 49.647,255.597 47.849 C 256.100 46.050,256.894 43.107,257.362 41.308 C 257.830 39.509,258.370 37.496,258.561 36.833 C 258.753 36.170,259.035 35.086,259.188 34.423 C 259.341 33.761,259.563 32.948,259.681 32.616 C 259.800 32.285,259.969 31.781,260.058 31.497 C 260.279 30.790,260.730 30.846,262.412 31.794 M141.987 33.821 C 142.326 35.004,142.873 36.824,143.203 37.866 C 143.905 40.082,145.311 44.672,146.260 47.849 C 146.628 49.079,147.418 51.713,148.015 53.701 C 148.612 55.688,149.421 58.399,149.813 59.725 C 150.205 61.050,150.900 63.296,151.357 64.716 C 151.815 66.136,152.314 67.762,152.468 68.330 C 152.621 68.898,152.948 70.022,153.193 70.828 C 153.439 71.633,153.544 72.388,153.428 72.505 C 153.259 72.674,146.365 68.058,137.177 61.625 C 136.609 61.228,132.363 58.289,127.742 55.095 C 123.121 51.901,119.208 49.053,119.047 48.765 C 118.330 47.484,138.444 31.670,140.791 31.670 C 141.207 31.670,141.545 32.277,141.987 33.821 M276.271 41.521 C 277.775 42.668,277.755 43.015,276.109 44.338 C 274.534 45.604,274.355 45.414,274.355 42.485 C 274.355 40.357,274.590 40.239,276.271 41.521 M286.392 50.861 C 291.069 55.526,292.697 57.694,292.208 58.608 C 291.562 59.814,276.771 81.008,276.081 81.716 C 275.410 82.403,274.956 80.473,275.119 77.625 C 275.151 77.057,275.051 71.635,274.896 65.577 L 274.615 54.561 276.484 52.840 C 282.846 46.982,282.561 47.039,286.392 50.861 M175.943 56.713 C 181.885 68.430,189.454 83.237,192.125 88.369 L 194.492 92.917 194.492 96.696 C 194.492 98.775,194.371 100.551,194.222 100.643 C 193.921 100.829,191.289 99.098,181.411 92.220 C 174.373 87.319,172.113 85.759,167.298 82.479 C 164.315 80.448,163.051 79.296,163.322 78.857 C 163.406 78.722,164.035 76.453,164.722 73.815 C 165.408 71.177,166.358 67.547,166.833 65.749 C 167.308 63.950,167.824 61.936,167.980 61.274 C 168.136 60.611,168.529 59.139,168.854 58.003 C 169.178 56.867,169.566 55.396,169.715 54.733 C 170.575 50.904,171.268 48.881,171.721 48.881 C 171.859 48.881,173.759 52.405,175.943 56.713 M113.660 56.975 C 113.790 57.919,114.146 59.931,114.453 61.446 C 114.759 62.960,115.148 64.974,115.317 65.921 C 116.039 69.953,117.314 76.794,118.430 82.616 C 119.868 90.115,120.477 93.618,120.480 94.398 C 120.483 95.244,119.525 94.818,115.437 92.152 C 113.573 90.936,110.886 89.184,109.466 88.258 C 108.046 87.333,106.730 86.514,106.540 86.440 C 106.351 86.365,105.344 85.729,104.303 85.026 C 103.262 84.322,100.977 82.859,99.225 81.774 C 97.474 80.689,96.041 79.596,96.041 79.347 C 96.041 77.431,105.519 62.956,110.715 56.938 C 112.712 54.625,113.339 54.633,113.660 56.975 M137.047 76.102 C 146.585 85.772,156.199 95.475,158.412 97.664 C 160.624 99.854,162.588 102.049,162.776 102.544 C 163.094 103.381,163.580 104.944,165.570 111.532 C 165.999 112.952,166.541 114.733,166.774 115.491 C 167.008 116.248,167.376 117.487,167.593 118.244 C 167.811 119.002,168.375 120.842,168.848 122.333 C 170.332 127.016,170.211 127.107,166.078 124.441 C 164.464 123.399,163.071 122.547,162.984 122.547 C 162.896 122.547,162.088 122.044,161.188 121.429 C 160.289 120.813,159.292 120.155,158.973 119.966 C 158.654 119.776,154.394 117.052,149.506 113.911 C 144.619 110.770,137.435 106.165,133.542 103.678 L 126.464 99.156 126.034 96.824 C 125.797 95.542,125.469 93.795,125.303 92.943 C 124.109 86.790,123.154 81.767,122.391 77.625 C 121.017 70.170,120.117 65.448,119.588 62.927 C 119.039 60.305,118.964 58.520,119.405 58.520 C 119.571 58.520,127.510 66.432,137.047 76.102 M269.697 59.536 C 269.808 59.716,269.958 62.078,270.029 64.785 C 270.100 67.492,270.274 73.455,270.415 78.035 L 270.672 86.362 268.813 87.211 C 267.790 87.677,265.017 88.783,262.651 89.668 C 260.284 90.553,258.038 91.421,257.659 91.597 C 254.185 93.213,252.415 93.385,252.179 92.131 C 251.708 89.636,251.193 87.079,250.922 85.886 C 249.772 80.819,249.570 79.585,249.570 77.639 L 249.570 75.458 251.721 73.572 C 253.727 71.813,256.821 69.194,260.756 65.921 C 261.667 65.164,263.821 63.355,265.543 61.901 C 268.650 59.279,269.307 58.905,269.697 59.536 M296.650 62.988 C 296.999 63.364,298.187 65.029,299.288 66.689 C 300.390 68.349,301.736 70.370,302.281 71.180 C 303.699 73.292,303.589 73.751,301.456 74.635 C 300.459 75.049,299.528 75.387,299.387 75.387 C 299.247 75.387,298.475 75.679,297.673 76.036 C 296.277 76.657,294.103 77.518,289.415 79.306 C 288.231 79.757,286.429 80.455,285.410 80.855 C 281.615 82.347,281.614 82.351,286.438 75.387 C 295.903 61.720,295.467 62.331,295.770 62.317 C 295.904 62.311,296.300 62.613,296.650 62.988 M144.854 74.096 C 148.191 76.416,151.085 78.391,151.286 78.485 C 153.660 79.604,156.836 82.632,157.272 84.193 C 157.533 85.124,158.049 86.851,158.418 88.029 C 159.719 92.178,159.436 91.978,148.905 81.317 C 135.518 67.764,135.373 67.506,144.854 74.096 M306.724 79.195 C 307.046 79.796,300.061 84.915,296.730 86.520 C 296.446 86.657,291.799 89.615,286.403 93.093 C 275.024 100.429,275.731 100.311,275.731 94.871 C 275.731 89.687,275.676 89.755,281.928 87.338 C 286.167 85.699,290.707 83.935,291.394 83.660 C 293.358 82.875,296.881 81.519,299.484 80.548 C 301.093 79.947,302.874 79.248,303.442 78.994 C 305.514 78.068,306.141 78.106,306.724 79.195 M241.552 83.907 C 241.456 84.617,241.224 85.740,241.036 86.403 C 239.891 90.432,237.339 99.850,236.838 101.893 C 236.503 103.265,234.859 109.460,234.419 111.015 C 234.258 111.583,233.739 113.520,233.265 115.318 C 232.792 117.117,232.149 119.518,231.838 120.654 C 230.666 124.924,229.870 127.908,229.697 128.674 C 229.530 129.410,222.287 134.596,221.426 134.596 C 221.249 134.596,220.825 134.905,220.482 135.284 C 220.139 135.663,219.718 135.972,219.545 135.972 C 219.372 135.972,218.723 136.360,218.103 136.833 C 217.482 137.306,216.880 137.694,216.765 137.694 C 216.650 137.694,215.581 138.352,214.388 139.157 C 213.196 139.961,211.910 140.806,211.532 141.035 C 211.153 141.263,209.746 142.149,208.405 143.003 C 207.063 143.857,205.708 144.655,205.393 144.776 C 204.863 144.980,204.819 143.781,204.819 128.961 L 204.819 112.925 205.938 111.929 C 208.681 109.487,211.230 107.331,213.941 105.163 C 214.887 104.406,216.281 103.218,217.039 102.524 C 217.797 101.829,218.881 100.901,219.449 100.460 C 220.017 100.019,222.031 98.363,223.924 96.779 C 225.818 95.196,228.975 92.562,230.942 90.926 C 232.908 89.290,235.928 86.752,237.654 85.286 C 241.260 82.222,241.803 82.030,241.552 83.907 M96.992 85.813 C 121.418 101.224,122.091 101.714,122.558 104.427 C 123.154 107.893,123.525 109.903,124.441 114.630 C 125.351 119.330,125.723 121.346,126.317 124.789 C 126.496 125.833,126.972 128.248,127.374 130.156 C 128.429 135.167,128.198 135.251,124.782 131.098 C 123.173 129.140,121.275 126.850,120.566 126.007 C 119.450 124.681,116.327 120.872,109.019 111.920 C 108.035 110.714,105.525 107.689,103.442 105.197 C 101.360 102.706,98.420 99.123,96.909 97.236 C 95.399 95.348,93.873 93.494,93.518 93.115 C 90.943 90.366,90.887 90.073,92.313 86.747 C 93.742 83.415,93.323 83.499,96.992 85.813 M309.958 85.767 C 310.255 86.364,310.499 86.979,310.499 87.134 C 310.499 87.289,310.873 88.233,311.330 89.232 C 312.982 92.846,316.695 104.916,316.695 106.673 C 316.695 107.310,316.682 107.316,309.466 110.157 C 303.885 112.354,303.534 112.496,301.497 113.390 C 300.806 113.693,300.146 113.941,300.030 113.941 C 299.915 113.941,299.164 114.237,298.361 114.598 C 293.199 116.923,277.070 123.081,276.717 122.862 C 275.914 122.366,275.839 105.638,276.637 104.964 C 276.991 104.664,283.202 100.637,290.439 96.013 C 310.880 82.955,309.037 83.923,309.958 85.767 M246.486 88.207 C 246.716 89.555,248.202 96.747,248.922 100.000 C 249.090 100.757,249.374 102.151,249.554 103.098 C 249.734 104.045,250.126 105.904,250.424 107.229 C 251.226 110.791,251.705 113.317,251.759 114.274 C 251.798 114.966,245.141 120.138,244.211 120.138 C 244.165 120.138,242.215 121.362,239.878 122.858 C 234.429 126.345,234.514 126.414,236.282 119.966 C 236.749 118.262,237.444 115.706,237.825 114.286 C 238.206 112.866,238.759 110.813,239.053 109.725 C 239.907 106.558,240.579 104.058,241.713 99.828 C 242.297 97.651,243.155 94.475,243.621 92.771 C 244.086 91.067,244.617 89.057,244.800 88.305 C 245.370 85.961,246.095 85.919,246.486 88.207 M177.581 96.693 C 182.953 100.405,188.917 104.527,190.834 105.853 L 194.320 108.265 194.412 117.362 C 194.463 122.366,194.379 126.585,194.227 126.737 C 193.856 127.108,169.460 102.191,168.991 100.963 C 168.789 100.433,168.411 99.225,168.151 98.279 C 167.892 97.332,167.217 94.937,166.652 92.957 C 166.088 90.976,165.706 89.225,165.805 89.065 C 166.029 88.703,165.826 88.571,177.581 96.693 M267.901 93.144 C 268.097 93.341,266.050 96.484,260.744 104.131 C 259.299 106.213,257.781 108.419,257.372 109.032 C 256.233 110.735,256.194 110.671,254.948 104.991 C 254.678 103.761,254.264 101.869,254.027 100.787 C 253.585 98.770,253.864 97.761,254.861 97.763 C 255.202 97.764,256.120 97.417,260.757 95.530 C 261.325 95.299,262.719 94.765,263.855 94.343 C 264.991 93.922,266.153 93.444,266.437 93.280 C 267.058 92.924,267.627 92.871,267.901 93.144 M271.112 100.371 C 271.436 102.098,270.885 103.047,268.778 104.388 C 266.399 105.902,265.749 106.140,265.749 105.497 C 265.749 105.219,265.904 104.991,266.093 104.991 C 266.282 104.991,266.437 104.852,266.437 104.683 C 266.437 104.086,270.014 99.139,270.445 99.139 C 270.685 99.139,270.985 99.693,271.112 100.371 M89.054 101.928 C 89.538 102.573,93.645 107.450,94.967 108.950 C 95.467 109.518,96.495 110.757,97.250 111.703 C 98.005 112.650,99.191 114.044,99.886 114.801 C 100.580 115.559,101.504 116.644,101.939 117.212 C 102.374 117.780,102.822 118.322,102.935 118.417 C 103.211 118.649,109.807 126.533,110.671 127.664 C 111.050 128.160,111.592 128.804,111.876 129.096 C 112.160 129.388,113.012 130.382,113.769 131.304 C 114.527 132.227,116.153 134.162,117.384 135.605 C 118.614 137.048,120.241 138.993,120.998 139.926 C 121.756 140.859,122.923 142.249,123.592 143.015 C 124.889 144.498,129.430 149.888,130.729 151.487 C 132.214 153.314,132.424 156.767,131.031 156.458 C 128.938 155.993,115.692 152.752,114.802 152.486 C 113.066 151.968,107.662 150.612,103.959 149.766 C 103.107 149.571,100.783 149.010,98.795 148.519 C 93.973 147.328,93.387 147.185,88.985 146.128 C 83.569 144.827,83.534 144.804,83.196 142.337 C 82.819 139.590,83.164 121.592,83.648 118.761 C 83.859 117.530,84.190 115.439,84.384 114.114 C 84.796 111.301,86.191 104.927,86.967 102.311 C 87.535 100.399,87.861 100.339,89.054 101.928 M138.191 112.119 C 143.124 115.265,147.780 118.259,148.537 118.771 C 149.294 119.284,151.618 120.768,153.701 122.071 C 156.960 124.109,160.676 126.491,162.478 127.697 C 164.874 129.300,165.632 129.776,165.788 129.776 C 165.888 129.776,166.946 130.473,168.140 131.325 C 169.334 132.177,170.456 132.874,170.633 132.874 C 171.187 132.874,172.711 134.726,172.899 135.628 C 172.998 136.102,173.500 137.863,174.015 139.542 C 174.911 142.465,174.835 143.645,173.791 143.000 C 173.652 142.914,172.483 142.703,171.192 142.532 C 168.591 142.185,161.192 140.974,158.520 140.457 C 157.573 140.274,155.714 139.953,154.389 139.745 C 153.064 139.536,150.818 139.157,149.398 138.901 C 145.802 138.255,143.116 137.803,140.103 137.338 C 135.432 136.618,133.964 136.284,133.617 135.866 C 133.185 135.345,133.280 135.812,129.943 117.900 C 129.272 114.303,128.573 110.710,128.389 109.916 C 127.246 104.983,126.870 104.898,138.191 112.119 M271.312 116.723 C 271.586 126.052,271.793 125.263,268.760 126.447 C 267.388 126.982,265.955 127.552,265.577 127.712 C 260.011 130.071,260.148 130.087,259.578 127.022 C 259.121 124.564,258.812 123.128,258.038 119.860 C 257.755 118.666,257.596 117.505,257.684 117.279 C 257.898 116.730,270.300 108.775,270.740 108.905 C 270.947 108.966,271.175 112.076,271.312 116.723 M318.013 112.823 C 318.446 113.666,318.823 118.335,318.470 118.474 C 318.310 118.537,317.497 119.167,316.663 119.873 C 315.080 121.213,309.982 125.362,305.852 128.670 C 304.527 129.731,303.365 130.694,303.270 130.809 C 303.176 130.924,302.478 131.472,301.721 132.027 C 300.615 132.838,296.173 136.424,294.074 138.200 C 293.844 138.395,293.457 138.711,293.213 138.902 C 292.970 139.093,291.145 140.564,289.157 142.169 C 280.426 149.221,277.956 151.115,277.629 151.007 C 277.192 150.863,276.872 144.822,276.811 135.582 C 276.757 127.438,276.467 128.159,280.379 126.705 C 281.515 126.283,282.909 125.735,283.477 125.486 C 284.045 125.238,285.594 124.610,286.919 124.090 C 288.244 123.570,289.829 122.927,290.440 122.661 C 291.052 122.395,292.178 121.957,292.943 121.687 C 293.708 121.417,294.835 120.975,295.446 120.705 C 296.057 120.435,298.571 119.414,301.033 118.436 C 303.494 117.459,305.895 116.491,306.368 116.287 C 306.842 116.082,307.539 115.796,307.917 115.650 C 311.270 114.361,313.645 113.406,314.802 112.880 C 316.562 112.081,317.623 112.062,318.013 112.823 M183.927 123.580 L 194.492 134.252 194.492 138.210 C 194.492 142.971,194.691 142.891,190.202 139.931 C 188.336 138.701,186.743 137.694,186.662 137.694 C 186.581 137.694,185.870 137.258,185.082 136.726 C 181.196 134.102,179.273 132.874,179.051 132.874 C 178.634 132.874,177.763 131.077,177.132 128.916 C 176.801 127.780,176.214 125.766,175.827 124.441 C 175.440 123.115,174.909 121.358,174.646 120.535 C 173.159 115.880,172.550 112.909,173.084 112.909 C 173.237 112.909,178.116 117.711,183.927 123.580 M254.393 125.942 C 254.395 126.441,254.626 127.702,254.905 128.744 C 255.625 131.423,255.576 131.645,254.131 132.250 C 247.350 135.089,245.439 135.722,245.439 135.127 C 245.439 134.988,251.249 126.299,252.636 124.365 L 253.184 123.601 253.787 124.317 C 254.118 124.711,254.391 125.442,254.393 125.942 M245.812 125.559 C 245.625 125.891,244.497 127.576,243.304 129.305 C 242.112 131.034,240.077 134.000,238.782 135.896 L 236.427 139.342 233.274 140.612 C 231.540 141.310,229.811 142.003,229.432 142.151 C 229.053 142.300,228.356 142.589,227.883 142.794 C 227.410 143.000,225.009 143.961,222.547 144.930 C 217.942 146.743,217.079 147.090,215.749 147.669 C 212.508 149.079,205.312 151.727,205.092 151.591 C 204.373 151.146,205.814 150.109,217.225 142.857 C 217.970 142.384,219.916 141.145,221.550 140.103 C 223.185 139.062,224.796 138.049,225.131 137.853 C 225.466 137.657,226.339 137.103,227.070 136.622 C 230.909 134.098,232.564 133.030,232.876 132.874 C 233.066 132.780,234.811 131.657,236.753 130.379 C 238.696 129.101,240.425 128.055,240.596 128.055 C 240.767 128.055,240.958 127.926,241.021 127.769 C 241.177 127.381,245.154 125.018,245.709 124.984 C 246.032 124.964,246.059 125.120,245.812 125.559 M319.683 136.231 C 319.438 146.130,319.454 146.051,317.609 146.825 C 316.823 147.155,315.362 147.791,314.362 148.239 C 313.363 148.687,312.393 149.053,312.206 149.053 C 312.020 149.053,311.598 149.190,311.269 149.357 C 310.643 149.676,310.351 149.801,306.713 151.310 C 305.482 151.821,303.658 152.606,302.658 153.055 C 301.659 153.505,300.689 153.873,300.502 153.873 C 300.316 153.873,299.894 154.009,299.565 154.177 C 299.236 154.344,298.580 154.632,298.107 154.818 C 297.228 155.162,294.135 156.470,291.832 157.471 C 291.126 157.778,289.922 158.250,289.157 158.520 C 288.391 158.790,287.265 159.230,286.654 159.499 C 286.042 159.767,284.690 160.331,283.649 160.752 C 282.608 161.173,281.291 161.714,280.723 161.955 C 276.512 163.741,275.387 164.133,275.225 163.871 C 275.077 163.631,287.668 153.115,291.511 150.268 C 292.015 149.894,294.225 148.113,296.423 146.309 C 298.620 144.505,301.016 142.565,301.745 141.997 C 302.475 141.429,303.930 140.260,304.979 139.399 C 314.450 131.623,319.040 128.055,319.572 128.055 C 319.757 128.055,319.802 131.398,319.683 136.231 M272.062 143.151 C 272.337 155.059,272.320 155.685,271.717 156.235 C 270.207 157.611,266.795 160.023,266.675 159.798 C 266.399 159.282,264.715 151.897,264.029 148.193 C 263.888 147.435,263.356 144.880,262.846 142.513 C 261.012 134.000,260.966 134.497,263.683 133.411 C 264.535 133.071,265.542 132.654,265.921 132.486 C 268.337 131.411,270.815 130.527,271.256 130.581 C 271.699 130.636,271.814 132.438,272.062 143.151 M256.909 137.952 C 257.020 138.662,257.356 140.327,257.655 141.652 C 258.361 144.771,258.874 147.164,259.204 148.881 C 259.653 151.218,260.955 157.422,261.263 158.692 C 262.639 164.366,263.309 163.047,256.112 168.836 C 252.891 171.426,250.063 173.727,249.827 173.950 C 249.591 174.172,248.778 174.811,248.021 175.369 C 247.263 175.927,246.566 176.474,246.472 176.583 C 246.377 176.693,244.673 178.093,242.685 179.694 C 240.697 181.295,237.754 183.669,236.145 184.970 C 234.535 186.272,231.360 188.822,229.088 190.638 C 226.816 192.453,224.880 194.033,224.785 194.148 C 224.690 194.262,223.993 194.812,223.236 195.369 C 222.478 195.926,221.781 196.470,221.687 196.579 C 221.592 196.687,219.423 198.457,216.867 200.512 C 214.312 202.567,211.739 204.648,211.151 205.137 C 210.562 205.625,209.783 206.256,209.419 206.540 C 209.056 206.824,208.039 207.638,207.161 208.348 C 204.738 210.306,204.819 210.539,204.819 201.684 L 204.819 193.730 207.136 190.411 C 208.410 188.585,210.346 185.775,211.439 184.165 C 212.531 182.556,213.696 180.852,214.027 180.379 C 217.649 175.200,228.500 159.497,231.146 155.607 C 233.008 152.870,234.664 150.469,234.825 150.272 C 234.986 150.075,236.240 148.309,237.611 146.348 C 240.018 142.903,242.892 140.792,245.175 140.792 C 245.324 140.792,246.103 140.497,246.906 140.136 C 255.090 136.459,256.624 136.123,256.909 137.952 M185.040 142.163 C 190.555 145.606,190.752 145.955,186.768 145.233 C 181.441 144.267,181.469 144.287,180.751 141.092 C 180.348 139.296,180.514 139.338,185.040 142.163 M142.169 143.724 C 144.914 144.178,148.012 144.701,149.053 144.887 C 152.479 145.500,152.961 145.580,158.520 146.465 C 161.549 146.947,164.802 147.490,165.749 147.671 C 166.695 147.853,169.019 148.247,170.912 148.547 C 176.391 149.414,177.027 149.676,177.570 151.291 C 178.231 153.258,179.705 157.992,180.034 159.208 C 180.188 159.776,180.778 161.790,181.344 163.683 C 183.228 169.979,183.559 169.648,177.059 167.956 C 174.814 167.372,172.358 166.759,171.601 166.593 C 170.843 166.428,168.675 165.887,166.781 165.391 C 164.888 164.896,162.719 164.351,161.962 164.180 C 160.706 163.897,157.021 162.999,151.641 161.665 C 149.435 161.118,149.115 160.842,145.370 156.243 C 144.386 155.034,141.564 151.582,139.099 148.572 C 134.555 143.023,134.169 142.263,136.100 142.671 C 136.693 142.797,139.423 143.270,142.169 143.724 M230.597 147.418 C 230.280 148.019,224.592 156.356,220.647 162.002 C 220.367 162.403,218.851 164.626,217.279 166.942 C 215.706 169.259,214.270 171.332,214.087 171.549 C 213.904 171.767,212.529 173.726,211.032 175.904 C 205.982 183.250,205.348 184.107,205.083 183.943 C 204.938 183.854,204.819 177.774,204.819 170.434 L 204.819 157.087 205.594 156.708 C 206.861 156.088,208.286 155.502,214.974 152.854 C 217.435 151.880,219.836 150.915,220.310 150.710 C 220.783 150.506,221.480 150.221,221.859 150.078 C 223.098 149.609,229.071 147.269,229.776 146.976 C 230.882 146.517,231.030 146.596,230.597 147.418 M189.157 151.625 C 191.050 151.941,192.986 152.308,193.460 152.442 L 194.320 152.684 194.412 162.120 C 194.515 172.708,194.597 172.374,192.026 171.751 C 189.552 171.152,189.492 171.075,188.288 166.947 C 187.709 164.963,186.870 162.100,186.425 160.585 C 184.469 153.941,184.202 152.974,184.146 152.324 C 184.024 150.926,184.150 150.696,184.940 150.875 C 185.366 150.972,187.263 151.309,189.157 151.625 M96.730 153.859 C 102.694 155.365,107.883 156.674,108.262 156.769 C 108.640 156.863,110.654 157.338,112.737 157.825 C 116.406 158.682,118.466 159.196,124.613 160.790 C 126.222 161.207,128.081 161.668,128.744 161.815 C 135.440 163.297,137.892 164.178,137.160 164.839 C 136.302 165.615,131.494 169.675,130.119 170.785 C 129.268 171.473,128.175 172.402,127.690 172.851 C 127.206 173.299,126.044 174.280,125.109 175.031 C 124.173 175.782,123.330 176.488,123.236 176.599 C 122.471 177.498,115.554 183.133,115.216 183.133 C 114.977 183.133,113.038 182.281,110.905 181.239 C 108.773 180.198,106.963 179.346,106.883 179.346 C 106.804 179.346,104.061 178.049,100.788 176.464 C 97.515 174.878,93.501 172.950,91.869 172.179 C 89.768 171.185,88.827 170.545,88.644 169.983 C 87.609 166.803,87.445 166.199,85.209 157.315 C 83.394 150.100,82.687 150.312,96.730 153.859 M318.184 152.322 C 318.246 152.653,314.714 155.197,314.146 155.231 C 313.975 155.241,313.327 155.637,312.706 156.110 C 312.086 156.583,311.493 156.971,311.389 156.971 C 311.286 156.971,310.373 157.500,309.361 158.148 C 308.349 158.795,306.991 159.628,306.342 159.998 C 305.694 160.369,302.685 162.182,299.656 164.027 C 296.627 165.872,292.599 168.315,290.706 169.455 C 288.812 170.596,286.852 171.816,286.350 172.167 C 285.111 173.032,284.721 172.984,282.391 171.675 C 281.284 171.053,279.819 170.281,279.135 169.960 C 276.239 168.600,276.005 168.789,285.198 165.068 C 291.213 162.633,297.138 160.182,299.050 159.337 C 299.852 158.982,300.603 158.692,300.719 158.692 C 300.834 158.692,301.494 158.444,302.185 158.140 C 302.877 157.837,303.752 157.471,304.131 157.327 C 304.509 157.183,305.826 156.636,307.057 156.110 C 308.287 155.585,309.643 155.021,310.069 154.858 C 311.548 154.291,313.485 153.499,315.663 152.569 C 317.511 151.780,318.074 151.725,318.184 152.322 M316.419 160.940 C 316.767 161.288,313.530 172.195,311.850 176.335 C 311.447 177.328,310.998 178.451,310.852 178.830 C 310.234 180.442,308.621 183.693,308.180 184.216 C 307.744 184.734,307.413 184.634,304.368 183.064 C 290.649 175.992,290.779 176.075,291.978 175.152 C 292.414 174.817,292.911 174.539,293.083 174.534 C 293.254 174.530,293.902 174.139,294.523 173.666 C 295.143 173.193,295.736 172.806,295.840 172.806 C 295.943 172.806,296.856 172.276,297.868 171.629 C 298.880 170.981,300.238 170.149,300.886 169.779 C 301.988 169.151,306.050 166.694,312.880 162.526 C 315.809 160.737,316.090 160.611,316.419 160.940 M143.956 167.242 C 144.204 167.590,145.202 168.790,146.174 169.910 C 148.629 172.737,154.846 180.125,156.195 181.819 C 156.809 182.590,158.152 184.170,159.180 185.329 C 160.207 186.487,161.403 187.900,161.837 188.468 C 162.272 189.036,162.711 189.578,162.815 189.673 C 163.019 189.861,170.955 199.315,172.645 201.384 C 173.219 202.087,174.400 203.496,175.268 204.515 C 176.136 205.535,177.817 207.508,179.005 208.902 C 185.790 216.863,185.888 217.173,180.832 214.685 C 177.009 212.803,172.491 210.636,168.503 208.770 C 164.969 207.117,160.183 204.836,152.496 201.138 C 143.175 196.656,141.060 195.641,136.833 193.625 C 134.561 192.542,130.843 190.765,128.571 189.677 C 126.299 188.589,123.730 187.376,122.862 186.981 C 119.720 185.555,118.492 186.971,135.109 172.853 C 138.770 169.743,140.063 168.630,140.582 168.144 C 142.246 166.584,143.290 166.305,143.956 167.242 M160.585 169.670 C 161.343 169.852,165.060 170.798,168.847 171.773 C 177.074 173.892,178.074 174.139,179.862 174.493 C 183.936 175.301,185.542 176.098,185.542 177.313 C 185.542 177.651,185.907 178.983,186.353 180.272 C 186.799 181.561,187.339 183.236,187.554 183.993 C 188.242 186.424,189.044 189.102,189.719 191.222 C 190.081 192.358,190.516 193.752,190.686 194.320 C 191.263 196.241,193.497 203.604,193.996 205.228 C 194.548 207.025,194.702 215.146,194.184 215.146 C 193.820 215.146,192.034 213.107,188.171 208.281 C 187.577 207.539,186.472 206.187,185.714 205.276 C 182.372 201.254,180.815 199.359,179.690 197.942 C 179.028 197.107,177.556 195.313,176.420 193.956 C 175.284 192.598,173.115 189.977,171.601 188.131 C 170.086 186.285,168.687 184.599,168.491 184.384 C 168.295 184.169,166.444 181.902,164.378 179.346 C 162.311 176.790,160.535 174.621,160.429 174.527 C 159.910 174.059,156.282 169.369,156.282 169.165 C 156.282 168.905,158.450 169.159,160.585 169.670 M273.896 172.691 C 275.189 173.386,276.979 174.314,277.874 174.753 C 279.885 175.741,279.776 176.231,277.213 177.734 C 276.185 178.336,275.079 178.985,274.756 179.174 C 272.767 180.339,270.439 181.752,266.246 184.337 C 262.564 186.608,262.412 186.701,256.529 190.236 L 252.442 192.692 246.961 193.087 C 243.946 193.305,241.058 193.566,240.541 193.669 C 237.262 194.319,237.842 193.569,245.167 187.689 C 246.627 186.517,248.099 185.325,248.437 185.040 C 248.776 184.755,250.460 183.396,252.180 182.020 C 253.899 180.644,256.512 178.534,257.986 177.331 C 260.083 175.620,261.613 174.745,265.015 173.312 C 270.257 171.103,270.859 171.061,273.896 172.691 M193.609 177.960 C 194.482 178.292,194.492 178.338,194.492 182.034 C 194.492 186.678,194.233 186.984,193.187 183.575 C 191.357 177.613,191.394 177.118,193.609 177.960 M291.910 182.043 C 294.656 183.466,298.257 185.333,299.914 186.192 C 304.350 188.493,304.100 188.810,297.590 189.134 C 295.508 189.238,292.100 189.469,290.017 189.647 C 262.435 192.006,263.268 192.123,272.289 187.160 C 272.762 186.900,275.628 185.167,278.657 183.310 C 285.556 179.079,285.681 179.014,286.360 179.256 C 286.667 179.366,289.165 180.621,291.910 182.043 M98.332 181.793 C 111.198 187.953,110.321 187.328,108.511 189.046 C 106.620 190.842,100.877 195.525,100.567 195.525 C 100.419 195.525,99.925 194.867,99.467 194.062 C 99.010 193.257,98.282 191.979,97.851 191.222 C 96.724 189.244,92.729 181.037,92.447 180.120 C 92.079 178.925,92.727 179.109,98.332 181.793 M117.661 191.023 C 118.739 191.575,121.093 192.724,122.892 193.574 C 124.690 194.425,128.485 196.238,131.325 197.603 C 134.165 198.968,137.960 200.780,139.759 201.630 C 143.512 203.404,148.125 205.601,154.045 208.436 C 156.317 209.524,159.725 211.152,161.618 212.054 C 163.511 212.956,167.355 214.796,170.161 216.142 C 172.966 217.487,175.382 218.589,175.529 218.589 C 176.996 218.589,176.812 219.904,175.317 220.105 C 174.409 220.228,172.659 220.473,171.429 220.649 C 170.198 220.826,167.565 221.146,165.577 221.362 C 163.589 221.577,160.568 221.957,158.864 222.207 C 155.610 222.683,151.095 223.266,148.193 223.583 C 144.797 223.955,141.242 224.409,137.349 224.967 C 130.156 226.000,127.983 226.121,127.022 225.541 C 122.758 222.968,112.095 211.921,105.902 203.661 C 103.047 199.852,103.050 199.948,105.712 197.762 C 106.959 196.738,113.323 191.315,114.092 190.620 C 114.992 189.808,115.377 189.851,117.661 191.023 M302.926 194.081 C 302.926 194.233,302.461 195.090,301.893 195.986 C 301.325 196.881,300.861 197.680,300.861 197.761 C 300.861 198.126,296.330 204.336,293.382 208.011 C 288.047 214.663,278.992 223.423,273.007 227.722 C 271.030 229.143,271.623 229.105,264.888 228.251 C 254.779 226.970,249.472 226.322,245.095 225.837 C 243.485 225.659,239.768 225.197,236.833 224.812 C 229.801 223.889,226.703 223.502,222.547 223.030 C 214.701 222.140,214.666 222.106,218.933 219.537 C 220.542 218.568,223.024 217.047,224.447 216.155 C 225.871 215.264,227.575 214.228,228.234 213.853 C 228.893 213.477,232.298 211.426,235.800 209.294 C 257.562 196.049,255.183 197.336,258.348 197.096 C 259.862 196.982,262.728 196.736,264.716 196.550 C 268.595 196.186,278.108 195.438,286.747 194.818 C 289.682 194.607,293.090 194.312,294.320 194.163 C 297.368 193.794,302.926 193.740,302.926 194.081 M241.640 199.086 C 241.363 199.341,239.432 200.586,237.349 201.854 C 235.267 203.122,233.330 204.302,233.046 204.477 C 232.762 204.652,230.129 206.247,227.194 208.022 C 224.260 209.797,218.247 213.443,213.832 216.124 C 209.417 218.805,205.649 220.998,205.459 220.998 C 204.335 220.998,206.053 219.268,211.704 214.710 C 215.207 211.885,220.303 207.768,223.028 205.561 C 231.696 198.544,230.870 199.068,233.369 199.011 C 234.583 198.984,235.653 198.885,235.746 198.792 C 235.839 198.699,237.317 198.623,239.030 198.623 C 241.659 198.623,242.066 198.695,241.640 199.086 M189.276 225.258 C 189.778 225.519,190.809 226.029,191.566 226.393 L 192.943 227.055 193.153 237.366 C 193.269 243.037,193.284 248.504,193.188 249.516 L 193.013 251.356 190.052 251.184 C 173.691 250.238,152.124 242.903,137.945 233.464 C 134.967 231.482,134.785 231.598,142.341 230.659 C 143.855 230.471,146.954 230.072,149.225 229.773 C 151.497 229.473,154.596 229.084,156.110 228.908 C 157.625 228.732,160.568 228.354,162.651 228.069 C 164.733 227.783,168.373 227.313,170.740 227.024 C 177.587 226.189,179.989 225.874,183.477 225.358 C 187.831 224.713,188.211 224.706,189.276 225.258 M211.360 226.509 C 214.880 226.921,218.397 227.352,223.924 228.049 C 228.635 228.644,237.594 229.743,242.169 230.287 C 243.873 230.490,246.274 230.799,247.504 230.973 C 248.735 231.148,251.833 231.535,254.389 231.834 C 261.318 232.645,264.372 233.138,264.372 233.448 C 264.372 233.724,261.825 235.456,261.420 235.456 C 261.303 235.456,260.795 235.750,260.291 236.109 C 257.920 237.798,248.150 242.403,243.029 244.247 C 241.609 244.758,240.138 245.307,239.759 245.468 C 239.031 245.776,234.049 247.310,232.014 247.853 C 229.482 248.528,223.134 249.874,220.826 250.225 C 219.501 250.426,217.410 250.743,216.179 250.930 C 214.948 251.116,211.889 251.374,209.380 251.503 L 204.819 251.738 204.819 240.036 C 204.819 229.323,204.870 228.288,205.422 227.788 C 206.011 227.255,207.919 226.166,208.262 226.167 C 208.356 226.167,209.750 226.321,211.360 226.509 M157.659 254.258 C 166.992 256.305,172.117 261.587,172.117 269.160 C 172.117 273.904,168.608 279.400,164.290 281.418 C 163.488 281.793,162.877 282.244,162.934 282.419 C 163.043 282.762,163.129 282.811,165.749 284.013 C 175.449 288.465,177.121 302.571,168.857 310.237 C 167.203 311.770,162.603 314.153,160.069 314.788 C 153.325 316.478,134.951 316.798,132.104 315.275 C 131.460 314.930,131.132 256.186,131.768 255.185 C 132.621 253.843,152.518 253.130,157.659 254.258 M254.906 254.359 C 272.597 257.743,281.435 270.812,278.647 289.463 C 275.650 309.506,260.447 318.241,232.463 315.998 C 230.039 315.804,227.707 315.568,227.281 315.475 L 226.506 315.305 226.506 285.055 L 226.506 254.804 229.346 254.429 C 230.908 254.222,232.651 253.997,233.219 253.928 C 237.150 253.454,251.684 253.743,254.906 254.359 M94.435 254.991 C 94.698 255.512,95.184 256.867,95.517 258.003 C 95.850 259.139,96.424 260.921,96.794 261.962 C 97.164 263.003,97.747 264.785,98.090 265.921 C 98.434 267.057,99.178 269.380,99.744 271.084 C 100.310 272.788,101.899 277.668,103.275 281.928 C 104.652 286.188,106.395 291.532,107.149 293.804 C 107.904 296.076,108.640 298.399,108.786 298.967 C 108.931 299.535,109.513 301.317,110.077 302.926 C 113.187 311.788,114.073 315.022,113.492 315.391 C 112.964 315.726,102.525 315.734,102.056 315.399 C 101.716 315.156,100.755 312.368,97.935 303.442 C 96.122 297.702,96.960 298.102,86.795 298.131 C 75.921 298.162,77.336 297.191,74.539 306.540 C 71.485 316.745,72.510 315.730,65.404 315.589 L 60.413 315.491 60.490 314.458 C 60.561 313.495,61.697 309.818,65.756 297.418 C 66.655 294.673,67.731 291.265,68.147 289.845 C 68.564 288.425,69.047 286.994,69.220 286.666 C 69.393 286.337,69.535 285.839,69.535 285.559 C 69.535 285.278,69.752 284.540,70.017 283.919 C 70.282 283.297,70.844 281.627,71.267 280.207 C 71.690 278.787,72.385 276.618,72.811 275.387 C 73.238 274.157,73.937 271.988,74.364 270.568 C 74.792 269.148,75.894 265.675,76.813 262.850 C 77.733 260.026,78.485 257.599,78.485 257.457 C 78.485 257.316,78.790 256.490,79.162 255.622 L 79.838 254.045 86.898 254.045 L 93.958 254.045 94.435 254.991 M204.610 254.589 C 205.158 256.015,204.831 315.240,204.275 315.454 C 203.215 315.860,193.964 315.685,193.528 315.250 C 193.091 314.812,192.902 256.427,193.332 254.819 C 193.606 253.797,204.223 253.580,204.610 254.589 M333.563 258.692 L 333.563 263.339 321.678 263.339 L 309.794 263.339 309.458 264.222 C 308.954 265.548,309.021 277.903,309.535 278.417 C 309.838 278.720,312.730 278.830,320.401 278.830 C 333.273 278.830,332.186 278.372,332.186 283.796 C 332.186 289.011,333.565 288.468,320.322 288.468 L 309.547 288.468 309.339 289.243 C 309.036 290.375,309.086 305.090,309.395 305.576 C 309.761 306.152,312.886 306.308,324.699 306.340 L 334.940 306.368 334.940 310.807 C 334.940 314.536,334.853 315.278,334.395 315.454 C 333.684 315.727,299.018 315.727,298.307 315.454 C 297.739 315.236,297.428 254.838,297.992 254.274 C 298.118 254.148,306.173 254.045,315.892 254.045 L 333.563 254.045 333.563 258.692 M144.406 262.264 L 143.373 262.485 143.281 270.829 L 143.189 279.174 146.035 279.163 C 154.740 279.131,158.865 277.142,160.273 272.300 C 162.284 265.384,154.083 260.197,144.406 262.264 M241.308 262.617 C 239.888 262.743,238.533 262.967,238.296 263.113 C 237.959 263.322,237.866 268.078,237.866 285.012 L 237.866 306.645 238.950 307.023 C 240.439 307.542,245.013 307.487,248.549 306.907 C 259.251 305.152,264.895 299.508,266.644 288.812 C 269.466 271.559,259.271 261.017,241.308 262.617 M86.233 265.056 C 86.028 265.388,85.665 266.668,84.279 271.945 C 83.308 275.644,83.095 276.386,82.453 278.313 C 82.137 279.260,81.750 280.499,81.592 281.067 C 81.434 281.635,80.827 283.649,80.244 285.542 C 78.847 290.072,78.530 289.864,86.749 289.829 C 95.127 289.794,94.667 290.325,92.390 283.305 C 91.745 281.317,90.807 278.373,90.305 276.764 C 89.804 275.155,89.274 273.528,89.129 273.150 C 88.983 272.771,88.785 272.074,88.688 271.601 C 88.200 269.213,86.890 264.720,86.681 264.718 C 86.550 264.717,86.349 264.869,86.233 265.056 M143.201 297.418 L 143.201 307.401 147.988 307.401 C 157.604 307.401,162.119 304.277,162.220 297.553 C 162.319 291.009,157.087 287.478,147.246 287.448 L 143.201 287.435 143.201 297.418 " stroke="none" fill="#fbfbfb" fill-rule="evenodd"></path></g></svg>