<svg id="svg" version="1.1" xmlns="http://www.w3.org/2000/svg" xmlns:xlink="http://www.w3.org/1999/xlink" width="400" height="399.86671109630123" viewBox="0, 0, 400,399.86671109630123"><g id="svgg"><path id="path0" d="M178.833 78.325 C 166.003 79.701,157.842 88.971,158.212 101.750 C 158.618 115.836,168.193 124.633,182.050 123.651 C 188.373 123.203,193.116 120.849,196.379 116.540 L 197.042 115.664 195.563 114.133 C 191.875 110.318,191.786 110.238,190.962 110.010 C 189.793 109.687,188.927 109.968,187.136 111.254 C 183.952 113.540,179.573 113.856,176.126 112.049 C 169.902 108.786,168.731 97.154,174.082 91.734 C 177.512 88.259,182.899 87.845,187.640 90.690 C 191.077 92.753,192.032 92.419,195.295 88.008 C 196.350 86.583,197.289 85.319,197.383 85.200 C 197.801 84.671,194.221 81.770,191.583 80.499 C 187.867 78.709,182.996 77.878,178.833 78.325 M110.333 100.986 L 110.333 123.333 119.958 123.330 C 132.515 123.326,134.449 123.080,138.917 120.921 C 155.100 113.102,155.037 88.477,138.814 81.024 C 134.209 78.908,133.348 78.797,120.875 78.711 L 110.333 78.639 110.333 100.986 M217.861 80.792 C 217.404 81.960,216.565 84.117,215.997 85.583 C 215.430 87.050,214.628 89.112,214.216 90.167 C 213.803 91.221,213.253 92.646,212.992 93.333 C 212.732 94.021,212.285 95.183,212.000 95.917 C 211.715 96.650,211.265 97.813,211.000 98.500 C 210.735 99.188,210.023 101.025,209.416 102.583 C 208.810 104.142,207.909 106.467,207.414 107.750 C 206.431 110.298,205.165 113.567,202.942 119.301 C 202.149 121.346,201.500 123.094,201.500 123.185 C 201.500 123.531,212.165 123.296,212.833 122.935 C 214.548 122.008,214.915 121.415,216.306 117.307 L 217.454 113.917 224.540 113.873 L 231.627 113.830 232.754 117.207 C 234.811 123.372,234.749 123.333,242.631 123.333 C 247.392 123.333,247.695 123.316,247.590 123.042 C 247.066 121.675,241.684 107.766,241.254 106.667 C 240.020 103.511,230.924 80.033,230.681 79.375 L 230.419 78.667 224.556 78.667 L 218.693 78.667 217.861 80.792 M254.667 100.987 L 254.667 123.333 260.249 123.333 L 265.831 123.333 265.874 111.400 L 265.917 99.467 273.409 108.942 C 283.452 121.643,283.228 121.366,283.990 122.055 C 285.231 123.176,285.473 123.227,289.875 123.297 L 293.833 123.360 293.833 101.013 L 293.833 78.667 288.251 78.667 L 282.669 78.667 282.626 90.616 L 282.583 102.565 277.321 95.907 C 274.426 92.246,270.458 87.225,268.504 84.750 C 263.381 78.264,264.199 78.770,258.708 78.695 L 254.667 78.641 254.667 100.987 M130.917 89.092 C 136.203 90.526,139.160 96.007,138.360 102.889 C 137.491 110.360,134.320 113.073,126.208 113.285 L 122.667 113.377 122.667 100.997 L 122.667 88.616 126.292 88.719 C 128.839 88.790,130.214 88.901,130.917 89.092 M226.487 98.681 C 227.488 101.652,228.358 104.215,228.421 104.375 C 228.528 104.648,228.281 104.667,224.601 104.667 C 222.433 104.667,220.667 104.601,220.667 104.519 C 220.667 104.385,224.140 94.143,224.420 93.451 C 224.594 93.021,224.507 92.801,226.487 98.681 M191.000 143.605 C 159.907 145.750,137.590 156.653,116.337 180.083 C 106.804 190.593,97.702 205.951,93.419 218.756 C 83.626 248.030,90.107 270.622,110.505 278.319 L 112.211 278.963 112.674 280.299 C 116.325 290.835,126.175 295.632,140.566 293.884 C 141.359 293.787,141.379 293.795,141.294 294.184 C 139.250 303.518,139.212 313.447,141.187 322.417 C 141.575 324.179,146.124 341.944,146.300 342.383 C 146.422 342.686,146.705 342.000,151.409 330.000 C 153.759 324.006,154.610 322.067,155.796 320.006 C 161.581 309.949,173.173 301.423,187.523 296.672 L 189.130 296.140 191.356 297.171 C 220.178 310.511,246.530 305.602,258.903 284.588 C 259.498 283.577,260.082 282.619,260.201 282.459 C 260.402 282.187,260.575 282.222,262.833 282.994 C 278.775 288.445,295.066 280.915,305.920 263.078 C 323.796 233.703,312.643 197.795,277.417 171.306 C 256.091 155.270,233.997 146.477,208.750 143.979 C 205.415 143.649,193.882 143.406,191.000 143.605 M207.609 156.489 C 220.303 157.723,227.207 160.179,233.500 165.699 C 236.801 168.595,237.860 170.088,242.738 178.722 C 248.251 188.480,252.498 192.597,259.333 194.806 C 261.530 195.516,266.500 196.329,266.500 195.977 C 266.500 195.938,265.370 194.896,263.988 193.662 C 258.110 188.412,256.153 185.188,253.267 176.000 C 252.850 174.671,252.169 172.652,251.755 171.513 C 251.341 170.374,251.026 169.419,251.055 169.390 C 251.455 168.990,264.374 177.211,270.083 181.500 C 295.530 200.615,306.823 225.614,299.664 246.982 C 297.750 252.695,294.132 259.028,290.512 263.000 L 289.677 263.917 290.821 261.629 C 297.805 247.661,293.745 233.718,280.750 227.050 C 276.622 224.932,272.732 223.839,263.333 222.157 C 254.703 220.613,250.603 218.756,246.238 214.418 C 243.217 211.415,242.111 209.691,238.113 201.750 C 232.826 191.246,230.217 187.371,225.335 182.773 C 216.995 174.917,204.242 175.150,195.083 183.325 C 193.277 184.938,193.706 185.018,191.917 182.730 C 189.355 179.453,186.174 176.400,183.615 174.763 C 182.478 174.036,182.483 174.006,183.395 176.088 C 186.325 182.774,188.964 192.760,189.406 198.833 C 189.463 199.612,189.553 200.686,189.606 201.219 L 189.702 202.187 190.809 201.133 C 201.629 190.833,209.908 187.296,215.256 190.688 C 219.040 193.087,221.527 196.649,227.270 207.888 C 231.723 216.603,233.667 219.536,237.489 223.307 C 243.410 229.147,250.030 232.374,259.750 234.157 C 273.455 236.670,277.266 238.194,279.974 242.242 C 285.213 250.076,278.267 263.545,268.023 265.413 C 264.944 265.974,256.598 265.338,255.536 264.460 C 255.382 264.333,255.267 264.353,255.120 264.535 C 254.148 265.735,245.556 269.604,241.736 270.561 C 229.964 273.511,223.007 270.784,205.333 256.288 C 196.819 249.304,189.779 244.378,185.125 242.146 C 184.151 241.679,184.092 242.036,185.658 238.902 C 187.680 234.851,188.938 233.561,191.773 232.623 C 198.248 230.483,204.678 232.660,213.283 239.906 C 222.285 247.485,227.353 250.085,232.667 249.849 L 233.250 249.823 232.814 249.453 C 232.574 249.250,231.879 248.671,231.269 248.167 C 229.781 246.937,227.168 243.991,223.484 239.390 C 216.579 230.767,213.491 227.696,208.759 224.750 C 197.121 217.504,183.173 219.628,176.477 229.666 C 175.427 231.240,172.667 236.569,172.667 237.022 C 172.667 237.228,172.609 237.220,169.620 236.607 C 163.490 235.349,158.762 235.141,150.520 235.765 C 129.280 237.372,115.823 246.948,111.839 263.292 C 111.394 265.116,111.524 265.078,109.889 263.861 C 102.279 258.193,99.802 247.732,102.603 233.083 C 105.463 218.128,113.338 202.737,125.064 189.186 L 126.562 187.456 126.840 189.103 C 127.189 191.161,127.675 192.936,128.421 194.867 C 129.167 196.799,129.218 196.521,127.579 199.417 C 124.780 204.360,123.629 209.461,123.611 217.000 C 123.600 221.827,125.337 229.411,126.784 230.850 C 126.857 230.922,126.923 229.430,126.931 227.533 C 126.955 221.804,128.003 218.311,131.669 211.750 C 133.149 209.101,133.755 208.278,134.888 207.381 C 136.616 206.014,136.369 206.056,137.453 206.942 C 141.702 210.413,148.264 213.191,154.667 214.229 C 156.505 214.528,158.788 214.751,158.667 214.620 C 158.621 214.571,157.308 213.613,155.750 212.491 C 142.183 202.725,136.960 194.467,138.152 184.667 C 138.876 178.716,143.970 171.636,150.129 168.020 C 161.762 161.190,176.624 156.993,192.333 156.102 C 195.285 155.934,204.239 156.161,207.609 156.489 M163.833 248.242 C 174.461 249.721,182.479 253.815,195.677 264.500 C 197.734 266.165,200.504 268.408,201.833 269.485 C 217.529 282.195,228.519 285.908,242.330 283.167 C 243.658 282.904,244.765 282.709,244.791 282.735 C 244.899 282.844,241.793 285.694,240.655 286.529 C 229.682 294.582,213.163 293.912,194.390 284.653 L 190.698 282.831 189.474 283.088 C 177.681 285.559,163.189 293.239,154.473 301.635 L 152.450 303.583 152.568 302.333 C 152.847 299.355,153.931 295.283,155.172 292.544 C 156.088 290.525,157.519 288.664,165.713 278.837 C 170.260 273.385,173.960 268.905,173.936 268.881 C 173.912 268.857,173.186 269.127,172.321 269.480 C 168.812 270.917,153.787 277.096,152.000 277.837 C 142.736 281.683,133.020 282.777,128.266 280.508 C 122.118 277.573,121.926 265.182,127.919 257.997 C 133.238 251.620,140.299 248.896,154.000 247.936 C 155.966 247.798,161.994 247.985,163.833 248.242 " stroke="none" fill="#241c24" fill-rule="evenodd"></path><path id="path1" d="M0.000 199.917 L 0.000 399.833 200.000 399.833 L 400.000 399.833 400.000 199.917 L 400.000 0.000 200.000 0.000 L 0.000 0.000 0.000 199.917 M185.728 78.599 C 190.085 79.407,194.072 81.416,196.736 84.145 C 197.344 84.768,197.511 85.039,197.383 85.200 C 197.289 85.319,196.350 86.583,195.295 88.008 C 192.032 92.419,191.077 92.753,187.640 90.690 C 182.899 87.845,177.512 88.259,174.082 91.734 C 168.731 97.154,169.902 108.786,176.126 112.049 C 179.573 113.856,183.952 113.540,187.136 111.254 C 188.927 109.968,189.793 109.687,190.962 110.010 C 191.786 110.238,191.875 110.318,195.563 114.133 L 197.042 115.664 196.379 116.540 C 189.572 125.529,173.641 126.343,164.941 118.147 C 156.215 109.927,155.805 94.145,164.085 85.202 C 169.051 79.839,177.883 77.144,185.728 78.599 M133.083 79.148 C 143.826 81.497,150.412 89.093,150.943 99.750 C 151.508 111.070,144.652 120.300,133.917 122.673 C 131.329 123.245,129.591 123.327,119.958 123.330 L 110.333 123.333 110.333 100.986 L 110.333 78.639 120.875 78.711 C 130.949 78.781,131.491 78.800,133.083 79.148 M230.681 79.375 C 230.924 80.033,240.020 103.511,241.254 106.667 C 241.684 107.766,247.066 121.675,247.590 123.042 C 247.695 123.316,247.392 123.333,242.631 123.333 C 234.749 123.333,234.811 123.372,232.754 117.207 L 231.627 113.830 224.540 113.873 L 217.454 113.917 216.306 117.307 C 214.915 121.415,214.548 122.008,212.833 122.935 C 212.165 123.296,201.500 123.531,201.500 123.185 C 201.500 123.094,202.149 121.346,202.942 119.301 C 205.165 113.567,206.431 110.298,207.414 107.750 C 207.909 106.467,208.810 104.142,209.416 102.583 C 210.023 101.025,210.735 99.188,211.000 98.500 C 211.265 97.813,211.715 96.650,212.000 95.917 C 212.285 95.183,212.732 94.021,212.992 93.333 C 213.253 92.646,213.803 91.221,214.216 90.167 C 214.628 89.112,215.430 87.050,215.997 85.583 C 216.565 84.117,217.404 81.960,217.861 80.792 L 218.693 78.667 224.556 78.667 L 230.419 78.667 230.681 79.375 M263.356 79.052 C 264.333 79.538,264.764 80.015,268.504 84.750 C 270.458 87.225,274.426 92.246,277.321 95.907 L 282.583 102.565 282.626 90.616 L 282.669 78.667 288.251 78.667 L 293.833 78.667 293.833 101.013 L 293.833 123.360 289.875 123.297 C 285.473 123.227,285.231 123.176,283.990 122.055 C 283.228 121.366,283.452 121.643,273.409 108.942 L 265.917 99.467 265.874 111.400 L 265.831 123.333 260.249 123.333 L 254.667 123.333 254.667 100.987 L 254.667 78.641 258.708 78.695 C 262.203 78.743,262.832 78.791,263.356 79.052 M122.667 100.997 L 122.667 113.377 126.208 113.285 C 130.803 113.165,132.246 112.805,134.369 111.248 C 139.468 107.510,139.923 96.239,135.166 91.500 C 133.045 89.387,131.371 88.862,126.292 88.719 L 122.667 88.616 122.667 100.997 M224.420 93.451 C 224.140 94.143,220.667 104.385,220.667 104.519 C 220.667 104.601,222.433 104.667,224.601 104.667 C 228.281 104.667,228.528 104.648,228.421 104.375 C 228.358 104.215,227.488 101.652,226.487 98.681 C 224.507 92.801,224.594 93.021,224.420 93.451 M208.750 143.979 C 233.997 146.477,256.091 155.270,277.417 171.306 C 312.643 197.795,323.796 233.703,305.920 263.078 C 295.066 280.915,278.775 288.445,262.833 282.994 C 260.575 282.222,260.402 282.187,260.201 282.459 C 260.082 282.619,259.498 283.577,258.903 284.588 C 246.530 305.602,220.178 310.511,191.356 297.171 L 189.130 296.140 187.523 296.672 C 173.173 301.423,161.581 309.949,155.796 320.006 C 154.610 322.067,153.759 324.006,151.409 330.000 C 146.705 342.000,146.422 342.686,146.300 342.383 C 146.124 341.944,141.575 324.179,141.187 322.417 C 139.212 313.447,139.250 303.518,141.294 294.184 C 141.379 293.795,141.359 293.787,140.566 293.884 C 126.175 295.632,116.325 290.835,112.674 280.299 L 112.211 278.963 110.505 278.319 C 90.107 270.622,83.626 248.030,93.419 218.756 C 97.702 205.951,106.804 190.593,116.337 180.083 C 137.590 156.653,159.907 145.750,191.000 143.605 C 193.882 143.406,205.415 143.649,208.750 143.979 M192.333 156.102 C 176.624 156.993,161.762 161.190,150.129 168.020 C 143.970 171.636,138.876 178.716,138.152 184.667 C 136.960 194.467,142.183 202.725,155.750 212.491 C 157.308 213.613,158.621 214.571,158.667 214.620 C 158.788 214.751,156.505 214.528,154.667 214.229 C 148.264 213.191,141.702 210.413,137.453 206.942 C 136.369 206.056,136.616 206.014,134.888 207.381 C 133.755 208.278,133.149 209.101,131.669 211.750 C 128.003 218.311,126.955 221.804,126.931 227.533 C 126.923 229.430,126.857 230.922,126.784 230.850 C 125.337 229.411,123.600 221.827,123.611 217.000 C 123.629 209.461,124.780 204.360,127.579 199.417 C 129.218 196.521,129.167 196.799,128.421 194.867 C 127.675 192.936,127.189 191.161,126.840 189.103 L 126.562 187.456 125.064 189.186 C 110.215 206.346,101.590 226.422,101.586 243.833 C 101.585 253.453,104.117 259.562,109.889 263.861 C 111.524 265.078,111.394 265.116,111.839 263.292 C 115.823 246.948,129.280 237.372,150.520 235.765 C 158.762 235.141,163.490 235.349,169.620 236.607 C 172.609 237.220,172.667 237.228,172.667 237.022 C 172.667 236.569,175.427 231.240,176.477 229.666 C 183.173 219.628,197.121 217.504,208.759 224.750 C 213.491 227.696,216.579 230.767,223.484 239.390 C 227.168 243.991,229.781 246.937,231.269 248.167 C 231.879 248.671,232.574 249.250,232.814 249.453 L 233.250 249.823 232.667 249.849 C 227.353 250.085,222.285 247.485,213.283 239.906 C 204.678 232.660,198.248 230.483,191.773 232.623 C 188.938 233.561,187.680 234.851,185.658 238.902 C 184.092 242.036,184.151 241.679,185.125 242.146 C 189.779 244.378,196.819 249.304,205.333 256.288 C 223.007 270.784,229.964 273.511,241.736 270.561 C 245.556 269.604,254.148 265.735,255.120 264.535 C 255.267 264.353,255.382 264.333,255.536 264.460 C 257.202 265.837,267.044 266.003,270.665 264.714 C 277.982 262.112,283.485 251.811,281.262 244.881 C 279.395 239.063,275.261 237.002,259.750 234.157 C 250.030 232.374,243.410 229.147,237.489 223.307 C 233.667 219.536,231.723 216.603,227.270 207.888 C 221.527 196.649,219.040 193.087,215.256 190.688 C 209.908 187.296,201.629 190.833,190.809 201.133 L 189.702 202.187 189.606 201.219 C 189.553 200.686,189.463 199.612,189.406 198.833 C 188.964 192.760,186.325 182.774,183.395 176.088 C 182.483 174.006,182.478 174.036,183.615 174.763 C 186.174 176.400,189.355 179.453,191.917 182.730 C 193.706 185.018,193.277 184.938,195.083 183.325 C 204.242 175.150,216.995 174.917,225.335 182.773 C 230.217 187.371,232.826 191.246,238.113 201.750 C 242.111 209.691,243.217 211.415,246.238 214.418 C 250.603 218.756,254.703 220.613,263.333 222.157 C 272.732 223.839,276.622 224.932,280.750 227.050 C 293.745 233.718,297.805 247.661,290.821 261.629 L 289.677 263.917 290.512 263.000 C 294.132 259.028,297.750 252.695,299.664 246.982 C 306.823 225.614,295.530 200.615,270.083 181.500 C 264.374 177.211,251.455 168.990,251.055 169.390 C 251.026 169.419,251.341 170.374,251.755 171.513 C 252.169 172.652,252.850 174.671,253.267 176.000 C 256.153 185.188,258.110 188.412,263.988 193.662 C 265.370 194.896,266.500 195.938,266.500 195.977 C 266.500 196.329,261.530 195.516,259.333 194.806 C 252.498 192.597,248.251 188.480,242.738 178.722 C 239.749 173.431,238.610 171.519,237.742 170.333 C 233.370 164.362,226.347 159.954,218.069 157.987 C 212.494 156.663,199.380 155.702,192.333 156.102 M154.000 247.936 C 139.091 248.981,130.835 252.648,126.251 260.260 C 122.687 266.179,122.726 275.543,126.329 279.146 C 130.150 282.968,140.971 282.416,152.000 277.837 C 153.787 277.096,168.812 270.917,172.321 269.480 C 173.186 269.127,173.912 268.857,173.936 268.881 C 173.960 268.905,170.260 273.385,165.713 278.837 C 157.519 288.664,156.088 290.525,155.172 292.544 C 153.931 295.283,152.847 299.355,152.568 302.333 L 152.450 303.583 154.473 301.635 C 163.189 293.239,177.681 285.559,189.474 283.088 L 190.698 282.831 194.390 284.653 C 213.163 293.912,229.682 294.582,240.655 286.529 C 241.793 285.694,244.899 282.844,244.791 282.735 C 244.765 282.709,243.658 282.904,242.330 283.167 C 228.519 285.908,217.529 282.195,201.833 269.485 C 200.504 268.408,197.734 266.165,195.677 264.500 C 179.325 251.261,168.415 246.925,154.000 247.936 " stroke="none" fill="#fbcb3b" fill-rule="evenodd"></path></g></svg>