<svg id="svg" version="1.1" xmlns="http://www.w3.org/2000/svg" xmlns:xlink="http://www.w3.org/1999/xlink" width="400" height="400" viewBox="0, 0, 400,400"><g id="svgg"><path id="path0" d="M0.000 100.100 L 0.000 200.200 200.000 200.200 L 400.000 200.200 400.000 100.100 L 400.000 0.000 200.000 0.000 L 0.000 0.000 0.000 100.100 M275.900 32.189 C 276.701 32.487,276.620 67.320,275.817 67.986 C 275.442 68.297,273.583 68.486,270.617 68.513 C 267.060 68.546,266.000 68.678,266.000 69.088 C 266.000 69.660,275.717 86.483,278.772 91.200 C 278.985 91.530,280.172 93.510,281.409 95.600 C 282.646 97.690,284.176 100.210,284.808 101.200 C 285.440 102.190,286.658 104.260,287.514 105.800 C 288.370 107.340,290.765 111.351,292.835 114.713 C 294.906 118.076,296.960 121.433,297.400 122.174 C 297.840 122.915,298.876 124.664,299.702 126.061 C 300.528 127.457,301.650 129.320,302.194 130.200 C 302.739 131.080,303.552 132.532,304.002 133.426 C 304.451 134.321,305.335 135.671,305.966 136.426 L 307.112 137.800 313.832 137.860 C 319.788 137.913,320.611 138.001,321.076 138.636 C 322.056 139.976,321.819 173.454,320.826 173.986 C 319.671 174.604,252.780 174.556,251.419 173.936 L 250.400 173.472 250.400 156.336 C 250.400 135.832,249.728 137.855,256.600 137.673 C 259.240 137.603,261.545 137.403,261.723 137.230 C 262.011 136.948,260.621 133.705,259.996 133.200 C 259.860 133.090,258.770 131.305,257.574 129.234 C 256.378 127.162,254.902 124.642,254.292 123.634 C 253.683 122.625,253.005 121.440,252.784 121.000 C 252.564 120.560,251.858 119.390,251.215 118.400 C 250.572 117.410,249.105 114.980,247.956 113.000 C 242.438 103.495,241.244 102.138,240.305 104.300 C 240.042 104.905,239.437 105.940,238.959 106.600 C 238.482 107.260,237.699 108.520,237.220 109.400 C 236.742 110.280,235.898 111.803,235.346 112.785 C 234.087 115.025,234.620 115.597,237.976 115.606 C 241.685 115.616,241.400 114.120,241.400 133.571 C 241.400 149.549,241.349 150.822,240.686 151.486 C 239.812 152.359,164.464 152.623,163.596 151.755 C 162.973 151.133,163.032 116.884,163.657 116.131 C 163.922 115.812,164.944 115.600,166.223 115.600 C 167.392 115.600,168.809 115.425,169.373 115.210 L 170.398 114.821 169.659 113.510 C 168.562 111.567,163.950 103.822,163.794 103.663 C 162.996 102.851,161.636 104.524,157.750 111.100 C 154.444 116.696,154.262 117.006,152.033 120.857 C 150.841 122.915,149.294 125.500,148.596 126.600 C 144.893 132.431,142.541 136.781,142.834 137.256 C 143.062 137.624,144.585 137.789,148.214 137.837 C 151.971 137.888,153.423 138.051,153.842 138.471 C 154.795 139.424,154.700 173.192,153.742 173.892 C 152.757 174.612,84.400 174.640,83.680 173.920 C 82.916 173.156,82.999 139.628,83.767 138.576 C 84.281 137.873,84.914 137.792,90.467 137.716 C 98.128 137.611,97.917 137.675,99.600 134.944 C 100.370 133.694,101.360 132.115,101.800 131.436 C 102.240 130.756,103.123 129.210,103.763 128.000 C 104.403 126.790,105.500 124.900,106.202 123.800 C 106.903 122.700,108.338 120.360,109.389 118.600 C 110.441 116.840,112.314 113.736,113.551 111.701 C 114.788 109.667,116.169 107.327,116.620 106.501 C 117.071 105.676,117.968 104.190,118.615 103.200 C 119.262 102.210,120.019 100.950,120.299 100.400 C 120.578 99.850,121.210 98.735,121.703 97.923 C 122.197 97.111,123.218 95.401,123.974 94.123 C 124.729 92.845,125.474 91.710,125.629 91.600 C 125.783 91.490,126.199 90.770,126.552 90.000 C 126.906 89.230,127.917 87.520,128.800 86.200 C 129.683 84.880,130.695 83.170,131.049 82.400 C 131.403 81.630,132.275 80.100,132.988 79.000 C 139.810 68.470,139.810 68.451,133.059 68.438 C 130.668 68.433,128.899 68.248,128.559 67.966 C 127.978 67.484,127.679 34.101,128.243 32.633 C 128.562 31.800,196.689 31.649,197.520 32.480 C 198.210 33.170,198.210 67.230,197.520 67.920 C 197.213 68.227,195.643 68.400,193.153 68.400 C 191.015 68.400,188.981 68.509,188.633 68.643 C 187.947 68.906,187.763 70.606,188.379 70.987 C 188.587 71.116,189.366 72.341,190.109 73.711 C 190.852 75.080,192.672 78.270,194.154 80.800 C 200.352 91.381,201.418 93.000,202.192 93.000 C 202.828 93.000,211.516 79.800,213.117 76.400 C 213.273 76.070,214.165 74.509,215.100 72.930 C 217.727 68.496,217.648 68.400,211.381 68.400 C 207.685 68.400,207.183 68.315,206.814 67.626 C 205.963 66.036,206.275 32.933,207.146 32.323 C 207.873 31.813,274.541 31.684,275.900 32.189 M63.267 251.719 C 62.532 252.605,62.622 331.203,63.359 332.212 C 64.170 333.322,76.227 333.668,77.816 332.626 L 78.800 331.982 78.704 313.691 L 78.608 295.400 78.503 313.400 C 78.407 329.753,78.336 331.446,77.722 331.900 C 76.794 332.588,64.765 332.605,64.080 331.920 C 63.328 331.168,63.389 252.000,64.142 252.000 C 64.937 252.000,66.604 253.721,75.549 263.783 C 76.731 265.112,78.261 266.763,78.949 267.450 C 79.637 268.138,80.920 269.565,81.800 270.621 C 82.680 271.678,83.850 273.025,84.400 273.614 C 84.950 274.203,86.660 276.100,88.200 277.831 C 89.740 279.561,92.959 283.142,95.354 285.788 C 97.748 288.435,100.476 291.455,101.414 292.500 C 103.917 295.285,104.705 294.870,111.000 287.459 C 111.880 286.423,113.238 284.892,114.017 284.058 C 114.797 283.223,117.047 280.668,119.017 278.379 C 120.988 276.090,123.050 273.759,123.600 273.200 C 124.150 272.640,125.209 271.466,125.953 270.591 C 126.697 269.716,128.050 268.190,128.960 267.200 C 129.870 266.210,132.321 263.423,134.407 261.007 C 140.834 253.563,142.880 251.591,143.900 251.858 C 144.390 251.986,144.694 252.247,144.577 252.438 C 144.459 252.629,144.375 270.450,144.390 292.040 C 144.411 320.983,144.298 331.441,143.960 331.848 C 143.311 332.630,130.491 332.647,129.424 331.867 C 128.733 331.362,128.704 330.335,128.853 311.767 C 128.940 301.005,128.891 293.190,128.745 294.400 C 128.099 299.746,128.365 331.873,129.060 332.451 C 130.326 333.504,142.772 333.452,144.124 332.388 L 145.221 331.526 145.188 291.765 C 145.153 248.740,145.267 251.200,143.311 251.200 C 142.544 251.200,136.184 257.910,131.179 264.000 C 130.004 265.430,128.931 266.690,128.794 266.800 C 128.658 266.910,126.939 268.792,124.973 270.982 C 123.008 273.172,121.004 275.393,120.521 275.918 C 120.037 276.443,116.351 280.637,112.329 285.238 C 108.306 289.840,104.667 293.715,104.240 293.851 C 103.478 294.093,101.585 292.406,99.400 289.537 C 98.960 288.960,96.170 285.830,93.200 282.581 C 90.230 279.333,86.090 274.768,84.000 272.438 C 81.910 270.107,79.750 267.741,79.200 267.181 C 78.650 266.621,75.620 263.249,72.466 259.688 C 65.108 251.380,64.201 250.594,63.267 251.719 M162.800 251.492 C 162.470 251.617,162.068 251.918,161.906 252.160 C 161.209 253.203,161.558 331.867,162.261 332.451 C 163.274 333.292,177.874 333.245,178.408 332.400 C 179.012 331.445,178.925 252.285,178.320 251.680 C 177.824 251.184,164.048 251.017,162.800 251.492 M196.300 251.618 C 195.245 252.254,195.210 331.580,196.264 332.451 C 196.807 332.899,200.023 332.990,213.764 332.945 L 230.600 332.889 234.475 331.667 C 243.858 328.709,252.095 322.862,256.563 315.989 C 257.202 315.005,258.057 313.712,258.463 313.116 C 258.868 312.520,259.200 311.820,259.200 311.560 C 259.200 311.300,259.538 310.348,259.951 309.444 C 262.934 302.912,264.523 291.941,263.185 287.121 C 262.959 286.308,262.616 284.508,262.422 283.121 C 261.120 273.786,252.770 261.776,244.600 257.489 C 239.817 254.978,237.110 253.839,234.400 253.196 C 233.630 253.013,231.740 252.542,230.200 252.149 C 226.847 251.294,197.598 250.835,196.300 251.618 M277.931 251.470 C 277.514 251.580,277.184 252.203,277.054 253.123 C 276.757 255.233,276.850 331.437,277.150 331.898 C 277.933 333.097,279.392 333.200,295.274 333.175 C 323.050 333.131,327.688 331.745,333.768 321.669 C 340.426 310.637,335.808 291.558,325.956 289.391 C 325.382 289.264,324.420 288.647,323.819 288.019 L 322.725 286.878 323.662 286.588 C 328.746 285.019,332.795 277.795,332.263 271.247 C 331.458 261.352,325.613 254.648,315.621 252.161 C 312.017 251.264,280.869 250.693,277.931 251.470 M177.767 251.843 C 178.601 252.163,178.751 331.089,177.920 331.920 C 177.231 332.609,163.614 332.591,162.670 331.900 C 161.536 331.069,161.836 253.002,162.976 252.168 C 163.779 251.581,176.364 251.304,177.767 251.843 M226.000 251.977 C 226.990 252.157,229.150 252.533,230.800 252.811 C 239.856 254.337,248.050 259.233,254.883 267.203 C 267.761 282.222,264.242 313.036,248.386 324.087 C 247.844 324.465,246.655 325.301,245.745 325.946 C 243.085 327.832,237.688 330.222,233.540 331.352 L 229.692 332.400 213.326 332.400 C 201.130 332.400,196.838 332.278,196.480 331.920 C 195.654 331.094,195.799 253.058,196.629 252.229 C 197.331 251.526,222.358 251.311,226.000 251.977 M315.200 252.568 C 325.924 255.273,331.684 262.177,331.750 272.401 C 331.788 278.398,328.885 283.508,324.034 285.983 C 321.632 287.208,322.177 288.106,326.600 290.203 C 331.100 292.337,335.101 297.451,335.965 302.173 C 338.300 314.924,333.774 324.982,323.346 330.218 L 319.400 332.200 299.312 332.320 C 285.403 332.404,278.974 332.307,278.412 332.006 C 277.609 331.577,277.068 255.825,277.847 252.921 C 278.182 251.671,277.819 251.697,295.400 251.651 C 311.029 251.610,311.488 251.632,315.200 252.568 M213.633 265.922 C 212.060 266.447,212.000 267.437,212.000 292.718 L 212.000 317.076 212.893 317.838 C 213.496 318.353,213.622 318.387,213.281 317.945 C 212.631 317.101,212.572 268.373,213.220 267.163 C 213.729 266.211,218.668 266.129,225.200 266.962 C 229.025 267.449,230.109 267.750,233.200 269.177 C 238.761 271.745,243.860 278.300,244.885 284.200 C 248.602 305.580,239.864 317.394,219.600 318.387 L 213.800 318.671 218.200 318.727 C 231.233 318.895,239.023 314.875,243.635 305.600 C 247.357 298.113,247.111 285.401,243.103 278.200 C 242.858 277.760,242.432 276.967,242.155 276.439 C 241.878 275.910,240.609 274.407,239.334 273.099 C 237.218 270.926,236.054 270.106,233.200 268.776 C 232.650 268.520,231.733 268.066,231.161 267.769 C 228.802 266.539,215.870 265.177,213.633 265.922 M300.611 265.984 C 293.177 266.252,293.614 265.725,293.606 274.420 C 293.600 280.532,293.809 281.622,294.980 281.588 C 295.211 281.581,295.116 281.410,294.770 281.207 C 293.963 280.735,294.004 267.959,294.815 266.982 C 295.375 266.308,307.018 266.145,309.726 266.773 C 317.360 268.545,317.096 280.286,309.400 281.312 L 308.200 281.472 309.469 281.536 C 315.122 281.821,318.053 271.818,313.455 267.933 C 312.574 267.188,307.872 265.535,307.058 265.684 C 306.806 265.730,303.905 265.865,300.611 265.984 M299.100 281.897 C 300.695 281.973,303.305 281.973,304.900 281.897 C 306.495 281.821,305.190 281.759,302.000 281.759 C 298.810 281.759,297.505 281.821,299.100 281.897 M78.480 290.880 C 78.216 291.144,78.030 292.089,78.067 292.980 L 78.134 294.600 78.290 293.130 C 78.488 291.253,79.513 290.269,80.158 291.336 C 81.599 293.719,86.890 300.277,91.990 306.000 C 95.224 309.630,98.575 313.401,99.435 314.381 C 103.592 319.110,103.777 319.122,107.418 314.900 C 108.888 313.195,111.106 310.746,112.346 309.458 C 115.122 306.574,119.758 301.116,123.991 295.748 C 127.103 291.803,128.302 290.862,129.144 291.704 C 129.426 291.986,129.485 291.845,129.331 291.258 C 129.208 290.786,129.029 290.400,128.933 290.400 C 128.103 290.400,126.273 291.905,125.279 293.406 C 123.466 296.144,113.079 308.238,106.876 314.833 C 103.458 318.467,103.527 318.485,98.565 312.773 C 96.604 310.515,94.010 307.568,92.800 306.223 C 86.517 299.239,83.160 295.169,80.987 291.900 C 79.948 290.336,79.291 290.069,78.480 290.880 M294.600 296.144 C 293.297 297.106,293.139 316.739,294.424 318.024 C 295.711 319.311,312.060 319.062,314.600 317.717 C 322.835 313.356,322.432 299.428,314.000 296.991 C 313.450 296.832,312.748 296.499,312.440 296.251 C 311.503 295.497,295.605 295.402,294.600 296.144 M312.600 296.926 C 318.158 299.039,319.621 301.018,319.898 306.800 C 320.186 312.821,317.783 316.446,312.616 317.783 C 309.299 318.641,295.531 318.674,294.683 317.826 C 293.833 316.976,293.963 296.922,294.822 296.378 C 296.175 295.522,310.030 295.949,312.600 296.926 " stroke="none" fill="#fbca37" fill-rule="evenodd"></path><path id="path1" d="M207.146 32.323 C 206.275 32.933,205.963 66.036,206.814 67.626 C 207.183 68.315,207.685 68.400,211.381 68.400 C 217.648 68.400,217.727 68.496,215.100 72.930 C 214.165 74.509,213.273 76.070,213.117 76.400 C 211.516 79.800,202.828 93.000,202.192 93.000 C 201.418 93.000,200.352 91.381,194.154 80.800 C 192.672 78.270,190.852 75.080,190.109 73.711 C 189.366 72.341,188.587 71.116,188.379 70.987 C 187.763 70.606,187.947 68.906,188.633 68.643 C 188.981 68.509,191.015 68.400,193.153 68.400 C 195.643 68.400,197.213 68.227,197.520 67.920 C 198.210 67.230,198.210 33.170,197.520 32.480 C 196.689 31.649,128.562 31.800,128.243 32.633 C 127.679 34.101,127.978 67.484,128.559 67.966 C 128.899 68.248,130.668 68.433,133.059 68.438 C 139.810 68.451,139.810 68.470,132.988 79.000 C 132.275 80.100,131.403 81.630,131.049 82.400 C 130.695 83.170,129.683 84.880,128.800 86.200 C 127.917 87.520,126.906 89.230,126.552 90.000 C 126.199 90.770,125.783 91.490,125.629 91.600 C 125.474 91.710,124.729 92.845,123.974 94.123 C 123.218 95.401,122.197 97.111,121.703 97.923 C 121.210 98.735,120.578 99.850,120.299 100.400 C 120.019 100.950,119.262 102.210,118.615 103.200 C 117.968 104.190,117.071 105.676,116.620 106.501 C 116.169 107.327,114.788 109.667,113.551 111.701 C 112.314 113.736,110.441 116.840,109.389 118.600 C 108.338 120.360,106.903 122.700,106.202 123.800 C 105.500 124.900,104.403 126.790,103.763 128.000 C 103.123 129.210,102.240 130.756,101.800 131.436 C 101.360 132.115,100.370 133.694,99.600 134.944 C 97.917 137.675,98.128 137.611,90.467 137.716 C 84.914 137.792,84.281 137.873,83.767 138.576 C 82.999 139.628,82.916 173.156,83.680 173.920 C 84.400 174.640,152.757 174.612,153.742 173.892 C 154.700 173.192,154.795 139.424,153.842 138.471 C 153.423 138.051,151.971 137.888,148.214 137.837 C 144.585 137.789,143.062 137.624,142.834 137.256 C 142.541 136.781,144.893 132.431,148.596 126.600 C 149.294 125.500,150.841 122.915,152.033 120.857 C 154.262 117.006,154.444 116.696,157.750 111.100 C 161.636 104.524,162.996 102.851,163.794 103.663 C 163.950 103.822,168.562 111.567,169.659 113.510 L 170.398 114.821 169.373 115.210 C 168.809 115.425,167.392 115.600,166.223 115.600 C 164.944 115.600,163.922 115.812,163.657 116.131 C 163.032 116.884,162.973 151.133,163.596 151.755 C 164.464 152.623,239.812 152.359,240.686 151.486 C 241.349 150.822,241.400 149.549,241.400 133.571 C 241.400 114.120,241.685 115.616,237.976 115.606 C 234.620 115.597,234.087 115.025,235.346 112.785 C 235.898 111.803,236.742 110.280,237.220 109.400 C 237.699 108.520,238.482 107.260,238.959 106.600 C 239.437 105.940,240.042 104.905,240.305 104.300 C 241.244 102.138,242.438 103.495,247.956 113.000 C 249.105 114.980,250.572 117.410,251.215 118.400 C 251.858 119.390,252.564 120.560,252.784 121.000 C 253.005 121.440,253.683 122.625,254.292 123.634 C 254.902 124.642,256.378 127.162,257.574 129.234 C 258.770 131.305,259.860 133.090,259.996 133.200 C 260.621 133.705,262.011 136.948,261.723 137.230 C 261.545 137.403,259.240 137.603,256.600 137.673 C 249.728 137.855,250.400 135.832,250.400 156.336 L 250.400 173.472 251.419 173.936 C 252.780 174.556,319.671 174.604,320.826 173.986 C 321.819 173.454,322.056 139.976,321.076 138.636 C 320.611 138.001,319.788 137.913,313.832 137.860 L 307.112 137.800 305.966 136.426 C 305.335 135.671,304.451 134.321,304.002 133.426 C 303.552 132.532,302.739 131.080,302.194 130.200 C 301.650 129.320,300.528 127.457,299.702 126.061 C 298.876 124.664,297.840 122.915,297.400 122.174 C 296.960 121.433,294.906 118.076,292.835 114.713 C 290.765 111.351,288.370 107.340,287.514 105.800 C 286.658 104.260,285.440 102.190,284.808 101.200 C 284.176 100.210,282.646 97.690,281.409 95.600 C 280.172 93.510,278.985 91.530,278.772 91.200 C 275.717 86.483,266.000 69.660,266.000 69.088 C 266.000 68.678,267.060 68.546,270.617 68.513 C 273.583 68.486,275.442 68.297,275.817 67.986 C 276.620 67.320,276.701 32.487,275.900 32.189 C 274.541 31.684,207.873 31.813,207.146 32.323 M0.700 200.276 C 0.036 200.449,0.000 205.546,0.000 300.229 L 0.000 400.000 200.000 400.000 L 400.000 400.000 400.000 300.259 L 400.000 200.517 396.940 200.259 C 393.525 199.970,1.805 199.987,0.700 200.276 M65.535 252.207 C 66.193 252.760,69.312 256.127,72.466 259.688 C 75.620 263.249,78.650 266.621,79.200 267.181 C 79.750 267.741,81.910 270.107,84.000 272.438 C 86.090 274.768,90.230 279.333,93.200 282.581 C 96.170 285.830,98.960 288.960,99.400 289.537 C 101.585 292.406,103.478 294.093,104.240 293.851 C 104.667 293.715,108.306 289.840,112.329 285.238 C 116.351 280.637,120.037 276.443,120.521 275.918 C 121.004 275.393,123.008 273.172,124.973 270.982 C 126.939 268.792,128.658 266.910,128.794 266.800 C 128.931 266.690,130.004 265.430,131.179 264.000 C 136.184 257.910,142.544 251.200,143.311 251.200 C 145.267 251.200,145.153 248.740,145.188 291.765 L 145.221 331.526 144.124 332.388 C 142.772 333.452,130.326 333.504,129.060 332.451 C 128.338 331.850,128.099 299.445,128.778 294.200 C 129.322 290.006,128.245 290.354,123.991 295.748 C 119.758 301.116,115.122 306.574,112.346 309.458 C 111.106 310.746,108.888 313.195,107.418 314.900 C 103.777 319.122,103.592 319.110,99.435 314.381 C 98.575 313.401,95.224 309.630,91.990 306.000 C 86.942 300.336,81.754 293.913,80.141 291.334 C 78.776 289.149,78.649 291.015,78.759 311.763 L 78.866 331.938 77.849 332.604 C 76.229 333.666,64.183 333.340,63.359 332.212 C 62.622 331.203,62.532 252.605,63.267 251.719 C 63.869 250.994,64.171 251.059,65.535 252.207 M178.320 251.680 C 178.925 252.285,179.012 331.445,178.408 332.400 C 177.874 333.245,163.274 333.292,162.261 332.451 C 161.558 331.867,161.209 253.203,161.906 252.160 C 162.441 251.359,163.338 251.263,170.620 251.232 C 175.739 251.209,177.980 251.340,178.320 251.680 M230.200 252.149 C 231.740 252.542,233.630 253.013,234.400 253.196 C 237.110 253.839,239.817 254.978,244.600 257.489 C 252.770 261.776,261.120 273.786,262.422 283.121 C 262.616 284.508,262.959 286.308,263.185 287.121 C 264.523 291.941,262.934 302.912,259.951 309.444 C 259.538 310.348,259.200 311.300,259.200 311.560 C 259.200 311.820,258.868 312.520,258.463 313.116 C 258.057 313.712,257.202 315.005,256.563 315.989 C 252.095 322.862,243.858 328.709,234.475 331.667 L 230.600 332.889 213.764 332.945 C 200.023 332.990,196.807 332.899,196.264 332.451 C 195.210 331.580,195.245 252.254,196.300 251.618 C 197.598 250.835,226.847 251.294,230.200 252.149 M315.621 252.161 C 325.613 254.648,331.458 261.352,332.263 271.247 C 332.795 277.795,328.746 285.019,323.662 286.588 L 322.725 286.878 323.819 288.019 C 324.420 288.647,325.382 289.264,325.956 289.391 C 335.808 291.558,340.426 310.637,333.768 321.669 C 327.688 331.745,323.050 333.131,295.274 333.175 C 279.392 333.200,277.933 333.097,277.150 331.898 C 276.850 331.437,276.757 255.233,277.054 253.123 C 277.328 251.179,276.169 251.299,295.200 251.251 C 311.413 251.210,311.889 251.232,315.621 252.161 M213.220 267.163 C 212.574 268.370,212.631 317.114,213.279 317.895 C 214.020 318.788,224.724 318.356,228.600 317.277 C 242.101 313.519,247.925 301.689,244.885 284.200 C 243.860 278.300,238.761 271.745,233.200 269.177 C 230.109 267.750,229.025 267.449,225.200 266.962 C 218.668 266.129,213.729 266.211,213.220 267.163 M294.815 266.982 C 294.490 267.374,294.300 269.734,294.236 274.205 C 294.117 282.388,293.339 281.733,302.954 281.540 L 310.200 281.394 312.000 280.192 C 317.520 276.507,316.123 268.258,309.726 266.773 C 307.018 266.145,295.375 266.308,294.815 266.982 M294.822 296.378 C 293.963 296.922,293.833 316.976,294.683 317.826 C 296.532 319.675,313.629 318.269,316.400 316.040 C 321.340 312.067,321.220 301.638,316.200 298.571 C 312.406 296.253,297.445 294.719,294.822 296.378 " stroke="none" fill="#7a0519" fill-rule="evenodd"></path><path id="path2" d="M140.600 254.109 C 139.280 255.490,136.493 258.596,134.407 261.010 C 132.321 263.425,129.870 266.210,128.960 267.200 C 128.050 268.190,126.697 269.716,125.953 270.591 C 125.209 271.466,124.150 272.640,123.600 273.200 C 123.050 273.759,120.988 276.090,119.017 278.379 C 117.047 280.668,114.797 283.223,114.017 284.058 C 113.238 284.892,111.880 286.423,111.000 287.459 C 104.705 294.870,103.917 295.285,101.414 292.500 C 100.476 291.455,97.748 288.435,95.354 285.788 C 92.959 283.142,89.740 279.561,88.200 277.831 C 86.660 276.100,84.950 274.203,84.400 273.614 C 83.850 273.025,82.680 271.678,81.800 270.621 C 80.920 269.565,79.637 268.138,78.949 267.450 C 78.261 266.763,76.731 265.112,75.549 263.783 C 66.604 253.721,64.937 252.000,64.142 252.000 C 63.389 252.000,63.328 331.168,64.080 331.920 C 64.704 332.544,76.502 332.588,77.654 331.971 C 78.442 331.549,78.455 331.194,78.367 311.431 C 78.318 300.371,78.406 291.114,78.563 290.860 C 79.090 290.007,79.984 290.391,80.987 291.900 C 83.160 295.169,86.517 299.239,92.800 306.223 C 94.010 307.568,96.604 310.515,98.565 312.773 C 103.527 318.485,103.458 318.467,106.876 314.833 C 113.079 308.238,123.466 296.144,125.279 293.406 C 127.003 290.803,129.272 289.680,129.222 291.455 C 128.665 311.308,128.766 331.386,129.424 331.867 C 130.491 332.647,143.311 332.630,143.960 331.848 C 144.298 331.441,144.411 320.983,144.390 292.040 C 144.375 270.450,144.471 252.608,144.605 252.392 C 144.738 252.177,144.671 252.000,144.456 252.000 C 144.241 252.000,143.826 251.909,143.533 251.799 C 143.231 251.685,141.958 252.688,140.600 254.109 M162.976 252.168 C 161.836 253.002,161.536 331.069,162.670 331.900 C 163.614 332.591,177.231 332.609,177.920 331.920 C 178.751 331.089,178.601 252.163,177.767 251.843 C 176.364 251.304,163.779 251.581,162.976 252.168 M196.629 252.229 C 195.799 253.058,195.654 331.094,196.480 331.920 C 196.838 332.278,201.130 332.400,213.326 332.400 L 229.692 332.400 233.540 331.352 C 237.688 330.222,243.085 327.832,245.745 325.946 C 246.655 325.301,247.844 324.465,248.386 324.087 C 255.024 319.460,260.856 309.385,262.215 300.200 C 264.031 287.914,261.020 274.360,254.883 267.203 C 248.050 259.233,239.856 254.337,230.800 252.811 C 229.150 252.533,226.990 252.157,226.000 251.977 C 222.358 251.311,197.331 251.526,196.629 252.229 M278.741 251.868 C 277.626 252.164,277.611 252.705,277.605 292.686 C 277.600 331.355,277.605 331.574,278.412 332.006 C 278.974 332.307,285.403 332.404,299.312 332.320 L 319.400 332.200 323.346 330.218 C 333.774 324.982,338.300 314.924,335.965 302.173 C 335.101 297.451,331.100 292.337,326.600 290.203 C 322.177 288.106,321.632 287.208,324.034 285.983 C 334.095 280.850,334.441 264.515,324.650 256.944 C 318.488 252.179,315.282 251.599,295.400 251.651 C 286.600 251.674,279.103 251.772,278.741 251.868 M224.901 266.416 C 227.773 266.862,230.590 267.471,231.161 267.769 C 231.733 268.066,232.650 268.520,233.200 268.776 C 236.054 270.106,237.218 270.926,239.334 273.099 C 240.609 274.407,241.878 275.910,242.155 276.439 C 242.432 276.967,242.858 277.760,243.103 278.200 C 249.813 290.257,246.283 307.526,235.649 314.657 C 230.110 318.373,216.165 320.418,213.054 317.971 L 212.000 317.142 212.000 292.751 C 212.000 263.553,211.586 265.848,216.880 265.688 C 218.419 265.642,222.028 265.969,224.901 266.416 M310.058 266.405 C 315.331 268.075,317.394 272.504,315.084 277.194 C 313.051 281.321,309.740 282.320,299.407 281.925 C 293.286 281.691,293.599 282.094,293.606 274.451 C 293.614 265.721,293.175 266.252,300.611 265.984 C 303.905 265.865,306.806 265.730,307.058 265.684 C 307.310 265.638,308.660 265.962,310.058 266.405 M312.440 296.251 C 312.748 296.499,313.450 296.832,314.000 296.991 C 322.432 299.428,322.835 313.356,314.600 317.717 C 312.060 319.062,295.711 319.311,294.424 318.024 C 293.139 316.739,293.297 297.106,294.600 296.144 C 295.605 295.402,311.503 295.497,312.440 296.251 " stroke="none" fill="#f7f1f3" fill-rule="evenodd"></path></g></svg>