<svg id="svg" version="1.1" xmlns="http://www.w3.org/2000/svg" xmlns:xlink="http://www.w3.org/1999/xlink" width="400" height="174.4922826969943" viewBox="0, 0, 400,174.4922826969943"><g id="svgg"><path id="path0" d="M80.477 0.720 C 75.324 1.067,72.139 1.439,68.529 2.119 C 66.060 2.583,62.437 3.439,60.764 3.952 C 56.910 5.133,54.681 5.935,51.688 7.215 C 24.908 18.672,3.372 47.299,0.815 74.838 C -0.582 89.890,5.689 101.266,17.862 105.758 L 18.789 106.099 19.179 107.181 C 21.558 113.777,27.022 117.565,34.714 117.950 C 36.493 118.040,39.948 117.930,40.858 117.755 C 41.563 117.620,41.662 117.883,41.320 118.992 C 41.230 119.284,41.058 120.133,40.939 120.877 C 40.819 121.622,40.639 122.694,40.539 123.260 C 40.267 124.801,40.263 133.032,40.534 134.525 C 40.636 135.091,40.821 136.280,40.944 137.168 C 41.203 139.040,41.620 141.036,42.246 143.406 C 42.940 146.032,43.807 149.398,44.521 152.234 C 45.281 155.256,45.365 155.538,45.502 155.538 C 45.627 155.538,45.558 155.699,46.958 152.126 C 47.588 150.517,48.633 147.861,49.280 146.223 C 49.927 144.584,50.637 142.781,50.858 142.215 C 54.679 132.427,63.737 124.821,77.335 119.978 C 78.667 119.504,78.717 119.513,81.235 120.626 C 87.377 123.342,92.205 124.778,98.348 125.716 C 100.957 126.115,108.074 126.181,109.938 125.824 C 110.504 125.716,111.478 125.530,112.104 125.410 C 121.298 123.659,129.186 117.910,133.823 109.583 C 134.409 108.530,134.396 108.536,135.259 108.898 C 144.676 112.855,156.065 109.905,164.040 101.443 C 184.755 79.464,179.117 47.375,150.518 24.481 C 132.390 9.969,112.531 2.085,90.766 0.760 C 89.182 0.663,81.751 0.635,80.477 0.720 M89.196 10.284 C 90.268 10.336,91.633 10.432,92.229 10.498 C 92.824 10.563,94.092 10.691,95.045 10.782 C 103.807 11.617,109.680 14.044,114.432 18.793 C 116.556 20.916,117.221 21.881,120.326 27.349 C 124.125 34.039,125.587 35.888,128.781 38.037 C 131.584 39.923,135.806 41.376,138.487 41.376 C 139.087 41.376,139.079 41.322,138.389 40.740 C 134.155 37.164,132.309 34.814,130.676 30.922 C 130.087 29.519,127.118 20.802,127.200 20.720 C 127.645 20.274,139.124 27.790,144.370 31.962 C 146.604 33.739,147.127 34.197,149.731 36.657 C 158.334 44.783,164.782 55.966,166.254 65.313 C 166.372 66.057,166.518 66.959,166.580 67.317 C 166.959 69.508,166.659 74.823,165.987 77.826 C 164.707 83.549,161.344 90.153,157.872 93.765 L 157.162 94.503 157.913 93.041 C 164.165 80.863,159.922 69.154,147.614 64.619 C 145.092 63.690,142.357 63.017,137.233 62.065 C 125.971 59.972,123.083 57.689,117.166 46.196 C 113.959 39.968,112.405 37.356,110.313 34.676 C 104.500 27.227,96.915 24.948,88.871 28.233 C 86.498 29.202,85.260 30.030,82.475 32.510 C 82.255 32.706,82.240 32.694,81.229 31.438 C 79.378 29.140,76.534 26.355,74.799 25.143 C 73.760 24.417,73.757 24.458,74.677 26.645 C 76.948 32.047,78.757 39.359,79.156 44.761 C 79.276 46.383,79.206 46.365,80.505 45.101 C 87.097 38.684,93.554 35.399,97.428 36.492 C 100.979 37.493,103.431 40.627,108.666 50.853 C 113.338 59.979,116.306 63.569,121.938 66.904 C 126.049 69.339,128.818 70.255,135.987 71.550 C 143.595 72.925,146.291 73.929,148.610 76.248 C 151.248 78.885,151.771 81.943,150.335 86.335 C 148.854 90.869,145.295 94.434,141.132 95.555 C 139.422 96.015,133.842 95.867,131.631 95.302 C 131.167 95.184,130.689 95.062,130.569 95.031 C 130.426 94.994,130.119 95.128,129.689 95.415 C 128.658 96.104,125.417 97.735,123.746 98.405 C 114.933 101.943,108.324 101.007,99.702 95.000 C 98.206 93.957,96.335 92.494,90.263 87.616 C 83.837 82.454,80.847 80.348,76.766 78.109 C 74.887 77.078,74.934 77.260,75.989 75.153 C 78.276 70.586,79.881 69.509,84.430 69.492 C 88.709 69.476,92.306 71.106,97.219 75.290 C 103.273 80.446,107.220 82.790,110.696 83.292 C 111.143 83.357,111.667 83.437,111.860 83.471 C 112.897 83.653,112.977 83.295,112.063 82.554 C 110.661 81.416,109.117 79.676,104.832 74.407 C 99.248 67.540,96.650 65.164,92.337 62.978 C 85.047 59.285,76.432 60.121,71.309 65.019 C 69.559 66.692,68.435 68.347,66.814 71.638 C 66.289 72.704,65.837 73.598,65.810 73.625 C 65.783 73.652,64.893 73.501,63.831 73.290 C 54.100 71.353,41.512 72.479,33.769 75.980 C 25.860 79.555,20.050 86.495,18.465 94.259 C 18.232 95.397,18.252 95.393,17.096 94.543 C 5.186 85.781,9.700 59.850,26.851 38.505 C 28.491 36.463,29.898 34.845,29.970 34.916 C 29.993 34.939,30.158 35.683,30.337 36.568 C 30.659 38.161,31.255 40.121,31.771 41.289 L 32.038 41.892 31.006 43.773 C 28.862 47.684,28.573 48.617,27.994 53.507 C 27.336 59.063,28.039 64.449,29.880 67.966 L 30.163 68.508 30.234 67.533 C 30.273 66.997,30.310 65.876,30.317 65.042 C 30.329 63.384,30.510 62.102,30.942 60.601 C 31.914 57.222,34.875 51.612,36.277 50.495 C 36.550 50.278,36.959 49.937,37.188 49.738 C 37.680 49.307,37.615 49.290,38.780 50.168 C 42.186 52.737,46.704 54.673,51.124 55.457 C 53.457 55.870,53.698 55.902,54.225 55.869 L 54.752 55.835 52.748 54.382 C 42.836 47.192,39.033 41.671,39.053 34.498 C 39.065 29.833,40.360 26.952,44.192 23.064 C 50.081 17.088,63.761 11.903,76.898 10.668 C 77.939 10.570,78.832 10.464,78.884 10.433 C 79.204 10.235,86.132 10.135,89.196 10.284 M57.696 81.989 C 57.983 82.047,58.876 82.173,59.680 82.270 C 61.442 82.484,64.275 83.187,66.342 83.925 C 72.198 86.015,77.121 89.163,85.838 96.393 C 95.918 104.753,101.636 108.047,108.530 109.466 C 112.336 110.249,118.421 110.070,121.851 109.073 C 122.318 108.937,122.285 108.934,122.285 109.110 C 122.285 109.192,121.883 109.644,121.392 110.115 C 112.644 118.509,99.194 118.671,82.659 110.582 L 80.022 109.292 79.031 109.510 C 69.389 111.635,59.227 117.018,51.700 123.988 C 50.200 125.378,50.257 125.346,50.257 124.800 C 50.257 122.743,51.456 118.440,52.723 115.949 C 53.341 114.734,56.035 111.390,65.724 99.810 C 66.272 99.155,66.675 98.604,66.619 98.585 C 66.523 98.553,64.655 99.308,53.128 104.037 C 45.679 107.092,42.895 107.906,38.505 108.311 C 30.698 109.031,27.804 106.516,27.791 98.998 L 27.786 96.344 28.201 95.153 C 28.429 94.498,28.977 93.212,29.419 92.296 L 30.222 90.630 32.089 88.760 C 36.346 84.496,40.690 82.834,49.492 82.101 C 50.233 82.040,50.862 81.966,50.891 81.937 C 50.990 81.838,57.174 81.885,57.696 81.989 M243.109 133.929 C 233.009 135.364,227.605 141.650,229.630 149.609 C 230.915 154.658,234.670 157.044,244.592 159.115 C 250.609 160.371,252.391 161.475,252.118 163.776 C 251.531 168.733,239.494 168.378,231.679 163.172 C 230.324 162.269,230.288 162.253,229.637 162.253 L 228.974 162.253 228.974 167.007 L 228.974 171.761 229.434 171.949 C 231.535 172.809,235.396 173.875,237.855 174.273 C 240.128 174.641,248.599 174.603,250.514 174.216 C 259.642 172.373,264.573 165.458,262.212 157.812 C 260.853 153.411,257.479 151.451,247.305 149.153 C 240.905 147.707,239.914 147.155,239.894 145.021 C 239.845 139.829,251.094 139.685,258.790 144.780 C 259.942 145.543,260.011 145.573,260.635 145.573 L 261.284 145.573 261.213 144.419 C 261.174 143.784,261.143 141.696,261.143 139.780 L 261.143 136.295 259.599 135.791 C 254.566 134.149,247.320 133.331,243.109 133.929 M83.618 154.233 L 83.618 173.951 90.685 173.943 C 101.170 173.933,104.886 173.823,106.533 173.475 C 112.976 172.114,116.642 168.541,117.213 163.064 C 117.749 157.921,115.329 154.276,110.311 152.668 C 108.929 152.225,108.876 152.173,109.532 151.911 C 112.668 150.657,114.928 146.730,114.645 143.027 C 114.352 139.197,112.338 136.839,108.169 135.444 C 106.008 134.721,105.200 134.679,91.497 134.575 L 83.618 134.515 83.618 154.233 M101.210 142.053 C 103.574 142.676,104.676 144.558,104.094 146.981 C 103.685 148.684,102.907 149.365,100.944 149.737 C 100.118 149.894,99.483 149.932,95.397 150.068 L 93.691 150.125 93.691 145.936 L 93.691 141.747 97.130 141.815 C 99.721 141.867,100.727 141.926,101.210 142.053 M386.642 147.259 C 380.347 148.238,376.743 152.603,378.062 157.650 C 378.949 161.041,381.321 162.579,387.923 164.042 C 392.068 164.960,393.056 165.507,393.066 166.887 C 393.089 170.409,385.366 170.408,379.739 166.885 C 379.041 166.449,378.432 166.148,378.148 166.101 L 377.688 166.025 377.688 169.276 L 377.688 172.527 378.545 172.858 C 384.636 175.207,392.549 174.999,396.475 172.386 C 399.205 170.570,400.031 168.924,399.979 165.407 L 399.946 163.174 399.538 162.320 C 398.395 159.925,395.944 158.698,389.277 157.182 C 385.848 156.402,385.006 155.900,385.006 154.637 C 385.006 151.325,392.417 151.178,397.349 154.393 C 398.122 154.897,398.354 154.996,398.758 154.996 L 399.242 154.996 399.234 152.369 C 399.229 150.925,399.193 149.523,399.153 149.255 L 399.079 148.768 397.888 148.368 C 394.711 147.300,389.609 146.797,386.642 147.259 M123.044 160.791 L 123.044 173.951 126.510 173.951 L 129.976 173.951 129.976 169.131 L 129.976 164.311 131.469 164.311 L 132.962 164.311 136.522 169.130 L 140.082 173.950 147.719 173.923 L 155.356 173.897 156.247 171.297 L 157.138 168.698 161.905 168.669 L 166.671 168.641 167.563 171.297 L 168.454 173.954 171.987 173.925 L 175.521 173.897 175.504 173.626 C 175.486 173.347,173.646 168.296,170.788 160.682 C 169.893 158.299,168.483 154.522,167.653 152.288 C 166.824 150.054,166.092 148.092,166.027 147.929 L 165.909 147.631 161.986 147.631 L 158.064 147.631 153.253 160.680 C 150.608 167.858,148.411 173.719,148.372 173.705 C 148.268 173.668,139.832 162.803,139.832 162.706 C 139.832 162.660,140.137 162.445,140.509 162.227 C 147.095 158.371,146.075 149.283,138.911 147.994 C 137.744 147.784,133.178 147.638,127.620 147.634 L 123.044 147.631 123.044 160.791 M178.175 150.068 L 178.175 152.505 180.287 152.505 L 182.399 152.505 182.399 160.791 L 182.399 169.077 180.287 169.077 L 178.175 169.077 178.175 171.514 L 178.175 173.951 185.919 173.951 L 193.664 173.951 193.664 171.514 L 193.664 169.077 191.497 169.077 L 189.331 169.077 189.331 160.791 L 189.331 152.505 191.497 152.505 L 193.664 152.505 193.664 150.068 L 193.664 147.631 185.919 147.631 L 178.175 147.631 178.175 150.068 M198.971 160.789 L 198.971 173.951 202.111 173.951 L 205.252 173.951 205.280 165.138 L 205.307 156.326 210.735 165.111 L 216.163 173.897 219.536 173.925 L 222.908 173.954 222.908 160.792 L 222.908 147.631 219.713 147.631 L 216.518 147.631 216.507 154.265 C 216.501 157.914,216.465 161.153,216.426 161.463 L 216.355 162.027 211.794 154.856 L 207.233 147.685 203.102 147.656 L 198.971 147.628 198.971 160.789 M265.901 148.741 C 266.066 149.351,267.658 155.273,269.438 161.901 L 272.674 173.951 276.521 173.951 L 280.368 173.950 281.766 168.724 C 284.299 159.257,284.792 157.481,284.868 157.566 C 284.909 157.612,285.246 158.746,285.617 160.087 C 286.563 163.510,289.152 172.937,289.299 173.492 L 289.421 173.953 293.282 173.925 L 297.142 173.897 297.941 170.918 C 298.380 169.280,299.956 163.415,301.443 157.886 C 302.930 152.357,304.119 147.787,304.084 147.732 C 303.982 147.566,297.106 147.600,297.053 147.766 C 297.029 147.841,296.345 150.753,295.532 154.238 C 294.720 157.723,293.805 161.591,293.500 162.833 L 292.945 165.093 292.209 162.238 C 291.805 160.667,290.803 156.739,289.983 153.507 L 288.492 147.632 284.999 147.631 C 283.077 147.631,281.506 147.659,281.506 147.693 C 281.506 147.747,278.062 160.620,277.219 163.715 C 277.057 164.311,276.893 164.835,276.854 164.879 C 276.786 164.957,275.770 160.579,273.839 151.883 L 272.895 147.632 269.248 147.631 L 265.601 147.631 265.901 148.741 M307.284 150.068 L 307.284 152.505 309.396 152.505 L 311.508 152.505 311.508 160.791 L 311.508 169.077 309.396 169.077 L 307.284 169.077 307.284 171.514 L 307.284 173.951 315.028 173.951 L 322.773 173.951 322.773 171.514 L 322.773 169.077 320.607 169.077 L 318.440 169.077 318.440 160.791 L 318.440 152.505 320.607 152.505 L 322.773 152.505 322.773 150.068 L 322.773 147.631 315.028 147.631 L 307.284 147.631 307.284 150.068 M328.080 160.791 L 328.080 173.951 331.600 173.951 L 335.120 173.951 335.120 169.672 L 335.120 165.394 337.314 165.393 C 341.014 165.391,343.244 165.078,344.662 164.361 C 352.218 160.539,351.473 149.672,343.540 148.004 C 342.267 147.736,339.531 147.633,333.685 147.632 L 328.080 147.631 328.080 160.791 M354.509 160.791 L 354.509 173.951 364.040 173.951 L 373.572 173.951 373.572 171.351 L 373.572 168.752 367.452 168.752 L 361.332 168.752 361.332 165.611 L 361.332 162.470 367.019 162.470 L 372.705 162.470 372.705 159.870 L 372.705 157.271 367.019 157.271 L 361.332 157.271 361.332 155.050 L 361.332 152.830 367.452 152.830 L 373.572 152.830 373.572 150.230 L 373.572 147.631 364.040 147.631 L 354.509 147.631 354.509 160.791 M135.770 152.827 C 137.151 153.268,137.696 154.119,137.691 155.827 C 137.684 158.476,136.434 159.256,131.959 159.405 L 129.976 159.471 129.976 155.974 L 129.976 152.477 132.494 152.532 C 134.707 152.579,135.104 152.615,135.770 152.827 M338.532 152.823 C 341.410 153.035,342.869 154.373,342.666 156.615 C 342.426 159.263,341.042 160.138,336.881 160.276 L 335.120 160.334 335.120 156.527 L 335.120 152.721 336.177 152.725 C 336.757 152.727,337.817 152.771,338.532 152.823 M163.511 159.311 C 164.593 162.511,164.925 163.617,164.824 163.681 C 164.665 163.782,159.376 163.779,159.045 163.677 C 158.825 163.610,158.876 163.432,160.340 159.138 C 161.466 155.836,161.890 154.716,161.964 154.848 C 162.019 154.946,162.715 156.954,163.511 159.311 M102.034 157.056 C 105.402 157.463,106.642 158.719,106.627 161.711 C 106.617 163.838,106.035 164.914,104.443 165.750 C 102.868 166.578,102.590 166.617,97.888 166.667 L 93.691 166.711 93.691 161.828 L 93.691 156.946 97.403 156.946 C 99.445 156.946,101.529 156.995,102.034 157.056 " stroke="none" fill="#000000" fill-rule="evenodd"></path></g></svg>